<svg width="20" height="20" viewBox="0 0 20 20" fill="none" xmlns="http://www.w3.org/2000/svg">
<rect width="20" height="20" rx="10" fill="#F3FFCC"/>
<path fill-rule="evenodd" clip-rule="evenodd" d="M15.7 6.18927C16.01 6.46327 16.039 6.93727 15.765 7.24927L10.015 13.7493C9.9486 13.8244 9.86781 13.8854 9.77743 13.9287C9.68705 13.972 9.58889 13.9968 9.48877 14.0016C9.38865 14.0063 9.28859 13.991 9.1945 13.9564C9.10042 13.9218 9.01422 13.8687 8.941 13.8003L5.191 10.3003C5.04674 10.1643 4.96216 9.97678 4.95577 9.77865C4.94937 9.58052 5.02168 9.38792 5.15687 9.24295C5.29207 9.09797 5.47916 9.01242 5.67725 9.00498C5.87534 8.99755 6.06832 9.06884 6.214 9.20327L9.404 12.1733L14.644 6.25327C14.7093 6.17936 14.7886 6.11907 14.8773 6.07584C14.9659 6.03262 15.0623 6.00731 15.1607 6.00136C15.2592 5.99542 15.3579 6.00896 15.4511 6.0412C15.5443 6.07344 15.6303 6.12376 15.704 6.18927H15.7Z" fill="#3BA700"/>
</svg>
