<svg width="25" height="24" viewBox="0 0 25 24" fill="none" xmlns="http://www.w3.org/2000/svg">
<path d="M15.5 4H16.5C16.7652 4 17.0196 4.10536 17.2071 4.29289C17.3946 4.48043 17.5 4.73478 17.5 5V8.5M20.5 6C20.764 6.112 21.02 6.217 21.268 6.315C21.5121 6.41859 21.7051 6.6149 21.8045 6.86075C21.9039 7.1066 21.9015 7.38187 21.798 7.626L19.5 13M4.10398 7.197L11.242 4.088C11.3598 4.03752 11.4865 4.01112 11.6146 4.01038C11.7428 4.00964 11.8698 4.03456 11.9881 4.08368C12.1065 4.13279 12.2138 4.20511 12.3038 4.29636C12.3938 4.38761 12.4645 4.49595 12.512 4.615L17.436 16.517C17.5383 16.7583 17.5418 17.0302 17.4457 17.2741C17.3495 17.518 17.1615 17.7144 16.922 17.821L9.78498 20.93C9.66714 20.9806 9.54035 21.0072 9.41209 21.008C9.28384 21.0088 9.15672 20.9839 9.03824 20.9348C8.91976 20.8857 8.81232 20.8133 8.72228 20.722C8.63224 20.6306 8.56141 20.5222 8.51398 20.403L3.58998 8.5C3.48763 8.25865 3.48415 7.98677 3.58029 7.74288C3.67642 7.49899 3.86448 7.3036 4.10398 7.197Z" stroke="#858494" stroke-width="2" stroke-linecap="round" stroke-linejoin="round"/>
</svg>
