<svg width="25" height="22" viewBox="0 0 25 22" fill="none" xmlns="http://www.w3.org/2000/svg">
<rect x="5.18262" y="0.979492" width="14.9826" height="21.0202" fill="#823FAB"/>
<rect x="5.18262" y="1.69238" width="14.9826" height="1.78138" fill="#905EAF"/>
<rect x="5.18262" y="19.5059" width="14.9826" height="1.78138" fill="#905EAF"/>
<rect x="5.18262" y="15.2305" width="14.9826" height="1.78138" fill="#905EAF"/>
<rect x="5.18262" y="5.67969" width="14.9826" height="1.78138" fill="#905EAF"/>
<rect x="0.65332" y="0.979492" width="4.18118" height="11.0445" fill="#D28800"/>
<rect x="2.04688" y="11.668" width="2.78746" height="9.26316" fill="#D28800"/>
<rect x="20.165" y="0.979492" width="4.18118" height="11.0445" fill="#D28800"/>
<rect x="20.165" y="11.668" width="2.78746" height="9.26316" fill="#D28800"/>
<rect x="4.83496" y="10.5996" width="15.331" height="2.13765" fill="#FBB603"/>
<mask id="mask0_390_20382" style="mask-type:alpha" maskUnits="userSpaceOnUse" x="0" y="0" width="25" height="22">
<path d="M24.1071 0H20.5357C20.2989 0 20.0718 0.096145 19.9044 0.267411C19.7369 0.438589 19.6429 0.670815 19.6429 0.912956V1.82591H5.35714V0.912956C5.35714 0.670832 5.26311 0.438608 5.09562 0.267411C4.92821 0.0961353 4.7011 0 4.46429 0H0.892857C0.656064 0 0.428952 0.096145 0.261524 0.267411C0.0940191 0.438589 0 0.670815 0 0.912956V11.8684C0 12.1105 0.0940286 12.3428 0.261524 12.514C0.428933 12.6852 0.656048 12.7814 0.892857 12.7814V20.998C0.892857 21.2401 0.986886 21.4723 1.15438 21.6435C1.32179 21.8148 1.5489 21.9109 1.78571 21.9109H23.2143C23.4511 21.9109 23.6782 21.8148 23.8456 21.6435C24.0131 21.4723 24.1071 21.2401 24.1071 20.998V12.7814C24.3439 12.7814 24.571 12.6852 24.7385 12.514C24.906 12.3428 25 12.1106 25 11.8684V0.912956C25 0.670832 24.906 0.438608 24.7385 0.267411C24.5711 0.0961353 24.344 0 24.1071 0ZM21.4286 1.82591H23.2143V10.9555H21.4286V1.82591ZM19.6429 3.65182V10.9555H16.0714V10.0425C16.0714 9.55825 15.8833 9.09379 15.5484 8.75145C15.2135 8.409 14.7593 8.2166 14.2857 8.2166H10.7143C10.2407 8.2166 9.78645 8.40899 9.45164 8.75145C9.11674 9.09379 8.92857 9.55828 8.92857 10.0425V10.9555H5.35714V3.65182H19.6429ZM14.2857 13.6943H10.7143V10.0425H14.2857V13.6943ZM1.78571 1.82591H3.57143V10.9555H1.78571V1.82591ZM2.67857 12.7814H4.46429V20.085H2.67857V12.7814ZM6.25 12.7814H8.92857V13.6943C8.92857 14.1786 9.11672 14.6431 9.45164 14.9854C9.78645 15.3278 10.2407 15.5202 10.7143 15.5202H11.6071V16.4332C11.6071 16.7594 11.7773 17.0608 12.0536 17.2239C12.3298 17.387 12.6702 17.387 12.9464 17.2239C13.2227 17.0608 13.3929 16.7594 13.3929 16.4332V15.5202H14.2857C14.7593 15.5202 15.2135 15.3279 15.5484 14.9854C15.8833 14.6431 16.0714 14.1786 16.0714 13.6943V12.7814H18.75V20.085H6.25V12.7814ZM22.3214 20.085H20.5357V12.7814H22.3214V20.085Z" fill="black"/>
</mask>
<g mask="url(#mask0_390_20382)">
<path fill-rule="evenodd" clip-rule="evenodd" d="M5.55138 -6.8584H-5.27051V12.7367H-4.59375V30.5502H6.22814V10.9551H5.55138V-6.8584Z" fill="#FBB603"/>
<path fill-rule="evenodd" clip-rule="evenodd" d="M30.2699 -6.8584H19.1201V12.7367H19.8174V30.5502H30.9672V10.9551H30.2699V-6.8584Z" fill="#FBB603"/>
</g>
<rect x="9.01562" y="8.10547" width="6.96864" height="7.48178" rx="3.48432" fill="#FBCF04"/>
<path d="M12.5004 9.88672C10.982 9.88672 11.4459 11.3356 11.8677 12.0601C11.3616 13.665 11.6568 13.8434 11.8677 13.7319C12.2895 13.7876 13.1647 13.8656 13.2912 13.7319C13.4177 13.5982 13.2385 12.4502 13.133 11.8929C13.5548 11.2242 14.0188 9.88672 12.5004 9.88672Z" fill="#DB8E00"/>
</svg>
