<svg width="19" height="20" viewBox="0 0 19 20" fill="none" xmlns="http://www.w3.org/2000/svg">
<path d="M3.5 12.4998H2.66667C2.22464 12.4998 1.80072 12.3242 1.48816 12.0117C1.17559 11.6991 1 11.2752 1 10.8332V3.33317C1 2.89114 1.17559 2.46722 1.48816 2.15466C1.80072 1.8421 2.22464 1.6665 2.66667 1.6665H10.1667C10.6087 1.6665 11.0326 1.8421 11.3452 2.15466C11.6577 2.46722 11.8333 2.89114 11.8333 3.33317V4.1665" stroke="#3BA700" stroke-width="2" stroke-linecap="round" stroke-linejoin="round"/>
<path d="M15.9999 7.5H8.49992C7.57944 7.5 6.83325 8.24619 6.83325 9.16667V16.6667C6.83325 17.5871 7.57944 18.3333 8.49992 18.3333H15.9999C16.9204 18.3333 17.6666 17.5871 17.6666 16.6667V9.16667C17.6666 8.24619 16.9204 7.5 15.9999 7.5Z" stroke="#3BA700" stroke-width="2" stroke-linecap="round" stroke-linejoin="round"/>
</svg>
