<svg width="83" height="32" viewBox="0 0 83 32" fill="none" xmlns="http://www.w3.org/2000/svg">
<path d="M0.879858 0.878462L1.18489 18.1963L16.03 9.27321L0.879858 0.878462ZM3.4969 5.23239L4.65819 4.28296L3.4969 5.23239ZM21.2126 23.1362L20.3629 24.3723L21.2126 23.1362ZM52.807 28.8764L52.4804 27.4124L52.807 28.8764ZM82.3727 7.6061C82.7672 6.87761 82.4964 5.96728 81.7679 5.57282C81.0394 5.17835 80.1291 5.44913 79.7346 6.17761L82.3727 7.6061ZM2.33561 6.18181C7.79518 12.8597 12.9347 19.2657 20.3629 24.3723L22.0624 21.9002C15.0463 17.0768 10.1672 11.0214 4.65819 4.28296L2.33561 6.18181ZM20.3629 24.3723C25.7843 28.0994 30.7129 30.3522 35.9718 31.2771C41.2229 32.2007 46.6836 31.7791 53.1335 30.3404L52.4804 27.4124C46.2536 28.8013 41.2179 29.1538 36.4915 28.3225C31.7728 27.4925 27.2426 25.4614 22.0624 21.9002L20.3629 24.3723ZM53.1335 30.3404C58.8162 29.0729 64.7652 25.8746 69.939 21.7988C75.1161 17.7204 79.6269 12.6769 82.3727 7.6061L79.7346 6.17761C77.2243 10.8136 73.0138 15.5575 68.0826 19.4422C63.1481 23.3295 57.6018 26.27 52.4804 27.4124L53.1335 30.3404Z" fill="#3BA700"/>
</svg>
