<svg width="56" height="50" viewBox="0 0 56 50" fill="none" xmlns="http://www.w3.org/2000/svg">
<path d="M55.6418 27.4557C55.3058 31.0722 54.2109 34.5687 52.4339 37.6997C50.6579 40.8307 48.2434 43.5206 45.3593 45.5806C42.4752 47.6406 39.1914 49.021 35.7386 49.6248C32.2868 50.2286 28.749 50.0413 25.3731 49.076C21.9983 48.1106 18.8673 46.3906 16.1998 44.0367C13.5333 41.6828 11.394 38.7518 9.93372 35.4494C8.47448 32.147 7.72766 28.5531 7.7479 24.9198C7.76814 21.2865 8.55342 17.7016 10.0501 14.4168C14.2558 5.21104 23.6862 -0.730807 34.0244 0.293106C47.2243 1.59951 56.9037 13.7615 55.6418 27.4557Z" fill="#C4D0FB"/>
<path d="M8.43086 12.3629L9.04916 11.1961C9.30923 10.6137 9.53996 10.0179 9.74134 9.41086C10.053 8.45836 9.94373 7.10049 11.3089 5.81824C12.674 4.53598 10.6551 4.88989 9.97308 5.48113C9.40436 5.97366 8.94189 7.37143 8.37621 7.68648C8.24668 7.49672 8.14447 7.28879 8.07262 7.06899L6.83601 1.05573C6.8178 0.959427 6.7672 0.872999 6.69333 0.812404C6.61844 0.751914 6.52534 0.721144 6.43123 0.725975L6.20455 0.733326C6.14991 0.736372 6.09627 0.751284 6.04669 0.777118C5.99811 0.802952 5.9546 0.839078 5.92019 0.88329C5.88477 0.927502 5.85948 0.97875 5.84531 1.03378C5.83013 1.08881 5.82709 1.14636 5.83519 1.20275C6.02544 2.48921 6.68624 6.31707 6.61945 6.31917L6.48284 6.38638L4.58643 0.295407C4.56012 0.199211 4.50042 0.116563 4.41946 0.0630046C4.33749 0.00955111 4.24035 -0.0109272 4.14522 0.00556047L3.84164 0.0580688C3.78901 0.0666802 3.73842 0.0863183 3.69389 0.115933C3.64835 0.145443 3.6099 0.184194 3.57954 0.229876C3.55019 0.275453 3.52894 0.327017 3.51882 0.38131C3.5087 0.435499 3.50971 0.491368 3.52085 0.545346C3.81229 1.94627 5.17539 6.60796 5.10658 6.61216L4.93961 6.67097L2.8823 1.63017C2.85397 1.52977 2.7892 1.4446 2.70116 1.3922C2.61413 1.3398 2.51091 1.32426 2.41275 1.34872L2.1709 1.41068C2.1203 1.4235 2.07274 1.44649 2.03125 1.47831C1.98976 1.51014 1.95434 1.55025 1.92701 1.59625C1.9007 1.64235 1.88249 1.69339 1.87439 1.74663C1.8663 1.79977 1.86933 1.85406 1.88148 1.90636L3.73234 6.86525L3.56234 6.97657L1.62343 3.39445C1.58598 3.30225 1.51717 3.22747 1.43014 3.1841C1.34413 3.14073 1.24496 3.13191 1.15186 3.15921L1.03649 3.19492C0.937321 3.22506 0.85434 3.29384 0.803743 3.38678C0.753145 3.47972 0.738977 3.58947 0.765288 3.6927C0.951488 4.42781 1.87844 5.97051 2.41781 7.57832C2.8398 8.82381 2.86915 9.82147 3.56537 11.3295C3.85884 11.9691 4.41744 12.7283 4.72204 13.1516" fill="#FFCCD7"/>
<path d="M43.5903 46.7586C39.0901 49.4067 33.8856 50.4752 28.752 49.8048C23.6194 49.1346 18.8318 46.7614 15.1037 43.0389L15.3932 35.338L6.1034 33.746C4.7322 33.3551 3.54011 32.4699 2.74168 31.2492C1.94325 30.0285 1.59008 28.5524 1.74592 27.0858L2.5059 11.9697L9.84561 12.4948L10.048 14.4187L11.1824 24.5717C11.1824 24.5717 18.8611 25.5683 29.3399 28.3523C39.5405 31.0628 42.545 40.4629 43.5903 46.7586Z" fill="#3BA700"/>
<path d="M15.2918 35.2406L15.3771 32.6162" stroke="#C4D0FB" stroke-linecap="square"/>
<path d="M35.598 18.9271C38.4112 15.2051 38.0105 10.005 34.7024 7.31253C31.3953 4.62 26.4327 5.45457 23.6194 9.17657C20.8062 12.8986 21.2069 18.0986 24.515 20.7911C27.8231 23.4836 32.7847 22.6491 35.598 18.9271Z" fill="#001833"/>
<path d="M24.5079 31.3626C23.9554 30.9475 23.5486 30.357 23.3492 29.6806C23.1488 29.0041 23.1671 28.2784 23.3998 27.6135L27.053 17.2042C27.1774 16.7819 27.3839 16.3904 27.6591 16.0534C27.9334 15.7165 28.2724 15.4412 28.6529 15.2442C29.0344 15.0472 29.4493 14.9327 29.8743 14.9076C30.2993 14.8825 30.7243 14.9474 31.1241 15.0983C31.5248 15.2492 31.8901 15.4831 32.2008 15.7854C32.5104 16.0879 32.7584 16.4526 32.9284 16.8576C33.0984 17.2624 33.1874 17.6989 33.1895 18.1405C33.1915 18.5821 33.1075 19.0196 32.9415 19.4264L29.2874 29.8367C29.1204 30.3086 28.8512 30.7341 28.5001 31.08C28.1489 31.4258 27.7249 31.6824 27.2624 31.83C26.799 31.9774 26.3092 32.0117 25.8315 31.9301C25.3539 31.8485 24.9005 31.6531 24.5079 31.3594V31.3626Z" fill="#FFCCD7"/>
<path d="M25.1283 25.5583L24.5211 25.3241C23.8147 25.0521 23.1752 24.6219 22.6479 24.0642C22.1197 23.5065 21.718 22.835 21.468 22.0973C21.2191 21.3598 21.13 20.5743 21.2069 19.7968C21.2838 19.0193 21.5247 18.269 21.9123 17.5991L23.835 14.2805C24.4553 13.2088 25.4197 12.3982 26.5592 11.9911C27.6976 11.5839 28.9383 11.6063 30.0636 12.0542C31.3326 12.5596 32.3556 13.5675 32.9092 14.856C33.4617 16.1447 33.4992 17.6084 33.0124 18.9254L31.6969 22.4781C31.2131 23.7857 30.2528 24.8426 29.0223 25.4192C27.7927 25.9959 26.3932 26.0459 25.1283 25.5583Z" fill="#FFCCD7"/>
<path d="M25.613 16.1631L22.9809 18.381L24.0141 19.1865" stroke="#24272D" stroke-linecap="square"/>
<path d="M26.2818 17.7302C26.5884 17.7302 26.8373 17.4721 26.8373 17.1537C26.8373 16.8353 26.5884 16.5771 26.2818 16.5771C25.9751 16.5771 25.7262 16.8353 25.7262 17.1537C25.7262 17.4721 25.9751 17.7302 26.2818 17.7302Z" fill="#24272D"/>
<path d="M23.9712 16.5173C24.2778 16.5173 24.5268 16.2592 24.5268 15.9408C24.5268 15.6224 24.2778 15.3643 23.9712 15.3643C23.6646 15.3643 23.4156 15.6224 23.4156 15.9408C23.4156 16.2592 23.6646 16.5173 23.9712 16.5173Z" fill="#24272D"/>
<path d="M40.8135 34.3974C40.8135 34.3974 38.2512 41.0544 33.2603 38.0972C24.9976 33.2002 26.6947 26.7606 29.0242 23.8149C29.9522 22.6418 31.2505 22.122 32.6055 21.6956C28.666 18.0904 30.6029 15.2193 30.6029 15.2193C30.6029 15.2193 20.0664 14.5167 23.4736 9.32992C26.8809 4.14315 32.9668 4.8226 36.1929 7.07521C43.6915 12.3134 41.1394 17.6525 42.8506 19.6184C52.5522 30.7743 40.8135 34.3974 40.8135 34.3974Z" fill="#001833"/>
<path d="M33.7126 22.1526C34.8025 21.4652 35.1486 19.9916 34.4858 18.8612C33.8239 17.7308 32.4042 17.3717 31.3143 18.0589L29.5211 19.1905C28.4322 19.8778 28.0861 21.3513 28.748 22.4818C29.4108 23.6122 30.8306 23.9713 31.9194 23.2841L33.7126 22.1526Z" fill="#FFCCD7"/>
<path d="M33.2229 19.7617L30.6788 21.3653" stroke="#24272D" stroke-linecap="square"/>
<path d="M25.5471 20.8115C25.5734 21.1784 25.4591 21.5415 25.2283 21.8206C24.9966 22.0998 24.6687 22.2723 24.3145 22.3001C23.9614 22.328 23.6112 22.209 23.3431 21.9691C23.0739 21.7294 22.9069 21.3885 22.8806 21.0216C22.8239 20.257 23.5697 20.2644 24.3054 20.2056C25.0411 20.1468 25.4904 20.047 25.5471 20.8115Z" fill="#24272D"/>
</svg>
