<svg width="56" height="55" viewBox="0 0 56 55" fill="none" xmlns="http://www.w3.org/2000/svg">
<path d="M55.3415 30.1132C54.9573 34.1068 53.704 37.9679 51.6692 41.4258C49.6346 44.8836 46.8678 47.8543 43.5632 50.1295C40.2586 52.4047 36.4962 53.9293 32.5398 54.5964C28.5834 55.2634 24.5291 55.0567 20.6612 53.9906C16.7932 52.9246 13.2054 51.0252 10.1493 48.4257C7.09336 45.826 4.64319 42.5893 2.97086 38.9424C1.29841 35.2957 0.444277 31.3271 0.468392 27.3151C0.492508 23.3031 1.39418 19.3451 3.11022 15.7186C7.92871 5.5533 18.7321 -1.00405 30.5777 0.126326C45.6976 1.56857 56.785 14.9951 55.3415 30.1132Z" fill="#C4D0FB"/>
<path d="M45.599 48.6028L44.6436 49.3668C43.6544 50.1214 42.6156 50.8086 41.5341 51.4235C38.331 53.2388 34.7961 54.3927 31.1387 54.8169C27.4815 55.241 23.7762 54.9267 20.2427 53.8926C16.7091 52.8584 13.4192 51.1256 10.5676 48.7966C7.71614 46.4677 5.36116 43.59 3.64233 40.3342C8.00866 37.1251 15.3187 33.2911 24.6693 34.0736C40.3097 35.3895 45.599 48.6028 45.599 48.6028Z" fill="#3BA700"/>
<path d="M26.9639 40.5927C26.7879 40.5931 26.6122 40.5827 26.4376 40.5614C25.2774 40.4232 24.2196 39.8299 23.497 38.9119C22.7742 37.9941 22.4457 36.8267 22.5837 35.6665L24.6706 18.1127C24.809 16.9524 25.4026 15.8946 26.3209 15.1719C26.7757 14.8142 27.2963 14.5495 27.8533 14.3928C28.4104 14.2363 28.9928 14.191 29.5674 14.2595C30.1419 14.328 30.6973 14.509 31.2019 14.7922C31.7065 15.0754 32.1503 15.4552 32.5081 15.9098C32.8659 16.3645 33.1307 16.8852 33.2872 17.4422C33.4439 17.9992 33.4892 18.5816 33.4207 19.1561L31.3337 36.71C31.2059 37.7795 30.6907 38.7649 29.8855 39.4804C29.0803 40.1958 28.041 40.5915 26.9639 40.5927Z" fill="#FFCCD7"/>
<path d="M30.6519 31.6256L31.5864 31.7299C32.673 31.8525 33.7734 31.734 34.809 31.3829C35.8446 31.0319 36.7902 30.457 37.5784 29.6989C38.3666 28.9409 38.978 28.0185 39.3691 26.9972C39.7602 25.976 39.9215 24.8812 39.8413 23.7906L39.4448 18.388C39.3166 16.6432 38.5778 14.9992 37.358 13.7449C36.1382 12.4906 34.5154 11.706 32.7748 11.5292C30.8111 11.3301 28.8488 11.919 27.3193 13.1666C25.7899 14.4142 24.8188 16.2182 24.6195 18.1816L24.0815 23.4788C23.8835 25.4282 24.4624 27.377 25.6925 28.9023C26.9226 30.4275 28.7047 31.406 30.6519 31.6256Z" fill="#FFCCD7"/>
<path d="M26.3233 25.8829L26.3242 25.8822C27.6114 25.0905 28.0129 23.4052 27.221 22.1181L26.4076 20.796C25.6157 19.5089 23.9304 19.1075 22.6433 19.8992L22.6423 19.8998C21.3552 20.6916 20.9537 22.3769 21.7456 23.6639L22.559 24.9861C23.3509 26.2731 25.0361 26.6746 26.3233 25.8829Z" fill="#FFCCD7"/>
<path d="M22.9513 22.0371L25.1449 24.3558" stroke="#001833" stroke-width="0.5" stroke-linecap="square"/>
<path d="M35.9945 19.0742L36.1487 23.416L34.6044 23.4786" stroke="#001833" stroke-width="0.5" stroke-linecap="square"/>
<path d="M31.3939 24.8272C31.2662 25.0631 31.1863 25.322 31.1586 25.5889C31.131 25.8558 31.1562 26.1254 31.2328 26.3826C31.3093 26.6397 31.4359 26.8792 31.6051 27.0875C31.7743 27.2958 31.9828 27.4687 32.2188 27.5963C32.4548 27.7239 32.7136 27.8039 32.9805 27.8315C33.2474 27.8591 33.5171 27.834 33.7742 27.7573C34.0314 27.6808 34.2709 27.5542 34.4792 27.3851C34.6875 27.2159 34.8604 27.0075 34.988 26.7714C35.5248 25.7778 34.4802 25.3245 33.4808 24.7878C32.4814 24.251 31.9307 23.8348 31.3939 24.8272Z" fill="#001833"/>
<path d="M26.8978 24.0414L28.9847 16.2029L29.4798 14.3479C29.945 14.8465 30.4895 15.2645 31.0914 15.585C33.2757 16.7606 39.8611 16.2922 40.7736 11.6744C41.5179 7.90884 37.5191 10.0734 35.4716 9.83801C32.2543 9.46702 30.0224 7.57378 25.6167 9.95395C20.3472 12.8048 22.8434 19.7934 22.8434 19.7934C22.8434 19.7934 25.1622 18.8857 26.8978 24.0414Z" fill="#001833"/>
<path opacity="0.4" d="M31.8194 31.7529L29.0287 31.499L31.5771 33.9859L31.8194 31.7529Z" fill="#24272D"/>
<path d="M33.0205 21.4194C33.4437 21.4194 33.7869 21.0763 33.7869 20.6531C33.7869 20.2298 33.4437 19.8867 33.0205 19.8867C32.5972 19.8867 32.2542 20.2298 32.2542 20.6531C32.2542 21.0763 32.5972 21.4194 33.0205 21.4194Z" fill="#001833"/>
<path d="M37.5923 21.4194C38.0156 21.4194 38.3587 21.0763 38.3587 20.6531C38.3587 20.2298 38.0156 19.8867 37.5923 19.8867C37.169 19.8867 36.8259 20.2298 36.8259 20.6531C36.8259 21.0763 37.169 21.4194 37.5923 21.4194Z" fill="#001833"/>
</svg>
