<svg width="169" height="170" viewBox="0 0 169 170" fill="none" xmlns="http://www.w3.org/2000/svg">
<path d="M157.333 0.0886841C156.533 1.28868 152.933 2.35535 148.133 2.75534C143.733 3.15535 139.6 3.95535 138.933 4.35535C138.133 4.88869 135.067 5.28868 132.133 5.55534C129.067 5.68867 125.733 6.08868 124.667 6.48868C119.333 8.35535 113.467 8.62201 111.6 7.15535C109.867 5.82201 109.733 5.82201 110.533 7.02202C111.6 8.88869 110.933 9.02202 102.267 9.42201C99.4667 9.55534 96.5333 10.0887 95.7333 10.4887C94.8 11.022 90.6667 11.6887 86.4 11.9554C82.1333 12.222 75.8667 13.1553 72.4 14.0887C68.9333 15.022 65.2 15.422 64.1333 15.022C62.9333 14.4887 61.7333 14.622 61.4667 15.2887C61.0667 15.822 58.5333 16.3553 55.7333 16.4887C51.3333 16.622 46.2667 17.2887 38 18.7553C36.9333 18.8887 32.6667 19.5553 28.6667 19.9554C24.6667 20.4887 19.7333 21.1553 17.7333 21.5553C14.5333 22.222 14 21.822 13.8667 19.1553C13.8667 17.422 13.2 14.8887 12.5333 13.422C11.7333 11.5553 11.6 12.3553 12.1333 16.222C12.5333 19.2887 12.2667 22.222 11.6 22.622C10.9333 23.022 6.93333 23.5553 2.8 23.6887C-1.33333 23.822 -4.66667 24.4887 -4.66667 25.022C-4.66667 25.5553 -6 26.0887 -7.6 26.222C-9.33333 26.222 -11.8667 26.8887 -13.3333 27.5553C-15.3333 28.4887 -14.2667 28.622 -9.73333 28.0887C-2.8 27.422 -2.66667 27.5553 -1.46667 33.5553L-0.533333 37.822L-9.2 39.422C-14.1333 40.3553 -18 41.5553 -18 42.0887C-18 43.2887 -9.73333 42.7553 -3.2 41.422C0.533335 40.622 2 42.8887 2 49.6887C2 52.4887 1.33333 52.7553 -5.33333 52.7553C-9.33333 52.7553 -12.6667 53.2887 -12.6667 54.0887C-12.6667 55.2887 -6.66667 56.0887 0.266668 55.822C3.2 55.5553 4.66667 58.4887 4.66667 64.4887C4.66667 66.7553 3.73333 67.6887 0.666668 68.222C-4.8 69.422 -4.4 71.422 1.2 71.422C5.2 71.422 5.73334 71.822 6.26667 75.5553C6.93333 79.822 4.66667 82.0887 -0.533333 82.0887C-2.13333 82.0887 -3.33333 82.7553 -3.33333 83.5553C-3.33333 84.622 -1.73333 84.8887 1.33333 84.3553C5.6 83.6887 6.26667 83.9553 7.33333 86.8887C9.73334 92.8887 9.06667 94.7553 4.26667 95.022C-4 95.5553 -8.8 96.8887 -8.26667 98.4887C-7.73333 100.222 -6.13333 100.222 3.73333 98.7553C10 97.6887 10 97.6887 10 101.555C10 105.289 9.6 105.555 -0.666666 107.822C-6.53333 109.155 -11.3333 110.889 -11.3333 111.689C-11.3333 112.489 -9.46667 112.755 -6.26667 112.222C-3.6 111.822 1.2 111.022 4.13334 110.622L9.73334 109.822L10.2667 114.889C11.0667 121.289 10.6667 121.689 4 122.622C-2.53333 123.422 -11.2 125.555 -12.2667 126.622C-14.2667 128.622 -10.8 128.889 -2.26667 127.555C2.93333 126.755 8.13334 125.689 9.33333 125.289C11.2 124.489 11.4667 125.289 11.0667 130.222L10.6667 136.089L-0.933332 138.622C-12.5333 141.155 -16.2667 143.422 -8.93333 143.422C-6.93333 143.422 -1.73333 142.489 2.4 141.422C6.66667 140.355 10.5333 139.422 10.9333 139.422C11.3333 139.422 11.3333 143.955 10.9333 149.422C10.5333 155.422 10.8 159.689 11.4667 160.222C13.8667 161.689 14.4 159.689 14.4 149.289C14.4 140.222 14.6667 139.022 17.2 138.089C24.9333 135.289 29.2 134.222 30.1333 134.889C30.8 135.289 31.3333 138.489 31.3333 142.222C31.3333 145.822 32 148.755 32.6667 148.755C33.4667 148.755 34 145.289 34 140.889V132.889L39.7333 131.822C46.9333 130.355 47.2 130.755 47.2 150.089C47.2 164.089 47.0667 165.155 45.3333 162.089C43.0667 158.089 42.8 160.089 44.8 165.955C48.2667 175.955 50.5333 165.955 49.7333 144.222L49.0667 130.089L53.8667 128.755C62 126.489 64 127.022 64.4 131.022C64.5333 134.622 64.5333 134.622 62.6667 132.222C60.2667 129.022 60 131.289 62.2667 136.089C64.8 141.689 67.6 140.355 67.2 133.422C66.9333 130.222 67.2 127.155 67.7333 126.622C68.2667 126.089 71.3333 125.289 74.8 124.755C80.4 123.955 81.0667 124.089 82.2667 126.889C84.2667 131.155 86 130.889 86 126.355C86 122.622 86.4 122.489 94.8 121.155L103.467 119.955L106.267 125.289C107.867 128.489 109.333 129.955 109.733 129.022C110 127.955 109.6 126.489 108.8 125.689C104.533 121.422 109.067 118.089 119.467 118.089C123.467 118.089 123.867 119.289 123.733 131.689C123.733 133.022 124.267 134.089 124.933 134.089C125.6 134.089 126 130.355 125.867 125.689L125.467 117.422L130.133 116.622L134.667 115.822L129.733 115.555C125.467 115.422 124.667 114.889 123.867 111.689C123.467 109.689 122.933 107.289 122.667 106.489C122 104.489 126.8 103.022 132.133 103.689C135.2 103.955 136.133 104.889 136.8 108.755C137.333 111.422 137.333 113.555 136.533 113.822C135.867 114.089 136.267 115.155 137.333 116.355C138.4 117.422 139.333 119.422 139.333 120.889C139.333 123.822 143.2 134.222 145.067 136.089C146.533 137.555 146.267 136.622 142.267 123.689L139.6 115.422H145.467C150.933 115.422 151.333 115.689 151.333 119.022C151.333 121.155 151.867 125.155 152.4 128.089C153.333 133.155 153.333 132.889 154 124.089L154.667 114.755L159.733 114.355C162.4 114.089 164.667 114.089 164.667 114.355C164.8 114.622 165.067 118.889 165.467 124.089C166.533 136.889 167.6 137.155 167.067 124.355L166.667 114.089H170.4C173.867 114.089 174 114.222 173.2 119.689C172.8 122.889 171.867 128.355 171.2 131.955C169.867 138.889 170.667 142.355 172 135.955C172.533 133.822 173.2 130.889 173.733 129.422C174.133 127.955 174.8 120.755 175.2 113.422L176 100.089L182 99.2887L188 98.622L182 97.9553L176 97.422L175.067 88.0887C174.533 82.8887 173.867 74.8887 173.333 70.0887C172.933 65.2887 171.6 57.5553 170.533 52.8887C169.467 48.222 168.933 44.0887 169.333 43.6887C169.733 43.2887 169.467 42.3553 168.8 41.5553C168.133 40.7553 167.2 37.822 166.667 35.1553L165.733 30.3553L171.6 29.5553C184.267 27.822 184.933 27.5553 175.2 28.0887L164.933 28.7553L164.133 24.622C162.8 18.0887 163.2 17.022 166.4 16.3553C169.067 15.822 168.933 15.822 165.867 15.5553C162 15.422 160.667 13.2887 160.667 7.42201C160.667 3.15535 162.8 2.48868 176.4 2.62201C180.8 2.75534 184.133 2.35535 183.733 1.68867C183.467 1.15535 177.867 0.755341 171.333 0.755341C164.667 0.755341 159.333 0.222015 159.067 -0.577988C158.8 -1.37799 158 -0.977982 157.333 0.0886841ZM159.733 11.022C160.4 14.622 160.133 15.422 158.267 15.422C157.067 15.422 154.667 15.822 153.067 16.222C150.667 16.8887 149.733 16.3553 148.8 13.9554C147.6 10.8887 147.467 10.8887 147.467 13.5553C147.333 15.6887 146.267 16.622 143.2 17.2887C134.667 18.8887 131.333 18.3553 130 14.7553C128.267 10.3553 127.6 10.4887 128.4 15.2887C128.933 18.8887 128.533 19.022 123.067 19.822C118.533 20.4887 116.933 20.0887 115.467 18.3553C113.733 16.222 113.733 16.222 114.4 18.3553C115.067 20.222 114 20.7553 109.067 21.5553C104 22.3553 102.533 22.0887 101.067 19.9554C99.4667 17.6887 99.3333 17.6887 99.3333 20.3553C99.3333 22.622 98.2667 23.1553 93.0667 23.9554C86.2667 24.8887 85.4667 24.4887 84.1333 19.2887C83.6 16.7553 84 15.422 85.4667 14.8887C89.2 13.422 97.7333 14.0887 98.4 15.6887C98.8 16.7553 99.2 16.4887 99.2 15.022C99.3333 13.822 100.4 12.622 101.733 12.4887C102.933 12.4887 105.467 12.222 107.333 12.0887C109.2 11.822 119.733 10.222 130.667 8.35535C160.8 3.15535 158.267 2.88867 159.733 11.022ZM83.3333 22.3553C83.3333 25.2887 82.6667 26.0887 80.4 26.222C75.7333 26.3553 69.3333 27.2887 63.0667 28.7553C54.4 30.7553 50.2667 30.4887 49.6 27.6887C49.0667 25.9554 48.9333 25.9554 48.8 28.222C48.6667 30.3553 47.4667 31.2887 44.5333 31.9554C37.8667 33.2887 32.6667 32.8887 32.6667 31.022C32.6667 29.9554 32.2667 29.822 31.6 30.8887C30.8 32.222 19.2 35.6887 18.4 35.022C17.3333 33.9553 16.4 23.1553 17.4667 23.6887C18.1333 24.222 23.7333 23.6887 30 22.622C45.0667 20.222 47.3333 20.222 47.4667 23.022C47.4667 24.8887 47.7333 24.7553 48.6667 22.3553C49.6 20.0887 51.0667 19.422 54.9333 19.2887C57.7333 19.1553 61.2 18.8887 62.6667 18.622C83.3333 15.5553 83.3333 15.5553 83.3333 22.3553ZM161.2 17.9554C161.6 18.622 162.267 21.422 162.533 24.222C162.8 27.1553 163.467 30.4887 164 31.822C164.533 33.2887 165.067 36.4887 165.2 39.1553C165.333 41.9553 165.733 44.3553 166.133 44.7553C166.667 45.1553 167.467 47.422 168 49.6887C168.667 52.8887 168.4 54.0887 167.2 54.0887C166 54.0887 166.133 54.622 167.6 55.6887C168.8 56.622 170 59.9553 170.4 62.8887C171.067 68.3553 170.933 68.4887 166.267 69.2887C163.6 69.6887 161.333 69.822 161.2 69.6887C161.2 69.5553 160.667 66.622 160.267 63.022C159.6 58.0887 159.733 56.7553 161.333 56.7553C162.267 56.7553 163.467 56.222 163.867 55.6887C164.267 55.022 163.333 54.622 161.733 54.622C159.733 54.7553 158.667 53.6887 157.867 50.7553C157.067 48.0887 157.2 46.622 158.133 46.222C161.6 45.022 156 43.822 152.133 44.8887C149.867 45.5553 146.133 46.0887 143.867 46.0887C140 46.0887 139.467 45.5553 138.267 40.4887C137.467 37.422 137.067 34.4887 137.467 33.822C137.867 33.2887 141.333 32.7553 145.333 32.7553C152.4 32.7553 152.4 32.7553 153.867 37.6887L155.2 42.7553L154.533 37.1553C153.867 31.9553 154 31.5553 157.6 31.022L161.333 30.4887L157.2 30.222C153.733 30.0887 152.8 29.2887 151.6 25.6887L150 21.422L150.667 25.6887C151.333 30.4887 149.867 31.422 141.333 31.422C135.867 31.422 135.467 31.1553 133.467 25.9554C132.267 22.8887 131.333 20.222 131.6 20.0887C131.867 19.9554 135.733 19.422 140.4 19.022C146.533 18.3553 148.667 18.622 148.667 19.822C148.667 21.022 148.933 21.022 149.733 19.9554C150.533 18.4887 153.733 17.5553 158.933 16.8887C159.733 16.8887 160.8 17.2887 161.2 17.9554ZM132.133 26.4887C134.133 32.0887 134.267 31.9553 125.6 33.422C121.333 34.0887 120.4 33.822 119.333 31.1553C118 28.222 118 28.222 118.533 31.022C119.067 34.0887 116.533 35.422 109.2 35.422C105.467 35.422 104.8 34.8887 103.6 30.0887C102.133 24.222 101.6 24.7553 111.733 22.7553C112.933 22.4887 114.933 23.6887 116.133 25.1553L118.267 28.0887L117.333 25.1553C116.533 21.9554 119.067 20.8887 126.533 21.2887C129.733 21.422 130.667 22.222 132.133 26.4887ZM15.6 29.9554C16.2667 32.3553 16.6667 34.622 16.4 34.8887C16.1333 35.1553 12.5333 35.6887 8.4 36.222L0.933334 37.1553L0 32.8887C-0.4 30.622 -0.933332 28.3553 -1.06667 27.822C-1.33333 26.7553 8.66667 25.022 12.5333 25.2887C13.6 25.422 15.0667 27.422 15.6 29.9554ZM102.4 30.4887C103.067 33.2887 103.467 35.822 103.067 36.0887C102.8 36.3553 99.6 37.022 95.8667 37.422L89.0667 38.3553L87.7333 33.022L86.4 27.6887L91.8667 26.3553C99.8667 24.4887 101.067 24.8887 102.4 30.4887ZM85.2 28.4887C85.4667 29.022 86.1333 31.6887 86.6667 34.3553L87.6 39.1553L79.3333 39.6887C72 40.0887 70.8 39.822 69.8667 37.422C68.9333 34.8887 68.8 34.8887 68.8 37.6887C68.6667 40.7553 68 41.022 57.8667 42.7553C53.3333 43.422 52.9333 43.2887 52.1333 39.2887C51.7333 37.022 51.6 34.7553 52 34.0887C52.2667 33.5553 55.7333 32.7553 59.4667 32.222C64.5333 31.5553 66.6667 31.6887 67.4667 33.022C68.4 34.3553 68.6667 34.222 68.6667 32.622C68.6667 30.622 69.8667 30.222 83.6 27.5553C84.1333 27.5553 84.8 27.822 85.2 28.4887ZM50.5333 37.022C51.7333 41.822 51.4667 44.3553 49.7333 44.3553C48.8 44.3553 45.4667 44.7553 42.4 45.2887C36.9333 46.222 36.8 46.222 35.4667 41.822L34 37.422L34.6667 42.222C35.3333 46.8887 35.3333 47.022 29.3333 48.3553C22.5333 49.9553 21.8667 49.2887 20 41.022C19.0667 36.7553 19.2 36.7553 24.2667 36.622C30.4 36.622 41.0667 35.2887 41.8667 34.622C42.1333 34.3553 44.1333 34.0887 46.1333 34.0887C48.6667 34.0887 49.8667 34.8887 50.5333 37.022ZM136.667 40.0887C137.6 43.422 138.133 46.3553 137.867 46.622C137.6 46.8887 134.4 47.422 130.933 47.822C124 48.7553 123.733 48.4887 121.467 39.1553C120.8 35.9553 121.067 35.5553 124.933 35.022C135.067 33.822 134.933 33.6887 136.667 40.0887ZM121.333 43.5553C122.133 48.222 122 48.3553 118 49.2887C110 50.8887 109.067 50.4887 107.6 44.4887C106.8 41.422 106.267 38.622 106.533 38.4887C106.8 38.222 109.6 37.5553 112.8 37.022C119.333 35.822 120 36.222 121.333 43.5553ZM18.5333 41.022C20.4 47.9553 19.6 49.9553 14.4 51.2887C6.53333 53.5553 4.8 53.1553 3.86667 49.022C3.46667 47.022 2.8 44.3553 2.4 43.022C2.13334 41.822 2 40.7553 2.26667 40.7553C7.73334 40.0887 13.4667 39.022 13.8667 38.622C15.4667 37.1553 17.7333 38.4887 18.5333 41.022ZM106 44.0887C106.933 47.422 107.467 50.3553 107.2 50.622C106.933 50.8887 103.467 51.6887 99.6 52.3553C91.6 53.9553 91.0667 53.5553 90.8 45.022C90.6667 39.822 90.6667 39.822 102.8 38.222C103.6 38.222 105.067 40.7553 106 44.0887ZM88.5333 45.6887C89.3333 48.4887 90 51.422 90 52.3553C90 53.822 76.9333 57.422 75.7333 56.222C75.4667 55.9553 74.2667 52.8887 73.3333 49.5553C71.3333 42.8887 71.3333 42.7553 78 41.6887C86.4 40.222 87.2 40.4887 88.5333 45.6887ZM70.5333 44.4887C70.9333 45.1553 71.6 48.0887 72.1333 51.022L72.9333 56.4887L66.1333 57.9553C55.7333 60.222 55.6 60.0887 54.5333 53.422C54.1333 50.0887 54 47.022 54.2667 46.622C54.9333 46.0887 64.6667 43.9553 68.2667 43.5553C69.0667 43.422 70.1333 43.9553 70.5333 44.4887ZM155.867 48.222C157.333 52.0887 156.667 55.2887 154.4 55.9553C143.467 59.022 142.4 58.622 141.733 51.422C141.333 48.3553 141.867 47.9553 147.333 47.2887C150.667 46.8887 153.733 46.3553 154.133 46.3553C154.667 46.222 155.467 47.022 155.867 48.222ZM52.6667 49.2887C52.6667 50.222 53.0667 52.8887 53.4667 55.1553C54.2667 59.1553 54.1333 59.2887 48 60.0887C41.0667 61.1553 40 60.622 38.8 54.3553C38.1333 50.622 38.5333 49.822 41.0667 48.7553C45.7333 46.8887 52.6667 47.1553 52.6667 49.2887ZM140 52.7553C141.2 58.222 140 59.422 133.467 59.422C128.533 59.422 127.467 58.8887 126.8 56.3553C125.2 50.0887 126 49.2887 134.933 48.8887C138.533 48.7553 139.2 49.2887 140 52.7553ZM37.7333 55.5553C39.2 61.422 39.3333 61.2887 31.2 62.622C25.4667 63.6887 22.9333 61.422 23.6 55.822C23.8667 52.8887 24.8 51.9553 28 51.2887C35.7333 49.5553 36.2667 49.822 37.7333 55.5553ZM125.333 57.022C126.133 60.3553 126 60.622 120 61.5553C113.2 62.4887 112 61.822 110.667 56.4887C109.733 52.7553 109.733 52.7553 118.667 51.022C122 50.3553 124.267 52.3553 125.333 57.022ZM21.4667 55.9553C23.0667 62.3553 21.7333 63.9553 14.2667 65.2887C10.4 65.9553 7.06667 66.222 6.8 65.9553C6.53333 65.6887 6 63.2887 5.6 60.622L4.93333 55.822L11.7333 54.4887C15.6 53.6887 19.0667 53.022 19.6 52.8887C20.1333 52.8887 20.9333 54.222 21.4667 55.9553ZM109.2 55.6887C110.933 62.3553 110.4 63.022 102.533 64.0887C94.4 65.022 92.6667 64.0887 92.6667 58.4887C92.6667 56.0887 93.7333 55.2887 98.4 54.3553C107.067 52.3553 108.267 52.4887 109.2 55.6887ZM91.4667 61.022C92.6667 65.422 92.4 65.5553 84.5333 66.7553C78 67.6887 77.4667 67.422 76.1333 61.822C75.2 57.9553 76.6667 57.2887 85.8667 57.422C89.7333 57.422 90.6667 57.9553 91.4667 61.022ZM158.667 62.8887C159.067 66.3553 159.067 69.5553 158.4 70.0887C157.867 70.7553 154.933 71.422 152.133 71.6887C146.933 72.0887 146.8 72.0887 145.2 65.822L143.6 59.5553L149.2 58.222C152.133 57.5553 155.333 57.022 156.133 56.8887C157.067 56.7553 158.133 59.5553 158.667 62.8887ZM75.0667 64.222C75.4667 68.0887 75.2 68.4887 70.4 69.1553C67.6 69.6887 63.4667 70.3553 61.2 70.8887C57.2 71.6887 56.9333 71.422 56.4 67.022C55.8667 62.4887 56.1333 62.0887 60.6667 60.8887C63.2 60.222 67.4667 59.6887 70 59.822C74.1333 60.0887 74.6667 60.4887 75.0667 64.222ZM143.867 67.5553C144.667 71.822 144.4 72.4887 141.733 73.2887C140 73.6887 137.067 74.0887 135.2 74.0887C132.133 74.0887 131.467 73.2887 130.267 68.4887C129.467 65.422 129.067 62.622 129.333 62.222C129.733 61.9553 132.267 61.2887 134.933 60.7553C140.933 59.6887 142.667 61.022 143.867 67.5553ZM54.5333 64.222C56.9333 70.4887 54.8 72.7553 46.5333 72.7553C42.9333 72.7553 42 72.222 41.8667 70.0887C41.7333 68.622 41.6 66.622 41.4667 65.6887C41.3333 64.3553 45.3333 63.022 52.1333 62.222C53.0667 62.222 54.1333 63.022 54.5333 64.222ZM128.667 68.0887C129.6 71.422 130.133 74.3553 129.867 74.622C129.6 74.8887 126.133 75.5553 122.4 76.0887L115.467 77.022L114.533 71.822C113.333 64.3553 113.467 64.222 118.267 63.2887C126.667 61.6887 126.933 61.822 128.667 68.0887ZM39.8667 66.8887C41.7333 71.9553 40.6667 73.6887 34.6667 75.022C27.8667 76.622 26 75.422 26 69.9553C26 66.0887 27.4667 65.1553 34.8 64.8887C37.6 64.7553 39.3333 65.5553 39.8667 66.8887ZM112.267 70.622L113.6 76.4887L105.467 77.9553C101.067 78.7553 97.0667 78.8887 96.5333 78.3553C96.1333 77.822 95.3333 75.1553 94.9333 72.4887C94.2667 67.822 94.4 67.422 97.7333 66.622C99.7333 66.222 102 65.6887 102.667 65.422C103.467 65.1553 105.6 64.8887 107.467 64.8887C110.4 64.7553 111.067 65.5553 112.267 70.622ZM24 71.5553C24.5333 73.9553 24.4 76.222 23.4667 77.1553C22.6667 77.9553 22 78.222 22 77.822C22 77.422 19.2 77.822 15.7333 78.8887C12.4 79.9553 9.46667 80.622 9.2 80.4887C9.06667 80.222 8.53333 77.822 8 75.1553C7.06667 70.4887 7.33333 70.222 10.8 69.422C12.9333 68.8887 15.2 68.3553 15.8667 68.222C21.4667 66.8887 23.2 67.5553 24 71.5553ZM93.2 72.8887C93.7333 75.9553 93.7333 78.7553 93.4667 79.1553C93.0667 79.5553 89.7333 80.0887 86.2667 80.4887L79.7333 81.022L78.8 76.0887C78.2667 73.422 78.1333 70.7553 78.6667 70.3553C79.0667 69.9553 81.8667 69.1553 85.0667 68.622C88.1333 68.222 91.0667 67.6887 91.4667 67.5553C92 67.5553 92.6667 69.9553 93.2 72.8887ZM76.6667 71.9553C76.6667 72.8887 77.0667 75.5553 77.4667 77.6887C78.2667 81.5553 78.1333 81.5553 69.3333 83.2887C59.2 85.2887 57.7333 84.4887 58.2667 77.422C58.6667 73.6887 59.2 73.2887 66 71.822C75.8667 69.822 76.6667 69.822 76.6667 71.9553ZM171.733 73.022C172.133 74.7553 172.667 80.8887 172.8 86.7553C173.067 97.422 173.067 97.422 169.6 97.822C166.8 98.222 165.867 97.5553 165.2 94.7553C164.8 92.8887 164.667 89.822 165.067 88.0887C165.333 86.222 165.2 84.3553 164.667 84.0887C164 83.6887 163.2 80.8887 162.667 77.9553C161.6 71.9553 162.933 70.0887 168.133 70.0887C170 70.0887 171.333 71.1553 171.733 73.022ZM161.067 77.022C162 83.9553 161.067 85.022 154.533 84.4887C150 84.0887 149.333 83.5553 148.4 79.5553C147.733 77.1553 147.467 74.7553 147.867 74.3553C148.533 73.822 151.733 73.022 159.467 71.5553C160 71.5553 160.667 73.9553 161.067 77.022ZM56 77.022C57.7333 85.1553 57.6 85.2887 51.3333 86.222C48 86.7553 45.0667 86.8887 44.8 86.622C44.5333 86.3553 44.2667 83.9553 44.1333 81.1553C44 77.022 44.5333 76.0887 47.3333 75.2887C53.3333 73.5553 55.2 73.9553 56 77.022ZM146.667 78.8887C147.067 81.5553 147.333 83.822 147.067 84.0887C146.8 84.222 143.867 84.7553 140.4 85.1553C134.667 85.9553 134 85.822 133.733 83.422C133.2 76.4887 133.333 76.0887 137.333 75.2887C145.067 73.5553 145.6 73.822 146.667 78.8887ZM42.2667 82.222C42.8 88.222 42.8 88.222 34.4 89.2887C29.0667 89.9553 28.6667 89.822 28.6667 86.8887C28.6667 85.022 28.4 82.7553 28 81.6887C27.4667 80.4887 28.6667 79.422 31.6 78.622C40.6667 75.9553 41.7333 76.3553 42.2667 82.222ZM131.733 81.022C132 83.422 132.133 85.6887 131.867 85.9553C131.6 86.222 128.533 86.7553 125.2 87.1553C118.533 87.822 116.667 86.4887 116.667 81.1553C116.667 78.222 118.667 77.422 127.467 76.8887C130.533 76.7553 131.067 77.422 131.733 81.022ZM26.4 84.3553C27.4667 90.4887 26.8 91.422 21.8667 91.422C19.6 91.422 16.5333 92.0887 15.0667 92.8887C11.7333 94.622 10 92.7553 10 87.1553C10 83.9553 10.8 83.2887 15.7333 82.0887C18.8 81.2887 22 80.3553 22.6667 80.0887C25.3333 79.1553 25.6 79.5553 26.4 84.3553ZM114.533 81.5553C116.533 86.622 115.333 88.4887 109.467 89.9553C102.267 91.6887 98 91.822 98 90.222C98 89.5553 97.6 87.2887 97.2 85.022C96.4 81.022 96.5333 80.8887 101.467 80.3553C112.267 79.2887 113.733 79.422 114.533 81.5553ZM96 86.8887C96.4 89.5553 96.6667 91.9553 96.2667 92.222C96 92.4887 92.9333 93.2887 89.4667 93.9553C83.4667 95.022 83.0667 94.8887 81.8667 91.822C79.6 85.6887 80.2667 83.6887 85.0667 83.022C95.0667 81.822 94.9333 81.822 96 86.8887ZM79.0667 89.9553C79.3333 92.3553 79.0667 94.8887 78.4 95.422C77.8667 96.0887 73.6 96.8887 69.2 97.422L60.9333 98.3553L60.4 93.1553C60 90.3553 59.8667 87.9553 60 87.6887C60.6667 86.8887 73.2 85.022 76 85.2887C78 85.422 78.8 86.4887 79.0667 89.9553ZM147.733 87.022C148.133 87.6887 148.667 90.4887 148.8 93.422L149.333 98.622L143.467 99.6887C140.133 100.222 137.333 100.622 137.2 100.355C137.067 100.222 136.533 97.2887 136 93.822C135.067 88.0887 135.333 87.5553 138.133 87.022C143.6 86.0887 147.2 86.0887 147.733 87.022ZM162.533 88.222C163.867 91.822 163.467 98.0887 161.733 98.222C159.6 98.3553 152.133 97.9553 151.733 97.5553C151.6 97.422 151.067 94.7553 150.533 91.6887L149.6 86.0887H155.733C160 86.0887 162 86.7553 162.533 88.222ZM58.4 93.6887C59.3333 98.622 58.9333 99.022 51.6 100.222L46 101.155V95.6887C46 90.622 46.2667 90.3553 51.0667 89.1553C56.8 87.6887 57.3333 87.9553 58.4 93.6887ZM134.4 95.6887L135.2 100.755H129.2C126 100.755 122.933 100.889 122.4 101.022C121.2 101.555 118.8 91.5553 119.867 90.4887C121.6 88.7553 130.667 87.9553 132.133 89.2887C132.933 90.0887 134 93.022 134.4 95.6887ZM43.3333 92.622C43.3333 93.2887 43.7333 95.6887 44.1333 97.9553L45.0667 102.222L37.8667 101.822C31.3333 101.422 30.6667 101.155 30.2667 98.222C29.8667 96.222 30.6667 94.222 32.1333 93.1553C34.8 91.1553 43.3333 90.7553 43.3333 92.622ZM118.267 96.0887C119.6 101.022 118.267 102.222 110.667 103.422C103.733 104.489 101.2 103.155 100 97.9553C99.2 94.7553 99.6 94.222 104.267 93.022C113.067 90.622 117.067 91.5553 118.267 96.0887ZM27.7333 97.6887C28.6667 102.355 27.8667 103.155 21.7333 103.955C18.9333 104.222 15.4667 104.889 14 105.422C11.4667 106.222 11.2 105.822 11.6 101.822C12 97.822 12.5333 97.2887 18 95.822C26.5333 93.6887 26.9333 93.6887 27.7333 97.6887ZM98.5333 99.6887C98.9333 101.955 99.0667 104.089 98.6667 104.489C98.2667 104.889 94.6667 105.422 90.6667 105.822L83.3333 106.355V102.222C83.3333 97.5553 86.1333 95.6887 93.4667 95.5553C97.2 95.422 97.7333 95.9553 98.5333 99.6887ZM80.6667 101.422C80.6667 103.289 80.6667 105.155 80.6667 105.689C80.5333 106.622 64.5333 110.222 63.7333 109.555C63.4667 109.289 62.9333 107.422 62.5333 105.155C61.7333 101.022 61.7333 101.022 68.8 99.6887C80.2667 97.6887 80.6667 97.6887 80.6667 101.422ZM173.733 106.355C174.133 112.622 174.133 112.755 170.133 112.755C166.133 112.755 166 112.622 166 105.955C166 99.422 166.133 99.2887 169.733 99.6887C173.067 100.089 173.333 100.622 173.733 106.355ZM150.4 106.355C150.8 109.422 150.8 112.489 150.533 113.022C150.133 113.555 147.6 114.089 144.8 114.089C140.133 114.089 139.6 113.689 138.8 109.955C137.467 103.155 137.867 102.355 141.733 101.689C149.6 100.489 149.6 100.489 150.4 106.355ZM164.667 106.755V112.755H158.667C152.933 112.755 152.667 112.622 152.667 108.889C152.667 106.755 152.267 104.089 151.867 102.889C151.2 101.155 152.133 100.755 157.867 100.755H164.667V106.755ZM60.6667 106.755C60.6667 110.489 60.1333 111.422 58.1333 111.422C56.8 111.422 53.7333 111.822 51.4667 112.222C47.4667 113.022 47.3333 112.889 47.3333 108.355C47.3333 103.289 48.4 102.489 56.4 102.222C60.4 102.089 60.6667 102.355 60.6667 106.755ZM44.8 105.689C46 112.355 45.6 112.755 39.4667 114.622C32.6667 116.622 31.3333 115.822 31.3333 109.822C31.3333 107.155 32.1333 106.089 34.4 105.689C39.6 104.755 44.6667 104.755 44.8 105.689ZM121.067 109.955C121.6 112.355 121.733 114.889 121.067 115.422C120.533 115.955 116.8 116.755 112.933 117.289C106.4 118.089 105.867 117.955 104.8 115.022C102.133 108.222 102.533 106.889 106.667 105.955C108.933 105.422 112.667 105.155 115.2 105.155C119.333 105.422 120 105.955 121.067 109.955ZM28.4 111.822C28.9333 117.289 27.6 118.222 17.7333 119.822L12.6667 120.622V114.755C12.6667 109.022 12.6667 108.889 18.4 107.689C26.9333 105.689 28 106.089 28.4 111.822ZM101.2 110.622C101.6 112.355 102.267 114.755 102.667 115.822C103.333 117.289 101.467 118.089 95.2 119.289C90.6667 120.222 86.5333 120.489 86 119.822C85.4667 119.289 84.6667 116.889 84.2667 114.489C83.6 110.755 83.8667 110.089 87.0667 108.889C89.0667 108.222 92.8 107.555 95.4667 107.555C99.6 107.422 100.533 107.955 101.2 110.622ZM82 114.755C82 117.289 82.1333 119.822 82.4 120.355C82.5333 120.889 78.9333 121.955 74.4 122.755L66.1333 124.222L65.3333 119.155C64.8 116.222 64.6667 113.555 65.0667 113.155C66.1333 112.089 74 110.355 78.4 110.222C81.6 110.089 82 110.489 82 114.755ZM63.3333 120.222C63.3333 122.755 63.2 124.755 63.0667 124.755C62.8 124.755 59.4667 125.155 55.7333 125.555L48.6667 126.355V121.155C48.6667 115.955 48.8 115.822 54.4 114.489C61.3333 112.889 63.3333 114.222 63.3333 120.222ZM45.7333 122.355C45.3333 127.555 45.0667 128.089 40.6667 129.022C34.1333 130.355 32.6667 129.555 32.6667 124.222C32.6667 120.089 33.0667 119.555 37.7333 118.355C46 116.089 46.1333 116.222 45.7333 122.355ZM30 126.622C30 130.755 29.6 131.155 24.1333 132.622C14.5333 135.022 13.7333 134.755 14.2667 129.155C14.6667 124.355 14.9333 124.222 21.3333 122.755C25.0667 121.955 28.4 121.422 29.0667 121.689C29.6 121.955 30 124.222 30 126.622Z" fill="black" fill-opacity="0.15"/>
</svg>
