<svg width="30" height="30" viewBox="0 0 30 30" fill="none" xmlns="http://www.w3.org/2000/svg">
<rect x="0.5" y="0.5" width="29" height="29" rx="14.5" stroke="#3BA700"/>
<path d="M19 9C19 6.79086 17.2091 5 15 5C12.7909 5 11 6.79086 11 9V14C11 16.2091 12.7909 18 15 18C17.2091 18 19 16.2091 19 14V9Z" fill="#3BA700"/>
<path d="M8 14C8 14.9193 8.18106 15.8295 8.53284 16.6788C8.88463 17.5281 9.40024 18.2997 10.0503 18.9497C10.7003 19.5998 11.4719 20.1154 12.3212 20.4672C13.1705 20.8189 14.0807 21 15 21C15.9193 21 16.8295 20.8189 17.6788 20.4672C18.5281 20.1154 19.2997 19.5998 19.9497 18.9497C20.5998 18.2997 21.1154 17.5281 21.4672 16.6788C21.8189 15.8295 22 14.9193 22 14M15 24V22" stroke="#3BA700" stroke-width="2" stroke-linecap="round" stroke-linejoin="round"/>
</svg>
