<svg width="20" height="20" viewBox="0 0 20 20" fill="none" xmlns="http://www.w3.org/2000/svg">
<g clip-path="url(#clip0_594_681)">
<path d="M10 12.5C11.3807 12.5 12.5 11.3807 12.5 10C12.5 8.61929 11.3807 7.5 10 7.5C8.61929 7.5 7.5 8.61929 7.5 10C7.5 11.3807 8.61929 12.5 10 12.5Z" stroke="#3BA700" stroke-width="2" stroke-linecap="round" stroke-linejoin="round"/>
<path d="M10 17.5V17.5083" stroke="#3BA700" stroke-width="2" stroke-linecap="round" stroke-linejoin="round"/>
<path d="M2.5 7.5V7.50833" stroke="#3BA700" stroke-width="2" stroke-linecap="round" stroke-linejoin="round"/>
<path d="M17.5 7.5V7.50833" stroke="#3BA700" stroke-width="2" stroke-linecap="round" stroke-linejoin="round"/>
<path d="M6.66667 16.7497C5.52945 16.195 4.55105 15.3616 3.82253 14.3271C3.09401 13.2926 2.63905 12.0906 2.5 10.833" stroke="#3BA700" stroke-width="2" stroke-linecap="round" stroke-linejoin="round"/>
<path d="M13.3333 16.7497C14.4705 16.195 15.4489 15.3616 16.1774 14.3271C16.906 13.2926 17.3609 12.0906 17.5 10.833" stroke="#3BA700" stroke-width="2" stroke-linecap="round" stroke-linejoin="round"/>
<path d="M5.16669 4.16661C6.50676 3.06991 8.18505 2.4707 9.91669 2.4707C11.6483 2.4707 13.3266 3.06991 14.6667 4.16661" stroke="#3BA700" stroke-width="2" stroke-linecap="round" stroke-linejoin="round"/>
</g>
<defs>
<clipPath id="clip0_594_681">
<rect width="20" height="20" fill="white"/>
</clipPath>
</defs>
</svg>
