<svg width="390" height="829" viewBox="0 0 390 829" fill="none" xmlns="http://www.w3.org/2000/svg">
<g opacity="0.1">
<g clip-path="url(#clip0_394_21229)">
<path d="M-23.5883 401.231C-14.4663 395.061 -4.59118 393.643 6.39009 394.806C29.0203 397.205 50.7055 426.112 37.8361 454.967C28.9552 474.876 5.55639 484.687 -15.9883 474.731C-39.7988 463.737 -48.4358 432.99 -33.7461 411.495C-30.9955 407.457 -27.6453 404.003 -23.5883 401.231ZM28.8322 412.206C24.43 405.453 15.7582 400.118 5.75031 398.142C-7.06525 395.62 -18.4979 399.664 -27.3503 409.48C-43.6599 427.52 -38.8877 456.841 -17.7616 469.4C-2.82238 478.28 16.0741 475.906 27.2394 463.745C39.8142 450.043 41.0896 429.641 28.8322 412.206Z" fill="#4CAF50"/>
<path d="M27.9848 428.169C31.0036 441.03 27.9672 451.893 17.2636 459.551C8.08403 466.108 -1.90935 466.279 -11.9991 460.623C-12.1769 460.921 -12.3795 461.293 -12.6052 461.605C-12.9243 462.058 -13.0982 462.334 -13.8304 462.112C-14.1745 462.006 -14.7488 461.79 -14.5158 460.992C-13.9572 459.003 -13.1956 457.085 -12.3939 455.197C-12.273 454.901 -11.7637 454.526 -11.1493 454.772C-10.4729 455.051 -10.4543 455.52 -10.4679 455.915C-10.4963 456.647 -10.7615 457.371 -10.9635 458.187C-0.726223 462.314 9.05079 462.275 17.8243 454.749C25.5648 448.117 27.4565 437.629 24.6536 428.778C24.5313 428.382 24.0058 428.402 23.3577 428.218C22.2956 427.938 21.8125 428.102 21.7051 426.539C21.7056 425.518 22.7243 425.405 23.3056 425.327C25.1633 425.09 27.0622 424.941 28.9232 425.068C29.6518 425.118 30.8956 425.079 31.0344 426.465C31.2211 427.838 30.0474 427.674 29.0334 428.015C28.7279 428.074 28.3952 428.094 27.9848 428.169Z" fill="#4CAF50"/>
<path d="M5.32073 411.886C5.89609 410.695 6.47384 409.618 7.48151 409.185C8.98006 408.544 10.1973 409.737 11.1454 410.848C14.1694 414.382 14.7652 418.744 15.1953 423.144C15.2907 424.137 15.1544 425.156 15.2938 426.157C15.6825 429.006 13.5584 429.91 11.2784 428.823C6.49217 426.518 2.36382 423.195 -0.347565 418.479C-1.38904 416.682 -1.88389 414.62 -0.312297 412.868C1.25417 411.082 3.73134 411.127 5.32073 411.886ZM11.6198 425.888C12.4559 426.672 12.1532 425.824 12.2081 425.516C12.1481 422.669 12.1011 419.812 11.3743 417.141C10.8045 415.054 9.41685 409.723 8.06946 411.298C7.68585 411.604 8.12983 413.125 8.2138 413.991C8.27218 414.682 8.24041 415.879 8.02132 416.09C7.09348 416.775 6.61358 415.839 6.08871 415.473C4.88381 414.657 3.70252 412.88 2.25332 414.199C0.817072 415.509 2.21864 417.132 3.22133 418.128C5.90763 420.819 8.80909 423.322 11.6198 425.888Z" fill="#4CAF50"/>
</g>
</g>
<g opacity="0.1">
<g clip-path="url(#clip1_394_21229)">
<path d="M173.412 497.231C182.534 491.061 192.409 489.643 203.39 490.806C226.02 493.205 247.705 522.112 234.836 550.967C225.955 570.876 202.556 580.687 181.012 570.731C157.201 559.737 148.564 528.99 163.254 507.495C166.004 503.457 169.355 500.003 173.412 497.231ZM225.832 508.206C221.43 501.453 212.758 496.118 202.75 494.142C189.935 491.62 178.502 495.664 169.65 505.48C153.34 523.52 158.112 552.841 179.238 565.4C194.178 574.28 213.074 571.906 224.239 559.745C236.814 546.043 238.09 525.641 225.832 508.206Z" fill="#4CAF50"/>
<path d="M224.985 524.169C228.004 537.03 224.967 547.893 214.264 555.551C205.084 562.108 195.091 562.279 185.001 556.623C184.823 556.921 184.621 557.293 184.395 557.605C184.076 558.058 183.902 558.334 183.17 558.112C182.825 558.006 182.251 557.79 182.484 556.992C183.043 555.003 183.804 553.085 184.606 551.197C184.727 550.901 185.236 550.526 185.851 550.772C186.527 551.051 186.546 551.52 186.532 551.915C186.504 552.647 186.238 553.371 186.036 554.187C196.274 558.314 206.051 558.275 214.824 550.749C222.565 544.117 224.456 533.629 221.654 524.778C221.531 524.382 221.006 524.402 220.358 524.218C219.296 523.938 218.813 524.102 218.705 522.539C218.706 521.518 219.724 521.405 220.306 521.327C222.163 521.09 224.062 520.941 225.923 521.068C226.652 521.118 227.896 521.079 228.034 522.465C228.221 523.838 227.047 523.674 226.033 524.015C225.728 524.074 225.395 524.094 224.985 524.169Z" fill="#4CAF50"/>
<path d="M173.475 529.604C173.382 527.897 173.526 526.39 175.198 525.667C176.796 524.976 178.216 525.796 179.015 526.915C180.609 529.116 182.17 531.437 183.187 533.944C184.236 536.526 184.681 539.374 185.235 542.128C185.626 544.07 184.81 545.082 182.937 544.771C176.902 543.741 171.792 541.026 168.428 535.706C167.471 534.196 167.421 532.44 168.542 530.926C169.752 529.292 171.476 529.168 173.475 529.604ZM176.524 527.844C176.524 527.844 175.949 527.628 175.569 528.105C175.188 528.332 175.862 530.154 176.198 531.133C176.511 532.051 176.939 532.581 176.458 533.052C175.644 533.735 175.194 532.951 174.578 532.841C174.283 532.778 171.858 531.04 170.99 532.282C170.428 533.078 171.157 534.206 171.657 534.84C174.179 538.07 177.715 539.88 181.68 541.698C180.564 536.563 179.315 529.499 176.524 527.844Z" fill="#4CAF50"/>
<path d="M202.321 507.886C202.896 506.695 203.474 505.618 204.481 505.185C205.98 504.544 207.197 505.737 208.145 506.848C211.169 510.382 211.765 514.744 212.195 519.144C212.291 520.137 212.154 521.156 212.294 522.157C212.683 525.006 210.558 525.91 208.278 524.823C203.492 522.518 199.364 519.195 196.652 514.479C195.611 512.682 195.116 510.62 196.688 508.868C198.254 507.082 200.731 507.127 202.321 507.886ZM208.62 521.888C209.456 522.672 209.153 521.824 209.208 521.516C209.148 518.669 209.101 515.812 208.374 513.141C207.804 511.054 206.417 505.723 205.069 507.298C204.686 507.604 205.13 509.125 205.214 509.991C205.272 510.682 205.24 511.879 205.021 512.09C204.093 512.775 203.614 511.839 203.089 511.473C201.884 510.657 200.702 508.88 199.253 510.199C197.817 511.509 199.219 513.132 200.221 514.128C202.908 516.819 205.809 519.322 208.62 521.888Z" fill="#4CAF50"/>
</g>
</g>
<g opacity="0.1">
<g clip-path="url(#clip2_394_21229)">
<path d="M342.117 722.856C348.856 718.297 356.152 717.25 364.265 718.109C380.985 719.882 397.007 741.24 387.499 762.559C380.938 777.268 363.651 784.515 347.734 777.16C330.142 769.036 323.76 746.319 334.613 730.438C336.645 727.455 339.12 724.903 342.117 722.856ZM380.846 730.965C377.593 725.976 371.187 722.034 363.793 720.574C354.324 718.71 345.878 721.698 339.338 728.95C327.289 742.278 330.815 763.941 346.424 773.221C357.461 779.782 371.422 778.028 379.671 769.044C388.961 758.921 389.902 743.847 380.846 730.965Z" fill="#4CAF50"/>
<path d="M380.22 742.76C382.451 752.262 380.208 760.287 372.3 765.945C365.518 770.79 358.135 770.916 350.681 766.737C350.549 766.956 350.4 767.232 350.233 767.462C349.997 767.797 349.869 768 349.328 767.837C349.074 767.758 348.649 767.599 348.821 767.009C349.234 765.54 349.797 764.123 350.389 762.728C350.478 762.509 350.854 762.232 351.308 762.414C351.808 762.62 351.822 762.966 351.812 763.258C351.791 763.799 351.595 764.334 351.446 764.936C359.009 767.986 366.233 767.958 372.714 762.398C378.433 757.498 379.83 749.749 377.759 743.21C377.669 742.917 377.281 742.931 376.802 742.796C376.017 742.589 375.66 742.71 375.581 741.555C375.581 740.801 376.334 740.717 376.763 740.659C378.136 740.485 379.539 740.374 380.914 740.469C381.452 740.506 382.371 740.477 382.473 741.501C382.611 742.515 381.744 742.394 380.995 742.646C380.769 742.69 380.524 742.705 380.22 742.76Z" fill="#4CAF50"/>
<path d="M342.165 746.774C342.096 745.512 342.202 744.4 343.438 743.865C344.618 743.355 345.667 743.961 346.258 744.787C347.435 746.414 348.588 748.128 349.34 749.981C350.115 751.888 350.444 753.992 350.853 756.027C351.142 757.462 350.54 758.209 349.156 757.98C344.697 757.218 340.921 755.212 338.436 751.282C337.729 750.167 337.692 748.869 338.52 747.751C339.414 746.543 340.688 746.452 342.165 746.774ZM344.417 745.473C344.417 745.473 343.993 745.314 343.712 745.666C343.43 745.834 343.928 747.18 344.177 747.904C344.408 748.582 344.724 748.974 344.369 749.321C343.767 749.826 343.434 749.247 342.979 749.166C342.761 749.119 340.97 747.835 340.328 748.752C339.913 749.34 340.452 750.174 340.822 750.642C342.685 753.029 345.297 754.366 348.227 755.71C347.402 751.916 346.479 746.696 344.417 745.473Z" fill="#4CAF50"/>
<path d="M363.476 730.728C363.901 729.848 364.327 729.053 365.072 728.732C366.179 728.259 367.078 729.14 367.779 729.961C370.013 732.573 370.453 735.795 370.771 739.046C370.842 739.779 370.741 740.533 370.844 741.272C371.131 743.377 369.562 744.045 367.878 743.242C364.341 741.538 361.291 739.083 359.288 735.599C358.518 734.271 358.153 732.747 359.314 731.454C360.471 730.134 362.301 730.167 363.476 730.728ZM368.13 741.073C368.747 741.653 368.524 741.026 368.564 740.799C368.52 738.695 368.485 736.584 367.948 734.611C367.527 733.068 366.502 729.13 365.506 730.294C365.223 730.52 365.551 731.643 365.613 732.283C365.656 732.794 365.633 733.678 365.471 733.834C364.785 734.34 364.431 733.648 364.043 733.378C363.153 732.775 362.28 731.463 361.209 732.437C360.148 733.405 361.184 734.604 361.925 735.34C363.909 737.328 366.053 739.177 368.13 741.073Z" fill="#4CAF50"/>
</g>
</g>
<g opacity="0.1">
<g clip-path="url(#clip3_394_21229)">
<path d="M364.412 84.2311C373.534 78.061 383.409 76.6435 394.39 77.806C417.02 80.2046 438.705 109.112 425.836 137.967C416.955 157.876 393.556 167.687 372.012 157.731C348.201 146.737 339.564 115.99 354.254 94.4945C357.004 90.4571 360.355 87.0031 364.412 84.2311ZM416.832 95.2062C412.43 88.4531 403.758 83.1178 393.75 81.1415C380.935 78.6196 369.502 82.6645 360.65 92.4797C344.34 110.52 349.112 139.841 370.238 152.4C385.178 161.28 404.074 158.906 415.239 146.745C427.814 133.043 429.09 112.641 416.832 95.2062Z" fill="#4CAF50"/>
<path d="M415.985 111.169C419.004 124.03 415.967 134.893 405.264 142.551C396.084 149.108 386.091 149.279 376.001 143.623C375.823 143.921 375.621 144.293 375.395 144.605C375.076 145.058 374.902 145.334 374.17 145.112C373.825 145.006 373.251 144.79 373.484 143.992C374.043 142.003 374.804 140.085 375.606 138.197C375.727 137.901 376.236 137.526 376.851 137.772C377.527 138.051 377.546 138.52 377.532 138.915C377.504 139.647 377.238 140.371 377.036 141.187C387.274 145.314 397.051 145.275 405.824 137.749C413.565 131.117 415.456 120.629 412.654 111.778C412.531 111.382 412.006 111.402 411.358 111.218C410.296 110.938 409.813 111.102 409.705 109.539C409.706 108.518 410.724 108.405 411.306 108.327C413.163 108.09 415.062 107.941 416.923 108.068C417.652 108.118 418.896 108.079 419.034 109.465C419.221 110.838 418.047 110.674 417.033 111.015C416.728 111.074 416.395 111.094 415.985 111.169Z" fill="#4CAF50"/>
<path d="M364.475 116.604C364.382 114.897 364.526 113.39 366.198 112.667C367.796 111.976 369.216 112.796 370.015 113.915C371.609 116.116 373.17 118.437 374.187 120.944C375.236 123.526 375.682 126.374 376.235 129.128C376.626 131.07 375.81 132.082 373.937 131.771C367.902 130.741 362.792 128.026 359.428 122.706C358.471 121.196 358.421 119.44 359.542 117.926C360.752 116.292 362.476 116.168 364.475 116.604ZM367.524 114.844C367.524 114.844 366.949 114.628 366.569 115.105C366.188 115.332 366.862 117.154 367.198 118.133C367.511 119.051 367.939 119.581 367.458 120.052C366.644 120.735 366.194 119.951 365.578 119.841C365.283 119.778 362.858 118.04 361.99 119.282C361.428 120.078 362.157 121.206 362.657 121.84C365.179 125.07 368.715 126.88 372.68 128.698C371.564 123.563 370.315 116.499 367.524 114.844Z" fill="#4CAF50"/>
<path d="M393.321 94.8864C393.896 93.6953 394.474 92.6182 395.481 92.185C396.98 91.5442 398.197 92.737 399.145 93.8478C402.169 97.3823 402.765 101.744 403.195 106.144C403.291 107.137 403.154 108.156 403.294 109.157C403.683 112.006 401.558 112.91 399.278 111.823C394.492 109.518 390.364 106.195 387.652 101.479C386.611 99.6821 386.116 97.6195 387.688 95.8684C389.254 94.0823 391.731 94.1266 393.321 94.8864ZM399.62 108.888C400.456 109.672 400.153 108.824 400.208 108.516C400.148 105.669 400.101 102.812 399.374 100.141C398.804 98.0536 397.417 92.7228 396.069 94.2982C395.686 94.6043 396.13 96.1245 396.214 96.9906C396.272 97.6818 396.24 98.8789 396.021 99.0895C395.093 99.7753 394.614 98.8387 394.089 98.4728C392.884 97.6567 391.703 95.8803 390.253 97.1993C388.817 98.5093 390.219 100.132 391.221 101.128C393.908 103.819 396.809 106.322 399.62 108.888Z" fill="#4CAF50"/>
</g>
</g>
<g opacity="0.1">
<path d="M394.791 543.356C395.84 543.179 396.755 543.027 397.67 542.9C404.236 541.937 408.38 546.094 407.008 552.304C405.689 558.387 401.734 562.823 396.648 566.422C384.404 575.066 370.195 577.372 355.368 577.322C351.278 577.296 349.583 575.319 350.524 571.593C354.292 556.74 359.997 542.647 370.707 530.936C373.425 527.945 377.461 525.487 381.417 524.143C390.297 521.102 397.993 527.464 396.675 536.285C396.352 538.617 395.464 540.872 394.791 543.356ZM356.471 571.847C360.508 571.441 363.791 571.162 367.074 570.757C377.488 569.464 387.148 566.22 395.033 559.579C397.832 557.196 399.904 553.774 401.438 550.479C402.648 547.894 400.953 546.601 398.074 547.589C395.571 548.426 393.338 549.921 390.835 550.758C389.49 551.214 387.391 551.493 386.503 550.834C385.668 550.2 385.668 548.147 385.964 546.854C386.287 545.308 387.391 543.939 388.037 542.444C389.059 540.112 390.351 537.831 390.862 535.397C391.912 530.353 387.848 527.109 382.951 529.263C379.856 530.632 376.815 532.761 374.635 535.22C365.379 545.79 361.234 558.666 356.471 571.847Z" fill="#4CAF50"/>
<path d="M342.182 492.965C344.039 491.647 346.488 489.695 349.179 488.073C354.964 484.575 360.938 486.654 362.849 492.813C364.544 498.339 363.791 503.763 361.396 509.035C356.579 519.706 349.556 529.085 342.236 538.286C340.056 540.998 336.155 541.15 334.002 538.337C330.826 534.18 327.839 529.845 325.391 525.308C320.439 516.107 316.295 506.551 316.591 495.981C316.672 493.092 317.694 489.974 319.228 487.465C322.296 482.471 329.131 481.026 333.948 484.575C337.446 487.135 340.083 490.76 342.182 492.965ZM337.285 534.382C339.464 531.493 341.617 529.085 343.286 526.398C347.591 519.58 352.139 512.837 355.664 505.639C357.279 502.318 358.355 498.567 356.956 494.182C356.229 491.9 354.884 491.115 352.489 492.154C349.017 493.649 347.349 496.539 345.842 499.606C344.9 501.507 345.035 504.523 341.94 504.498C338.792 504.473 338.765 501.456 337.688 499.454C336.155 496.59 334.809 493.548 332.683 491.115C331.472 489.721 328.431 488.352 326.978 488.859C325.095 489.518 323.399 491.9 322.673 493.878C321.946 495.855 322.215 498.288 322.565 500.442C324.53 512.812 330.584 523.534 337.285 534.382Z" fill="#4CAF50"/>
<path d="M404.747 481.762C407.169 481.483 409.08 481.103 410.964 481.077C417.18 480.976 420.705 484.499 420.409 490.355C420.086 496.337 416.964 500.899 411.852 504.194C403.806 509.39 394.845 512.609 385.265 514.282C382.924 514.688 381.551 514.333 380.609 511.367C377.057 500.392 377.73 489.493 380.367 478.644C381.228 475.146 383.354 471.775 385.588 468.784C388.144 465.362 392.046 463.841 396.621 465.083C401.491 466.427 404.048 469.747 404.694 474.284C405.043 476.667 404.747 479.1 404.747 481.762ZM384.78 508.605C394.387 506.45 403.429 503.535 410.91 497.553C412.605 496.184 413.87 494.055 414.623 492.027C416.372 487.313 414.327 485.057 409.053 485.589C407.788 485.716 406.523 486.02 405.313 486.35C400.307 487.718 399.016 486.831 398.827 481.863C398.72 479.151 398.854 476.363 398.181 473.777C396.997 469.215 392.261 468.1 389.355 471.826C387.283 474.487 385.749 477.782 384.915 481.027C382.628 490.076 384.108 499.201 384.78 508.605Z" fill="#4CAF50"/>
</g>
<g opacity="0.1">
<g clip-path="url(#clip4_394_21229)">
<path d="M16.6111 140.937C16.6223 139.858 16.6094 138.937 16.6305 138.01C16.7796 132.587 19.9065 127.779 24.5943 125.817C29.1421 123.9 34.3561 125.048 38.1027 128.655C43.3678 133.734 45.4992 140.273 46.3024 147.421C47.4178 157.37 47.5398 167.395 46.5034 177.507C46.3408 179.024 46.0944 180.969 44.9022 181.991C44.3918 182.434 43.0353 182.974 42.249 182.801C38.8849 182.069 35.5705 181.163 32.2956 180.176C22.8487 177.321 13.964 173.496 6.30473 167.52C2.26282 164.363 -1.28149 160.773 -3.05376 155.845C-3.60797 154.282 -3.97438 152.606 -4.13846 150.947C-4.58811 146.415 -2.78434 142.633 1.18741 139.888C4.97958 137.267 8.95664 137.485 12.8308 138.95C14.0847 139.412 15.1936 140.185 16.6111 140.937ZM43.2025 179.575C43.2282 177.697 43.2464 175.999 43.2645 174.301C43.3708 164.959 43.6886 155.593 42.3655 146.385C41.6199 141.181 40.0352 136.386 36.5444 132.407C33.5126 128.952 29.5148 127.555 25.9775 128.928C22.1342 130.407 19.8922 133.915 19.7656 138.795C19.7264 140.49 19.9829 142.172 20.0068 143.876C20.0153 144.572 20.2443 145.448 19.6056 145.981C18.9531 146.575 16.265 144.653 15.6392 144.246C14.3289 143.402 13.1021 142.377 11.6386 141.833C8.60279 140.697 5.42875 140.43 2.51486 142.808C-0.37338 145.169 -1.17108 148.181 -0.556373 151.527C0.0573668 154.927 1.63022 157.817 3.91945 160.315C8.16682 164.943 13.4767 168.253 19.1202 171.086C26.6801 174.867 34.8217 177.295 43.2025 179.575Z" fill="#4CAF50"/>
</g>
</g>
<g opacity="0.1">
<g clip-path="url(#clip5_394_21229)">
<path d="M381.251 276.201C381.262 275.122 381.249 274.201 381.27 273.273C381.419 267.851 384.546 263.043 389.234 261.081C393.782 259.164 398.996 260.311 402.742 263.919C408.007 268.998 410.139 275.537 410.942 282.684C412.058 292.633 412.179 302.659 411.143 312.771C410.98 314.288 410.734 316.232 409.542 317.255C409.031 317.698 407.675 318.237 406.889 318.065C403.525 317.333 400.21 316.426 396.935 315.44C387.488 312.585 378.604 308.76 370.944 302.783C366.903 299.627 363.358 296.037 361.586 291.108C361.032 289.545 360.665 287.869 360.501 286.211C360.052 281.679 361.855 277.897 365.827 275.151C369.619 272.531 373.596 272.749 377.471 274.214C378.724 274.676 379.833 275.449 381.251 276.201ZM407.842 314.839C407.868 312.96 407.886 311.262 407.904 309.565C408.01 300.223 408.328 290.857 407.005 281.649C406.26 276.445 404.675 271.65 401.184 267.671C398.152 264.216 394.154 262.819 390.617 264.191C386.774 265.671 384.532 269.179 384.405 274.059C384.366 275.754 384.623 277.436 384.647 279.14C384.655 279.836 384.884 280.712 384.245 281.244C383.593 281.838 380.905 279.917 380.279 279.51C378.969 278.666 377.742 277.641 376.278 277.097C373.242 275.961 370.068 275.694 367.155 278.072C364.266 280.432 363.469 283.444 364.083 286.791C364.697 290.19 366.27 293.081 368.559 295.578C372.806 300.207 378.116 303.517 383.76 306.349C391.32 310.13 399.461 312.559 407.842 314.839Z" fill="#4CAF50"/>
</g>
</g>
<g opacity="0.1">
<g clip-path="url(#clip6_394_21229)">
<path d="M144.251 276.201C144.262 275.122 144.249 274.201 144.27 273.273C144.419 267.851 147.546 263.043 152.234 261.081C156.782 259.164 161.996 260.311 165.742 263.919C171.007 268.998 173.139 275.537 173.942 282.684C175.058 292.633 175.179 302.659 174.143 312.771C173.98 314.288 173.734 316.232 172.542 317.255C172.031 317.698 170.675 318.237 169.889 318.065C166.525 317.333 163.21 316.426 159.935 315.44C150.488 312.585 141.604 308.76 133.944 302.783C129.903 299.627 126.358 296.037 124.586 291.108C124.032 289.545 123.665 287.869 123.501 286.211C123.052 281.679 124.855 277.897 128.827 275.151C132.619 272.531 136.596 272.749 140.471 274.214C141.724 274.676 142.833 275.449 144.251 276.201ZM170.842 314.839C170.868 312.96 170.886 311.262 170.904 309.565C171.01 300.223 171.328 290.857 170.005 281.649C169.26 276.445 167.675 271.65 164.184 267.671C161.152 264.216 157.154 262.819 153.617 264.191C149.774 265.671 147.532 269.179 147.405 274.059C147.366 275.754 147.623 277.436 147.647 279.14C147.655 279.836 147.884 280.712 147.245 281.244C146.593 281.838 143.905 279.917 143.279 279.51C141.969 278.666 140.742 277.641 139.278 277.097C136.242 275.961 133.068 275.694 130.155 278.072C127.266 280.432 126.469 283.444 127.083 286.791C127.697 290.19 129.27 293.081 131.559 295.578C135.806 300.207 141.116 303.517 146.76 306.349C154.32 310.13 162.461 312.559 170.842 314.839Z" fill="#4CAF50"/>
</g>
</g>
<g opacity="0.1">
<g clip-path="url(#clip7_394_21229)">
<path d="M73.2508 584.201C73.2619 583.122 73.2491 582.201 73.2702 581.273C73.4193 575.851 76.5462 571.043 81.234 569.081C85.7818 567.164 90.9958 568.311 94.7424 571.919C100.007 576.998 102.139 583.537 102.942 590.684C104.058 600.633 104.179 610.659 103.143 620.771C102.98 622.288 102.734 624.232 101.542 625.255C101.031 625.698 99.675 626.237 98.8887 626.065C95.5246 625.333 92.2102 624.426 88.9352 623.44C79.4884 620.585 70.6037 616.76 62.9444 610.783C58.9025 607.627 55.3582 604.037 53.5859 599.108C53.0317 597.545 52.6653 595.869 52.5012 594.211C52.0516 589.679 53.8553 585.897 57.8271 583.151C61.6193 580.531 65.5963 580.749 69.4705 582.214C70.7244 582.676 71.8333 583.449 73.2508 584.201ZM99.8422 622.839C99.8679 620.96 99.886 619.262 99.9042 617.565C100.01 608.223 100.328 598.857 99.0052 589.649C98.2596 584.445 96.6749 579.65 93.1841 575.671C90.1523 572.216 86.1545 570.819 82.6171 572.191C78.7739 573.671 76.5319 577.179 76.4053 582.059C76.366 583.754 76.6226 585.436 76.6465 587.14C76.655 587.836 76.8839 588.712 76.2453 589.244C75.5928 589.838 72.9047 587.917 72.2788 587.51C70.9686 586.666 69.7418 585.641 68.2783 585.097C65.2425 583.961 62.0684 583.694 59.1545 586.072C56.2663 588.432 55.4686 591.444 56.0833 594.791C56.697 598.19 58.2699 601.081 60.5591 603.578C64.8065 608.207 70.1163 611.517 75.7599 614.349C83.3198 618.13 91.4614 620.559 99.8422 622.839Z" fill="#4CAF50"/>
</g>
</g>
<g opacity="0.07">
<path d="M154.888 447.111C153.145 448.05 151.315 448.653 149.529 449.257C146.174 450.431 142.688 450.632 139.116 449.928C136.807 449.458 134.628 448.72 132.624 447.681C129.182 445.87 127.004 443.389 126.045 440.304C125.522 438.761 125.392 437.185 125.566 435.575C125.827 432.893 126.525 430.244 127.701 427.695C128.485 426.019 129.531 424.442 131.012 423.068C131.535 422.565 132.188 422.095 132.798 421.559C132.624 421.458 132.45 421.391 132.319 421.29C126.917 418.842 124.651 415.154 125.043 410.426C125.087 409.822 125.261 409.185 125.522 408.615C127.788 403.283 132.406 399.896 139.639 398.79C142.209 398.387 144.823 398.488 147.35 399.091C148.832 399.46 150.139 399.997 151.359 400.768C151.576 400.902 151.794 401.036 151.969 401.137C151.969 401.137 152.012 401.137 152.099 401.17C152.186 401.036 152.274 400.902 152.361 400.768C155.236 394.766 160.944 391.211 168.786 389.467C172.054 388.763 175.365 388.83 178.545 389.836C184.079 391.58 187.346 394.833 188.697 399.259C189.394 401.64 189.307 404.021 188.174 406.301C187.782 407.139 187.216 407.944 186.562 408.682C186.475 408.782 186.431 408.883 186.344 409.017C186.562 409.051 186.736 409.118 186.867 409.118C189.307 409.386 191.398 410.224 193.272 411.432C196.278 413.376 198.238 415.791 199.415 418.641C200.199 420.519 200.591 422.43 200.853 424.375C201.027 425.75 201.07 427.125 200.853 428.5C200.46 430.881 199.371 433.094 197.541 435.039C195.842 436.883 193.489 437.923 190.614 438.292C190.222 438.325 189.873 438.392 189.438 438.459C189.481 438.661 189.481 438.795 189.525 438.962C189.873 440.538 189.743 442.081 189.394 443.623C188.871 446.038 187.869 448.285 186.213 450.397C184.863 452.107 183.164 453.549 180.985 454.689C178.589 455.964 175.931 456.634 173.056 456.903C169.44 457.238 165.998 456.701 162.73 455.394C160.29 454.388 158.286 452.979 156.848 451.168C155.977 450.062 155.367 448.855 155.106 447.58C155.018 447.48 154.975 447.346 154.888 447.111ZM129.618 436.682C129.618 437.655 129.705 438.627 130.01 439.566C130.707 441.813 132.188 443.657 134.628 445.065C136.632 446.205 138.854 446.943 141.251 447.413C142.296 447.614 143.386 447.647 144.431 447.614C146.218 447.547 147.873 447.178 149.485 446.541C150.966 445.971 152.491 445.401 153.973 444.864C154.278 444.764 154.583 444.629 154.888 444.562C155.28 444.462 155.672 444.462 155.977 444.696C156.238 444.898 156.5 444.998 156.848 445.032C157.371 445.099 157.676 445.367 157.894 445.702C157.981 445.87 158.068 446.038 158.112 446.205C158.373 446.742 158.547 447.312 158.852 447.849C159.898 449.995 161.815 451.604 164.429 452.677C168.263 454.253 172.272 454.388 176.28 453.18C179.417 452.275 181.639 450.565 183.207 448.318C184.122 447.01 184.732 445.635 185.168 444.193C185.647 442.517 185.908 440.84 185.604 439.13C185.516 438.593 185.56 438.023 185.604 437.487C185.647 436.783 186.083 436.313 187.041 436.045C188.13 435.743 189.22 435.542 190.309 435.374C192.182 435.106 193.577 434.301 194.622 433.094C195.406 432.189 195.973 431.216 196.278 430.143C196.67 428.802 196.931 427.427 196.888 426.052C196.844 425.281 196.801 424.476 196.67 423.705C196.452 422.095 196.06 420.519 195.45 418.977C194.491 416.596 192.792 414.55 190.309 412.941C188.61 411.868 186.736 411.096 184.471 411.13C184.209 411.13 183.948 411.096 183.686 411.063C182.859 410.895 182.467 410.325 182.641 409.654C182.684 409.487 182.772 409.353 182.859 409.185C183.338 408.279 183.774 407.374 184.253 406.502C186.213 402.746 185.691 399.158 182.946 395.772C180.288 392.552 175.147 390.842 170.355 391.714C163.863 392.888 159.027 395.705 156.238 400.466C155.977 400.902 155.759 401.338 155.541 401.808C155.106 402.746 154.67 403.719 154.234 404.658C153.886 405.429 152.884 405.697 152.012 405.228C151.794 405.127 151.62 404.96 151.446 404.792C151.184 404.557 150.966 404.323 150.749 404.088C149.529 402.814 147.917 402.009 145.956 401.573C143.603 401.07 141.251 401.137 138.985 401.673C133.931 402.881 130.707 405.563 129.313 409.42C128.006 412.572 128.964 415.456 131.622 417.937C132.755 419.01 134.105 419.915 135.935 420.284C135.979 420.284 136.066 420.318 136.11 420.351C137.33 420.754 137.678 421.726 136.894 422.565C136.676 422.799 136.415 422.967 136.153 423.168C134.149 424.51 132.755 426.186 131.796 428.064C130.402 430.847 129.749 433.731 129.618 436.682Z" fill="#4CAF50"/>
<path d="M185.299 424.209C185.255 428.031 183.643 431.988 180.332 435.543C177.195 438.896 173.099 441.21 167.871 442.182C161.336 443.423 155.41 442.283 150.226 439.03C146 436.381 143.386 432.894 142.253 428.836C140.728 423.437 141.861 418.374 145.608 413.646C147.35 411.432 149.616 409.588 152.491 408.213C153.058 407.945 153.624 407.71 154.191 407.476C155.193 407.073 156.238 406.771 157.24 406.369C158.46 405.866 159.811 405.665 161.205 405.531C168.742 404.759 174.886 406.805 179.678 411.231C183.382 414.652 185.299 419.044 185.299 424.209ZM145.738 424.276C145.738 425.382 145.869 426.489 146.13 427.562C146.915 430.714 148.657 433.531 151.707 435.811C154.931 438.225 158.809 439.466 163.34 439.399C166.608 439.366 169.614 438.561 172.315 437.152C175.06 435.744 177.151 433.866 178.676 431.653C181.247 427.931 181.987 423.974 180.942 419.816C180.419 417.67 179.373 415.691 177.718 413.88C173.186 408.985 165.78 407.174 158.94 408.783C158.635 408.85 158.286 408.884 157.981 408.951C157.632 409.052 157.24 409.119 156.892 409.253C155.236 409.991 153.668 410.862 152.317 411.902C147.917 415.322 145.825 419.48 145.738 424.276Z" fill="#4CAF50"/>
<path d="M174.406 424.544C174.189 424.142 173.971 423.773 173.84 423.404C173.753 423.102 173.709 422.767 173.753 422.465C173.84 422.063 174.145 421.761 174.711 421.66C175.234 421.56 175.626 421.727 175.975 422.029C176.019 422.096 176.106 422.13 176.149 422.197C177.021 423.102 177.892 424.007 178.763 424.879C179.155 425.282 179.155 425.583 178.85 425.885C178.545 426.154 178.153 426.254 177.718 426.187C177.369 426.12 177.021 426.019 176.628 425.952C176.498 426.221 176.323 426.455 176.193 426.724C175.626 427.763 175.016 428.769 174.232 429.742C173.274 430.882 172.097 431.888 170.66 432.726C168.612 433.933 166.259 434.57 163.689 434.671C160.552 434.772 157.633 434.302 154.975 433.028C153.929 432.525 152.927 431.988 151.794 431.385C151.707 431.385 151.446 431.418 151.184 431.385C150.444 431.318 149.964 430.815 150.182 430.245C150.269 430.043 150.4 429.809 150.574 429.607C151.184 428.836 151.838 428.098 152.491 427.361C152.666 427.16 152.927 426.958 153.189 426.824C153.886 426.489 154.713 426.791 154.757 427.428C154.801 427.663 154.713 427.931 154.626 428.166C154.452 428.568 154.278 429.004 154.06 429.44C154.147 429.507 154.191 429.574 154.278 429.641C156.369 430.613 158.46 431.519 160.9 431.821C165.301 432.391 168.83 431.418 171.531 428.635C172.272 427.864 172.882 427.059 173.404 426.221C173.709 425.617 174.058 425.08 174.406 424.544Z" fill="#4CAF50"/>
<path d="M171.008 420.384C171.008 420.72 171.052 421.022 171.008 421.357C170.964 421.893 170.616 422.229 170.05 422.329C169.44 422.43 168.917 422.229 168.568 421.86C168.394 421.659 168.22 421.424 168.089 421.189C167.392 419.881 167.174 418.507 167.043 417.098C167.043 416.863 167.087 416.629 167.174 416.427C167.566 415.589 168.96 415.388 169.701 416.092C169.919 416.327 170.093 416.595 170.224 416.897C170.747 418.037 171.052 419.177 171.008 420.384Z" fill="#4CAF50"/>
<path d="M157.24 421.86C157.24 422.161 157.24 422.463 157.24 422.765C157.24 423 157.153 423.268 157.11 423.503C156.979 423.905 156.674 424.207 156.108 424.274C155.498 424.341 155.062 424.14 154.757 423.771C154.626 423.603 154.496 423.402 154.452 423.201C153.973 421.826 153.755 420.451 153.842 419.043C153.842 418.808 153.929 418.54 154.06 418.305C154.278 417.903 154.713 417.668 155.323 417.668C155.89 417.668 156.325 417.869 156.587 418.238C156.718 418.439 156.848 418.674 156.892 418.875C157.023 419.848 157.284 420.854 157.24 421.86Z" fill="#4CAF50"/>
</g>
<g opacity="0.1">
<path d="M112.888 101.111C111.145 102.05 109.315 102.653 107.529 103.257C104.174 104.431 100.688 104.632 97.1158 103.928C94.8067 103.458 92.6283 102.72 90.6241 101.681C87.1822 99.8701 85.0038 97.3887 84.0453 94.3036C83.5225 92.7611 83.3917 91.185 83.566 89.5755C83.8274 86.8928 84.5245 84.2437 85.7009 81.6952C86.4851 80.0185 87.5308 78.4424 89.0121 77.0676C89.5349 76.5646 90.1884 76.0951 90.7984 75.5586C90.6241 75.458 90.4499 75.3909 90.3192 75.2903C84.9167 72.8424 82.6511 69.1538 83.0432 64.4256C83.0868 63.822 83.261 63.1849 83.5225 62.6148C85.788 57.283 90.4063 53.8962 97.6387 52.7896C100.209 52.3872 102.823 52.4878 105.35 53.0914C106.832 53.4602 108.139 53.9968 109.359 54.768C109.576 54.9022 109.794 55.0363 109.969 55.1369C109.969 55.1369 110.012 55.1369 110.099 55.1704C110.186 55.0363 110.274 54.9022 110.361 54.768C113.236 48.7656 118.944 45.2111 126.786 43.4674C130.054 42.7632 133.365 42.8302 136.545 43.8362C142.079 45.5799 145.346 48.8327 146.697 53.259C147.394 55.6399 147.307 58.0207 146.174 60.301C145.782 61.1393 145.216 61.9441 144.562 62.6819C144.475 62.7825 144.431 62.8831 144.344 63.0172C144.562 63.0507 144.736 63.1178 144.867 63.1178C147.307 63.386 149.398 64.2244 151.272 65.4316C154.278 67.3765 156.238 69.7909 157.415 72.6412C158.199 74.5191 158.591 76.4305 158.853 78.3754C159.027 79.7502 159.07 81.1251 158.853 82.5C158.46 84.8808 157.371 87.094 155.541 89.0389C153.842 90.8832 151.489 91.9228 148.614 92.2916C148.222 92.3252 147.873 92.3922 147.438 92.4593C147.481 92.6605 147.481 92.7946 147.525 92.9623C147.873 94.5384 147.743 96.0809 147.394 97.6234C146.871 100.038 145.869 102.285 144.213 104.397C142.863 106.107 141.164 107.549 138.985 108.689C136.589 109.964 133.931 110.634 131.056 110.903C127.44 111.238 123.998 110.701 120.73 109.394C118.29 108.388 116.286 106.979 114.848 105.168C113.977 104.062 113.367 102.855 113.106 101.58C113.018 101.48 112.975 101.346 112.888 101.111ZM87.6179 90.682C87.6179 91.6545 87.705 92.627 88.01 93.5659C88.7071 95.8126 90.1884 97.6569 92.6283 99.0653C94.6324 100.205 96.8544 100.943 99.2507 101.413C100.296 101.614 101.386 101.647 102.431 101.614C104.218 101.547 105.873 101.178 107.485 100.541C108.966 99.9707 110.491 99.4007 111.973 98.8641C112.278 98.7635 112.583 98.6294 112.888 98.5623C113.28 98.4617 113.672 98.4617 113.977 98.6965C114.238 98.8977 114.5 98.9983 114.848 99.0318C115.371 99.0989 115.676 99.3671 115.894 99.7025C115.981 99.8701 116.068 100.038 116.112 100.205C116.373 100.742 116.547 101.312 116.852 101.849C117.898 103.995 119.815 105.604 122.429 106.677C126.263 108.253 130.272 108.388 134.28 107.18C137.417 106.275 139.639 104.565 141.207 102.318C142.122 101.01 142.732 99.6354 143.168 98.1935C143.647 96.5168 143.908 94.8402 143.604 93.13C143.516 92.5934 143.56 92.0234 143.604 91.4868C143.647 90.7826 144.083 90.3132 145.041 90.0449C146.13 89.7431 147.22 89.5419 148.309 89.3743C150.182 89.106 151.577 88.3012 152.622 87.094C153.406 86.1886 153.973 85.2161 154.278 84.1431C154.67 82.8018 154.931 81.4269 154.888 80.052C154.844 79.2808 154.801 78.476 154.67 77.7047C154.452 76.0951 154.06 74.5191 153.45 72.9765C152.491 70.5957 150.792 68.5502 148.309 66.9406C146.61 65.8675 144.736 65.0962 142.471 65.1298C142.209 65.1298 141.948 65.0962 141.686 65.0627C140.859 64.895 140.467 64.325 140.641 63.6543C140.684 63.4867 140.772 63.3525 140.859 63.1849C141.338 62.2795 141.774 61.3741 142.253 60.5022C144.213 56.7465 143.691 53.1584 140.946 49.7716C138.288 46.5524 133.147 44.8422 128.355 45.7141C121.863 46.8877 117.027 49.7045 114.238 54.4662C113.977 54.9022 113.759 55.3381 113.541 55.8076C113.106 56.7465 112.67 57.7189 112.234 58.6579C111.886 59.4291 110.884 59.6974 110.012 59.2279C109.794 59.1273 109.62 58.9597 109.446 58.792C109.184 58.5573 108.966 58.3225 108.749 58.0878C107.529 56.8136 105.917 56.0088 103.956 55.5728C101.603 55.0698 99.2507 55.1369 96.9851 55.6734C91.9312 56.8806 88.7071 59.5633 87.3129 63.4196C86.0059 66.5717 86.9644 69.4556 89.6221 71.937C90.7548 73.0101 92.1055 73.9155 93.9353 74.2843C93.9789 74.2843 94.066 74.3179 94.1096 74.3514C95.3295 74.7538 95.6781 75.7263 94.8939 76.5646C94.676 76.7993 94.4146 76.967 94.1532 77.1682C92.149 78.5095 90.7548 80.1862 89.7963 82.064C88.4021 84.8473 87.7486 87.7311 87.6179 90.682Z" fill="#4CAF50"/>
<path d="M143.299 78.2086C143.255 82.0314 141.643 85.9883 138.332 89.5428C135.195 92.8961 131.099 95.2099 125.871 96.1824C119.336 97.4231 113.41 96.283 108.226 93.0302C104 90.3811 101.386 86.8937 100.253 82.8362C98.7279 77.4373 99.8607 72.3738 103.608 67.6456C105.35 65.4325 107.616 63.5881 110.491 62.2133C111.058 61.945 111.624 61.7103 112.191 61.4755C113.193 61.0731 114.238 60.7713 115.24 60.3689C116.46 59.8659 117.811 59.6647 119.205 59.5306C126.742 58.7594 132.886 60.8049 137.678 65.2313C141.382 68.6516 143.299 73.0445 143.299 78.2086ZM103.738 78.2757C103.738 79.3822 103.869 80.4888 104.13 81.5619C104.915 84.714 106.657 87.5308 109.707 89.8111C112.931 92.2254 116.809 93.4662 121.34 93.3991C124.608 93.3656 127.614 92.5608 130.315 91.1524C133.06 89.744 135.151 87.8661 136.676 85.6529C139.247 81.9308 139.987 77.9739 138.942 73.8157C138.419 71.6696 137.373 69.6912 135.718 67.8804C131.186 62.9845 123.78 61.1737 116.94 62.7833C116.635 62.8504 116.286 62.8839 115.981 62.951C115.632 63.0516 115.24 63.1187 114.892 63.2528C113.236 63.9905 111.668 64.8624 110.317 65.9019C105.917 69.3223 103.825 73.4804 103.738 78.2757Z" fill="#4CAF50"/>
<path d="M132.406 78.544C132.189 78.1416 131.971 77.7727 131.84 77.4038C131.753 77.102 131.709 76.7667 131.753 76.4649C131.84 76.0625 132.145 75.7607 132.711 75.6601C133.234 75.5595 133.626 75.7272 133.975 76.029C134.019 76.096 134.106 76.1296 134.149 76.1966C135.021 77.102 135.892 78.0074 136.763 78.8793C137.155 79.2817 137.155 79.5835 136.85 79.8853C136.545 80.1536 136.153 80.2542 135.718 80.1871C135.369 80.12 135.021 80.0194 134.628 79.9524C134.498 80.2206 134.323 80.4553 134.193 80.7236C133.626 81.7631 133.016 82.7691 132.232 83.7416C131.274 84.8817 130.097 85.8877 128.66 86.7261C126.612 87.9332 124.259 88.5704 121.689 88.671C118.552 88.7716 115.633 88.3021 112.975 87.0279C111.929 86.5249 110.927 85.9883 109.794 85.3847C109.707 85.3847 109.446 85.4183 109.184 85.3847C108.444 85.3177 107.964 84.8147 108.182 84.2446C108.269 84.0434 108.4 83.8087 108.574 83.6075C109.184 82.8362 109.838 82.0985 110.491 81.3607C110.666 81.1595 110.927 80.9583 111.189 80.8242C111.886 80.4889 112.713 80.7907 112.757 81.4278C112.801 81.6625 112.713 81.9308 112.626 82.1655C112.452 82.5679 112.278 83.0039 112.06 83.4398C112.147 83.5069 112.191 83.5739 112.278 83.641C114.369 84.6135 116.46 85.5189 118.9 85.8207C123.301 86.3907 126.83 85.4183 129.531 82.635C130.272 81.8637 130.882 81.0589 131.404 80.2206C131.709 79.617 132.058 79.0805 132.406 78.544Z" fill="#4CAF50"/>
<path d="M129.008 74.3844C129.008 74.7197 129.052 75.0215 129.008 75.3569C128.964 75.8934 128.616 76.2287 128.05 76.3293C127.44 76.4299 126.917 76.2287 126.568 75.8599C126.394 75.6587 126.22 75.4239 126.089 75.1892C125.392 73.8814 125.174 72.5066 125.043 71.0982C125.043 70.8634 125.087 70.6287 125.174 70.4275C125.566 69.5892 126.96 69.388 127.701 70.0922C127.919 70.3269 128.093 70.5952 128.224 70.897C128.747 72.0371 129.052 73.1772 129.008 74.3844Z" fill="#4CAF50"/>
<path d="M115.24 75.8596C115.24 76.1614 115.24 76.4632 115.24 76.765C115.24 76.9997 115.153 77.268 115.11 77.5027C114.979 77.9051 114.674 78.2069 114.108 78.274C113.498 78.3411 113.062 78.1399 112.757 77.771C112.626 77.6033 112.496 77.4021 112.452 77.2009C111.973 75.8261 111.755 74.4512 111.842 73.0428C111.842 72.8081 111.929 72.5398 112.06 72.3051C112.278 71.9027 112.713 71.668 113.323 71.668C113.89 71.668 114.325 71.8692 114.587 72.238C114.718 72.4392 114.848 72.674 114.892 72.8752C115.023 73.8476 115.284 74.8536 115.24 75.8596Z" fill="#4CAF50"/>
</g>
<g opacity="0.1">
<path d="M42.8877 733.111C41.1449 734.05 39.315 734.653 37.5287 735.257C34.174 736.431 30.6885 736.632 27.1158 735.928C24.8067 735.458 22.6283 734.72 20.6241 733.681C17.1822 731.87 15.0038 729.389 14.0453 726.304C13.5225 724.761 13.3917 723.185 13.566 721.575C13.8274 718.893 14.5245 716.244 15.7009 713.695C16.4851 712.019 17.5308 710.442 19.0121 709.068C19.5349 708.565 20.1884 708.095 20.7984 707.559C20.6241 707.458 20.4499 707.391 20.3192 707.29C14.9167 704.842 12.6511 701.154 13.0432 696.426C13.0868 695.822 13.261 695.185 13.5225 694.615C15.788 689.283 20.4063 685.896 27.6387 684.79C30.2092 684.387 32.8233 684.488 35.3503 685.091C36.8316 685.46 38.1387 685.997 39.3586 686.768C39.5765 686.902 39.7943 687.036 39.9686 687.137C39.9686 687.137 40.0121 687.137 40.0993 687.17C40.1864 687.036 40.2736 686.902 40.3607 686.768C43.2362 680.766 48.9437 677.211 56.786 675.467C60.0537 674.763 63.3649 674.83 66.5454 675.836C72.0786 677.58 75.3462 680.833 76.6969 685.259C77.394 687.64 77.3068 690.021 76.1741 692.301C75.7819 693.139 75.2155 693.944 74.562 694.682C74.4749 694.782 74.4313 694.883 74.3442 695.017C74.562 695.051 74.7363 695.118 74.867 695.118C77.3068 695.386 79.3981 696.224 81.2716 697.432C84.2778 699.376 86.2384 701.791 87.4147 704.641C88.199 706.519 88.5911 708.43 88.8525 710.375C89.0268 711.75 89.0704 713.125 88.8525 714.5C88.4604 716.881 87.3712 719.094 85.5413 721.039C83.8421 722.883 81.4894 723.923 78.6139 724.292C78.2218 724.325 77.8732 724.392 77.4375 724.459C77.4811 724.661 77.4811 724.795 77.5247 724.962C77.8732 726.538 77.7425 728.081 77.394 729.623C76.8711 732.038 75.8691 734.285 74.2135 736.397C72.8628 738.107 71.1637 739.549 68.9852 740.689C66.589 741.964 63.9313 742.634 61.0558 742.903C57.4396 743.238 53.9977 742.701 50.73 741.394C48.2902 740.388 46.286 738.979 44.8482 737.168C43.9769 736.062 43.3669 734.855 43.1055 733.58C43.0184 733.48 42.9748 733.346 42.8877 733.111ZM17.6179 722.682C17.6179 723.655 17.705 724.627 18.01 725.566C18.7071 727.813 20.1884 729.657 22.6283 731.065C24.6324 732.205 26.8544 732.943 29.2507 733.413C30.2964 733.614 31.3856 733.647 32.4312 733.614C34.2175 733.547 35.8731 733.178 37.4852 732.541C38.9665 731.971 40.4914 731.401 41.9727 730.864C42.2777 730.764 42.5827 730.629 42.8877 730.562C43.2798 730.462 43.6719 730.462 43.9769 730.696C44.2383 730.898 44.4997 730.998 44.8482 731.032C45.3711 731.099 45.6761 731.367 45.8939 731.702C45.981 731.87 46.0682 732.038 46.1117 732.205C46.3732 732.742 46.5474 733.312 46.8524 733.849C47.8981 735.995 49.8151 737.604 52.4292 738.677C56.2632 740.253 60.2715 740.388 64.2798 739.18C67.4168 738.275 69.6388 736.565 71.2072 734.318C72.1222 733.01 72.7321 731.635 73.1678 730.193C73.6471 728.517 73.9085 726.84 73.6035 725.13C73.5164 724.593 73.5599 724.023 73.6035 723.487C73.6471 722.783 74.0828 722.313 75.0413 722.045C76.1305 721.743 77.2197 721.542 78.3089 721.374C80.1824 721.106 81.5765 720.301 82.6222 719.094C83.4064 718.189 83.9728 717.216 84.2778 716.143C84.6699 714.802 84.9313 713.427 84.8878 712.052C84.8442 711.281 84.8006 710.476 84.6699 709.705C84.4521 708.095 84.06 706.519 83.45 704.977C82.4915 702.596 80.7923 700.55 78.3089 698.941C76.6097 697.868 74.7363 697.096 72.4707 697.13C72.2093 697.13 71.9479 697.096 71.6865 697.063C70.8587 696.895 70.4666 696.325 70.6408 695.654C70.6844 695.487 70.7715 695.353 70.8587 695.185C71.3379 694.279 71.7736 693.374 72.2529 692.502C74.2135 688.746 73.6906 685.158 70.9458 681.772C68.2881 678.552 63.147 676.842 58.3545 677.714C51.8628 678.888 47.0267 681.705 44.2383 686.466C43.9769 686.902 43.759 687.338 43.5412 687.808C43.1055 688.746 42.6698 689.719 42.2341 690.658C41.8856 691.429 40.8835 691.697 40.0121 691.228C39.7943 691.127 39.62 690.96 39.4458 690.792C39.1843 690.557 38.9665 690.323 38.7487 690.088C37.5287 688.814 35.9167 688.009 33.9561 687.573C31.6034 687.07 29.2507 687.137 26.9851 687.673C21.9312 688.881 18.7071 691.563 17.3129 695.42C16.0059 698.572 16.9644 701.456 19.6221 703.937C20.7548 705.01 22.1055 705.915 23.9353 706.284C23.9789 706.284 24.066 706.318 24.1096 706.351C25.3295 706.754 25.6781 707.726 24.8939 708.565C24.676 708.799 24.4146 708.967 24.1532 709.168C22.149 710.51 20.7548 712.186 19.7963 714.064C18.4021 716.847 17.7486 719.731 17.6179 722.682Z" fill="#4CAF50"/>
<path d="M73.2985 710.209C73.255 714.031 71.6429 717.988 68.3317 721.543C65.1948 724.896 61.0993 727.21 55.8711 728.182C49.3358 729.423 43.4105 728.283 38.2258 725.03C33.9997 722.381 31.3856 718.894 30.2528 714.836C28.7279 709.437 29.8607 704.374 33.6076 699.646C35.3503 697.432 37.6159 695.588 40.4914 694.213C41.0578 693.945 41.6242 693.71 42.1906 693.476C43.1927 693.073 44.2383 692.771 45.2404 692.369C46.4603 691.866 47.8109 691.665 49.2051 691.531C56.7425 690.759 62.8856 692.805 67.6782 697.231C71.3815 700.652 73.2985 705.044 73.2985 710.209ZM33.7383 710.276C33.7383 711.382 33.869 712.489 34.1304 713.562C34.9146 716.714 36.6574 719.531 39.7072 721.811C42.9312 724.225 46.8088 725.466 51.34 725.399C54.6076 725.366 57.6138 724.561 60.3151 723.152C63.0599 721.744 65.1512 719.866 66.6761 717.653C69.2467 713.931 69.9873 709.974 68.9417 705.816C68.4188 703.67 67.3732 701.691 65.7176 699.88C61.1865 694.985 53.7798 693.174 46.9396 694.783C46.6346 694.85 46.286 694.884 45.981 694.951C45.6325 695.052 45.2404 695.119 44.8918 695.253C43.2362 695.991 41.6678 696.862 40.3171 697.902C35.9167 701.322 33.8254 705.48 33.7383 710.276Z" fill="#4CAF50"/>
<path d="M62.4065 710.544C62.1886 710.142 61.9708 709.773 61.8401 709.404C61.7529 709.102 61.7094 708.767 61.7529 708.465C61.8401 708.063 62.1451 707.761 62.7114 707.66C63.2343 707.56 63.6264 707.727 63.9749 708.029C64.0185 708.096 64.1056 708.13 64.1492 708.197C65.0206 709.102 65.892 710.007 66.7633 710.879C67.1554 711.282 67.1554 711.583 66.8505 711.885C66.5455 712.154 66.1534 712.254 65.7177 712.187C65.3691 712.12 65.0206 712.019 64.6285 711.952C64.4978 712.221 64.3235 712.455 64.1928 712.724C63.6264 713.763 63.0164 714.769 62.2322 715.742C61.2737 716.882 60.0973 717.888 58.6596 718.726C56.6118 719.933 54.2591 720.57 51.6886 720.671C48.5517 720.772 45.6326 720.302 42.9749 719.028C41.9292 718.525 40.9272 717.988 39.7944 717.385C39.7072 717.385 39.4458 717.418 39.1844 717.385C38.4438 717.318 37.9645 716.815 38.1823 716.245C38.2695 716.043 38.4002 715.809 38.5745 715.607C39.1844 714.836 39.8379 714.098 40.4915 713.361C40.6657 713.16 40.9272 712.958 41.1886 712.824C41.8857 712.489 42.7135 712.791 42.757 713.428C42.8006 713.663 42.7135 713.931 42.6263 714.166C42.4521 714.568 42.2778 715.004 42.0599 715.44C42.1471 715.507 42.1907 715.574 42.2778 715.641C44.3691 716.613 46.4604 717.519 48.9002 717.821C53.3006 718.391 56.8297 717.418 59.5309 714.635C60.2716 713.864 60.8816 713.059 61.4044 712.221C61.7094 711.617 62.0579 711.08 62.4065 710.544Z" fill="#4CAF50"/>
<path d="M59.008 706.384C59.008 706.72 59.0516 707.022 59.008 707.357C58.9645 707.893 58.6159 708.229 58.0495 708.329C57.4396 708.43 56.9168 708.229 56.5682 707.86C56.3939 707.659 56.2197 707.424 56.0889 707.189C55.3919 705.881 55.174 704.507 55.0433 703.098C55.0433 702.863 55.0869 702.629 55.174 702.427C55.5661 701.589 56.9603 701.388 57.701 702.092C57.9188 702.327 58.0931 702.595 58.2238 702.897C58.7466 704.037 59.0516 705.177 59.008 706.384Z" fill="#4CAF50"/>
<path d="M45.2404 707.86C45.2404 708.161 45.2404 708.463 45.2404 708.765C45.2404 709 45.1532 709.268 45.1097 709.503C44.9789 709.905 44.674 710.207 44.1076 710.274C43.4976 710.341 43.0619 710.14 42.7569 709.771C42.6262 709.603 42.4955 709.402 42.452 709.201C41.9727 707.826 41.7549 706.451 41.842 705.043C41.842 704.808 41.9292 704.54 42.0599 704.305C42.2777 703.903 42.7134 703.668 43.3233 703.668C43.8897 703.668 44.3254 703.869 44.5868 704.238C44.7175 704.439 44.8482 704.674 44.8918 704.875C45.0225 705.848 45.2839 706.854 45.2404 707.86Z" fill="#4CAF50"/>
</g>
<g opacity="0.1">
<g clip-path="url(#clip8_394_21229)">
<path d="M372.747 205.342C374.563 204.474 376.339 203.496 378.222 202.758C379.904 202.092 381.682 202.092 383.398 202.633C386.093 203.482 386.942 204.97 386.216 207.566C389.529 209.353 390.228 212.115 388.171 215.518C389.469 216.104 390.46 217.042 390.085 218.493C389.783 219.687 389.05 220.806 388.392 222.187C389.569 224.929 387.82 228.297 384.115 229.714C378.221 231.971 372.214 233.798 366.022 235.058C362.247 235.828 358.519 236.869 354.776 237.838C353.008 238.295 352.764 238.278 352.26 236.713C350.736 232.042 349.236 227.352 347.749 222.668C347.328 221.332 347.598 220.735 349.036 220.167C352.751 218.689 355.536 216.357 357.358 212.876C358.251 211.17 359.611 209.671 360.696 208.04C362.83 204.849 363.383 201.347 363.38 197.738C363.381 196.912 363.44 196.075 363.441 195.249C363.446 193.346 364.643 192.453 366.587 192.969C368.857 193.559 370.234 195.106 371.327 196.957C372.88 199.592 373.064 202.501 372.747 205.342ZM353.885 236.461C355.046 236.042 356.11 235.551 357.219 235.275C363.551 233.686 369.882 232.097 376.235 230.625C379.098 229.964 381.792 228.923 384.32 227.509C385.283 226.969 386.104 226.067 386.776 225.181C387.424 224.342 387.577 223.336 386.696 222.502C386.177 222.009 386.285 221.509 386.69 220.94C387.17 220.267 387.653 219.574 388.021 218.846C388.437 218.023 388.325 217.257 387.412 216.82C385.848 216.07 385.845 216.09 386.632 214.548C386.85 214.123 387.035 213.663 387.15 213.209C387.588 211.447 386.763 209.422 385.151 208.968C383.873 208.605 383.92 208.079 384.299 207.097C384.836 205.722 384.48 205.025 383.143 204.357C381.21 203.386 379.228 203.651 377.287 204.545C375.922 205.173 374.63 205.948 373.268 206.584C372.184 207.101 371.613 206.837 371.36 205.738C371.2 205.038 371.146 204.318 371.093 203.598C370.916 201.195 370.538 198.864 369.045 196.879C368.213 195.779 367.137 194.977 365.724 194.644C364.775 194.421 364.495 194.733 364.65 195.647C365.529 200.964 364.842 206.012 361.181 210.61C359.907 212.204 358.801 213.919 357.691 215.626C356.229 217.873 354.327 219.617 351.716 220.6C350.859 220.919 349.988 221.225 349.201 221.509C350.806 226.631 352.364 231.597 353.885 236.461Z" fill="#4CAF50"/>
</g>
</g>
<g opacity="0.1">
<g clip-path="url(#clip9_394_21229)">
<path d="M18.7469 55.3424C20.5628 54.4745 22.3387 53.4962 24.222 52.7575C25.9041 52.0916 27.6823 52.0917 29.3978 52.6329C32.0932 53.4821 32.9416 54.9705 32.2157 57.5658C35.5294 59.353 36.2283 62.1146 34.1714 65.5177C35.4691 66.1044 36.4596 67.0422 36.0848 68.4929C35.7826 69.687 35.0502 70.8063 34.3916 72.1869C35.5694 74.929 33.8204 78.2975 30.1148 79.7145C24.2211 81.9707 18.2135 83.7978 12.0216 85.0579C8.24731 85.8277 4.51941 86.8687 0.776095 87.8385C-0.991924 88.2955 -1.23598 88.2782 -1.73992 86.7132C-3.26388 82.0419 -4.76349 77.3523 -6.25088 72.6678C-6.67192 71.332 -6.40187 70.7352 -4.96354 70.167C-1.24887 68.6892 1.53651 66.357 3.35836 62.8757C4.25107 61.1705 5.61094 59.6707 6.69599 58.0399C8.82965 54.849 9.38257 51.3466 9.38012 47.7379C9.38121 46.9119 9.44023 46.0746 9.44132 45.2486C9.44596 43.3461 10.6426 42.4525 12.5867 42.9686C14.8575 43.5586 16.2337 45.1057 17.327 46.9567C18.8797 49.592 19.0635 52.5015 18.7469 55.3424ZM-0.114772 86.4615C1.04635 86.0415 2.1097 85.5514 3.21931 85.2749C9.55076 83.6859 15.8822 82.0969 22.2353 80.6249C25.0978 79.964 27.7917 78.9226 30.32 77.509C31.2826 76.9689 32.104 76.067 32.776 75.1808C33.4237 74.3418 33.5769 73.336 32.6964 72.5024C32.1767 72.0087 32.2854 71.5086 32.6897 70.94C33.17 70.2671 33.6533 69.5739 34.0207 68.8458C34.4366 68.0234 34.325 67.2574 33.412 66.8196C31.8485 66.0698 31.8455 66.0901 32.6318 64.5481C32.8504 64.1235 33.0354 63.663 33.1502 63.2086C33.5883 61.447 32.763 59.4223 31.1515 58.9683C29.8726 58.6052 29.9201 58.0792 30.2991 57.0973C30.8357 55.7225 30.4802 55.0254 29.1427 54.3572C27.2096 53.3859 25.2276 53.6514 23.2868 54.5454C21.9218 55.1734 20.6303 55.9477 19.2684 56.5842C18.1838 57.1013 17.6128 56.8374 17.36 55.7384C17.1998 55.0379 17.1462 54.3181 17.0927 53.5983C16.9162 51.1949 16.5385 48.8643 15.0453 46.8795C14.2131 45.7789 13.1375 44.9774 11.7245 44.6437C10.7753 44.4205 10.4955 44.7329 10.6501 45.6466C11.529 50.964 10.8425 56.0123 7.18096 60.6101C5.90671 62.2037 4.80052 63.919 3.69125 65.6257C2.22944 67.8728 0.327215 69.6168 -2.28446 70.5997C-3.1408 70.919 -4.01242 71.2246 -4.7987 71.509C-3.19436 76.6312 -1.63614 81.5973 -0.114772 86.4615Z" fill="#4CAF50"/>
</g>
</g>
<g opacity="0.1">
<g clip-path="url(#clip10_394_21229)">
<path d="M256.747 801.342C258.563 800.474 260.339 799.496 262.222 798.758C263.904 798.092 265.682 798.092 267.398 798.633C270.093 799.482 270.942 800.97 270.216 803.566C273.529 805.353 274.228 808.115 272.171 811.518C273.469 812.104 274.46 813.042 274.085 814.493C273.783 815.687 273.05 816.806 272.392 818.187C273.569 820.929 271.82 824.297 268.115 825.714C262.221 827.971 256.214 829.798 250.022 831.058C246.247 831.828 242.519 832.869 238.776 833.838C237.008 834.295 236.764 834.278 236.26 832.713C234.736 828.042 233.237 823.352 231.749 818.668C231.328 817.332 231.598 816.735 233.036 816.167C236.751 814.689 239.537 812.357 241.358 808.876C242.251 807.17 243.611 805.671 244.696 804.04C246.83 800.849 247.383 797.347 247.38 793.738C247.381 792.912 247.44 792.075 247.441 791.249C247.446 789.346 248.643 788.453 250.587 788.969C252.857 789.559 254.234 791.106 255.327 792.957C256.88 795.592 257.064 798.501 256.747 801.342ZM237.885 832.461C239.046 832.042 240.11 831.551 241.219 831.275C247.551 829.686 253.882 828.097 260.235 826.625C263.098 825.964 265.792 824.923 268.32 823.509C269.283 822.969 270.104 822.067 270.776 821.181C271.424 820.342 271.577 819.336 270.696 818.502C270.177 818.009 270.285 817.509 270.69 816.94C271.17 816.267 271.653 815.574 272.021 814.846C272.437 814.023 272.325 813.257 271.412 812.82C269.848 812.07 269.845 812.09 270.632 810.548C270.85 810.123 271.035 809.663 271.15 809.209C271.588 807.447 270.763 805.422 269.151 804.968C267.873 804.605 267.92 804.079 268.299 803.097C268.836 801.722 268.48 801.025 267.143 800.357C265.21 799.386 263.228 799.651 261.287 800.545C259.922 801.173 258.63 801.948 257.268 802.584C256.184 803.101 255.613 802.837 255.36 801.738C255.2 801.038 255.146 800.318 255.093 799.598C254.916 797.195 254.539 794.864 253.045 792.879C252.213 791.779 251.137 790.977 249.724 790.644C248.775 790.421 248.495 790.733 248.65 791.647C249.529 796.964 248.842 802.012 245.181 806.61C243.907 808.204 242.801 809.919 241.691 811.626C240.229 813.873 238.327 815.617 235.716 816.6C234.859 816.919 233.988 817.225 233.201 817.509C234.806 822.631 236.364 827.597 237.885 832.461Z" fill="#4CAF50"/>
</g>
</g>
<g opacity="0.1">
<path d="M225.622 651.409C225.678 651.501 225.812 651.464 225.787 651.36C224.876 646.024 223.554 638.981 222.736 633.78C222.416 631.708 222.284 629.596 222.159 627.501C222.097 626.319 222.406 625.001 223.787 625.1C224.535 625.154 225.661 626.163 225.841 626.912C226.986 631.556 228.045 636.216 228.862 640.92C230.01 647.499 230.908 654.105 231.915 660.704C231.954 660.976 232.015 661.257 232.021 661.542C232.045 662.855 232.406 664.488 230.66 664.81C228.883 665.145 228.19 663.611 228.001 662.213C227.776 660.638 227.33 657.545 226.465 656.312C225.408 654.796 223.301 652.41 221.373 649.376C220.259 647.633 219.568 646.597 217.827 644.194C218.519 649.046 219.249 653.9 219.909 658.764C220.091 660.146 220.156 661.423 220.036 662.929C219.961 663.823 219.853 665.267 218.157 665.262C216.441 665.207 216.079 663.976 215.955 663.184C214.7 655.001 213.617 646.785 212.525 638.591C212.444 637.992 212.436 637.209 212.733 636.76C213.183 636.094 213.914 635.254 214.573 635.23C215.217 635.212 216.157 635.953 216.576 636.604C219.082 640.625 224.37 649.11 225.622 651.409Z" fill="#4CAF50"/>
<path d="M263.44 629.853C264.5 630.256 265.895 629.984 266.689 629.655C271.805 627.59 272.773 625.616 275.563 623.596C276.534 622.886 277.705 621.94 278.569 623.173C279.027 623.827 278.964 625.29 278.177 626.307C275.578 629.552 272.526 632.333 268.526 633.724C263.237 635.554 259.35 632.239 260.137 626.602C260.635 623.002 262.191 619.98 265.09 617.818C266.555 616.731 268.182 616.075 269.817 617.371C271.498 618.687 271.113 620.496 270.457 622.187C269.125 625.615 266.428 627.635 263.25 629.126C262.946 629.425 263.206 629.738 263.44 629.853ZM268.688 619.719C268.843 619.329 268.757 618.808 267.986 619.013C266.941 619.274 266.083 620.033 265.337 620.879C264.29 622.08 263.649 623.765 263.679 625.765C266.273 623.673 267.76 621.427 268.688 619.719Z" fill="#4CAF50"/>
<path d="M252.995 642.219C247.742 643.191 244.143 641.559 243.12 637.747C241.728 632.553 244.384 626.218 248.684 624.74C249.466 624.473 250.446 624.412 251.261 624.63C251.781 624.759 252.356 625.518 252.484 626.097C252.579 626.46 252.012 627.156 251.569 627.435C248.655 629.335 247.743 632.205 247.989 635.535C248.041 636.242 248.949 637.265 249.633 637.479C251.916 638.181 254.052 637.544 256.156 636.517C257.05 636.07 259.012 634.834 259.31 636.091C259.849 637.344 259.19 638.537 258.162 639.558C256.156 641.541 253.717 642.074 252.995 642.219Z" fill="#4CAF50"/>
<path d="M236.395 655.49C235.521 649.66 234.649 644.194 233.879 638.704C233.59 636.619 233.481 634.517 233.433 632.428C233.416 631.132 233.721 629.759 235.336 629.703C236.889 629.633 237.513 630.87 237.7 632.173C238.659 639.194 239.564 646.219 240.462 653.228C240.528 653.699 240.647 654.57 240.622 655.002C240.539 656.014 240.035 656.549 238.7 656.604C238.018 656.619 236.558 656.688 236.395 655.49Z" fill="#4CAF50"/>
<path d="M280.872 594.726C281.714 600.569 282.483 605.561 283.176 611.044C283.46 613.342 283.548 615.663 283.482 617.972C283.454 618.846 282.99 620.553 282.249 620.516C281.614 620.779 280.785 619.858 280.519 618.454C279.116 611.08 278.147 604.618 276.916 597.211C276.866 596.867 276.813 595.796 276.815 595.489C276.808 593.632 277.881 593.033 278.504 592.832C278.992 592.707 280.362 592.464 280.872 594.726Z" fill="#4CAF50"/>
<path d="M235.044 623.842C233.422 624.553 231.451 623.703 230.761 621.995C230.125 620.418 230.852 618.583 232.351 617.98C234.105 617.272 235.861 617.962 236.517 619.588C237.229 621.305 236.57 623.17 235.044 623.842Z" fill="#4CAF50"/>
<path d="M285.246 633.343C283.762 633.939 282.188 633.193 281.6 631.597C280.984 629.935 281.594 627.726 282.835 627.173C284.211 626.544 286.051 627.392 286.741 628.965C287.497 630.741 286.84 632.701 285.246 633.343Z" fill="#4CAF50"/>
</g>
<g opacity="0.1">
<path d="M212.622 266.409C212.678 266.501 212.812 266.464 212.787 266.36C211.876 261.024 210.554 253.981 209.736 248.78C209.416 246.708 209.284 244.596 209.159 242.501C209.097 241.319 209.406 240.001 210.787 240.1C211.535 240.154 212.661 241.163 212.841 241.912C213.986 246.556 215.045 251.216 215.862 255.92C217.01 262.499 217.908 269.105 218.915 275.704C218.954 275.976 219.015 276.257 219.021 276.542C219.045 277.855 219.406 279.488 217.66 279.81C215.883 280.145 215.19 278.611 215.001 277.213C214.776 275.638 214.33 272.545 213.465 271.312C212.408 269.796 210.301 267.41 208.373 264.376C207.259 262.633 206.568 261.597 204.827 259.194C205.519 264.046 206.249 268.9 206.909 273.764C207.091 275.146 207.156 276.423 207.036 277.929C206.961 278.823 206.853 280.267 205.157 280.262C203.441 280.207 203.079 278.976 202.955 278.184C201.7 270.001 200.617 261.785 199.525 253.591C199.444 252.992 199.436 252.209 199.733 251.76C200.183 251.094 200.914 250.254 201.573 250.23C202.217 250.212 203.157 250.953 203.576 251.604C206.082 255.625 211.37 264.11 212.622 266.409Z" fill="#4CAF50"/>
<path d="M250.44 244.853C251.5 245.256 252.895 244.984 253.689 244.655C258.805 242.59 259.773 240.616 262.563 238.596C263.534 237.886 264.705 236.94 265.569 238.173C266.027 238.827 265.964 240.29 265.177 241.307C262.578 244.552 259.526 247.333 255.526 248.724C250.237 250.554 246.35 247.239 247.137 241.602C247.635 238.002 249.191 234.98 252.09 232.818C253.555 231.731 255.182 231.075 256.817 232.371C258.498 233.687 258.113 235.496 257.457 237.187C256.125 240.615 253.428 242.635 250.25 244.126C249.946 244.425 250.206 244.738 250.44 244.853ZM255.688 234.719C255.843 234.329 255.757 233.808 254.986 234.013C253.941 234.274 253.083 235.033 252.337 235.879C251.29 237.08 250.649 238.765 250.679 240.765C253.273 238.673 254.76 236.427 255.688 234.719Z" fill="#4CAF50"/>
<path d="M239.995 257.219C234.742 258.191 231.143 256.559 230.12 252.747C228.728 247.553 231.384 241.218 235.684 239.74C236.466 239.473 237.446 239.412 238.261 239.63C238.781 239.759 239.356 240.518 239.484 241.097C239.579 241.46 239.012 242.156 238.569 242.435C235.655 244.335 234.743 247.205 234.989 250.535C235.041 251.242 235.949 252.265 236.633 252.479C238.916 253.181 241.052 252.544 243.156 251.517C244.05 251.07 246.012 249.834 246.31 251.091C246.849 252.344 246.19 253.537 245.162 254.558C243.156 256.541 240.717 257.074 239.995 257.219Z" fill="#4CAF50"/>
<path d="M223.395 270.49C222.521 264.66 221.649 259.194 220.879 253.704C220.59 251.619 220.481 249.517 220.433 247.428C220.416 246.132 220.721 244.759 222.336 244.703C223.889 244.633 224.513 245.87 224.7 247.173C225.659 254.194 226.564 261.219 227.462 268.228C227.528 268.699 227.647 269.57 227.622 270.002C227.539 271.014 227.035 271.549 225.7 271.604C225.018 271.619 223.558 271.688 223.395 270.49Z" fill="#4CAF50"/>
<path d="M267.872 209.726C268.714 215.569 269.483 220.561 270.176 226.044C270.46 228.342 270.548 230.663 270.482 232.972C270.454 233.846 269.99 235.553 269.249 235.516C268.614 235.779 267.785 234.858 267.519 233.454C266.116 226.08 265.147 219.618 263.916 212.211C263.866 211.867 263.813 210.796 263.815 210.489C263.808 208.632 264.881 208.033 265.504 207.832C265.992 207.707 267.362 207.464 267.872 209.726Z" fill="#4CAF50"/>
<path d="M222.044 238.842C220.422 239.553 218.451 238.703 217.761 236.995C217.125 235.418 217.852 233.583 219.351 232.98C221.105 232.272 222.861 232.962 223.517 234.588C224.229 236.305 223.57 238.17 222.044 238.842Z" fill="#4CAF50"/>
<path d="M272.246 248.343C270.762 248.939 269.188 248.193 268.6 246.597C267.984 244.935 268.594 242.726 269.835 242.173C271.211 241.544 273.051 242.392 273.741 243.965C274.497 245.741 273.84 247.701 272.246 248.343Z" fill="#4CAF50"/>
</g>
<g opacity="0.1">
<path d="M-6.6191 247.457C-8.96668 249.686 -11.2559 251.915 -13.6425 254.07C-14.4959 254.842 -15.5451 255.539 -16.6575 256.07C-17.1971 256.324 -18.4289 256.551 -18.8015 256.103C-19.2586 255.706 -18.6179 255.018 -18.2329 254.623C-15.478 251.712 -12.596 248.837 -9.8445 245.912C-9.41504 245.463 -9.1154 244.67 -9.33915 244.267C-11.3867 240.213 -11.0987 235.74 -10.5406 231.251C-10.0268 227.04 -9.0496 222.805 -6.38691 218.728C-5.61879 217.559 -4.66079 216.368 -3.51945 215.353C-1.02651 213.155 2.30273 213.089 3.85647 215.27C5.68539 217.827 5.63757 220.836 5.27971 223.858C4.48393 230.636 1.36632 237.144 -3.49308 243.355C-4.05028 244.062 -4.46625 245.082 -4.46625 245.082C-4.46625 245.082 -3.85201 245.704 -2.64224 245.988C-0.3463 246.531 1.31953 246.539 3.85843 245.184C6.39732 243.828 8.254 242.26 9.65044 240.505C11.9089 237.641 13.5766 234.54 15.3234 231.516C16.0377 230.292 16.3159 228.972 16.7577 227.679C17.6345 225.067 22.0736 222.16 27.4903 223.924C29.2103 221.986 30.8981 220.001 32.7164 218.064C33.3423 217.395 34.4964 216.503 35.0809 216.419C36.6777 216.166 37.0009 217.243 37.2789 217.926C38.5596 221.075 39.591 224.318 40.7288 227.519C40.8231 227.803 41.0668 228.579 41.6213 228.306C42.3408 228.215 42.8069 222.784 42.9305 221.323C43.1496 218.814 43.0891 218.214 44.0229 216.931C44.7445 215.957 46.6768 215.195 48.4355 214.591C49.7802 214.125 50.3498 213.316 50.8182 212.198C51.5704 210.375 52.6841 208.513 54.083 206.842C55.3928 205.278 57.7591 204.752 59.1947 205.298C60.692 205.855 61.4482 207.238 60.2417 208.971C59.0054 210.739 58.6526 211.182 57.0355 212.323C55.9156 213.123 54.4114 214.024 53.5942 214.561C54.5537 215.751 56.1878 215.936 57.8035 215.384C60.8223 214.364 63.2459 212.422 65.7785 210.746C66.5443 210.236 67.8396 209.656 68.6389 210.089C69.7852 210.725 68.9024 211.756 67.9175 212.548C65.6893 214.34 63.0804 216.247 59.6842 217.395C55.4453 218.835 53.2588 218.781 50.5364 216.25C48.7031 216.719 47.6301 216.806 46.7022 218.185C46.0276 219.19 45.7672 224.51 45.4452 226.331C45.3261 226.993 45.0755 227.675 44.7562 228.32C44.1403 229.547 43.3173 230.73 41.3487 230.983C39.3618 231.241 38.5204 230.202 37.9489 229.149C37.335 228.008 36.9452 226.753 36.5805 225.518C35.9282 223.267 35.3857 220.988 34.77 218.727C33.0021 220.706 31.0419 222.623 29.4697 224.677C29.0609 225.205 29.4231 225.613 29.6548 225.972C31.9212 229.52 31.0507 233.195 27.9595 236.909C26.2341 238.974 23.8247 240.45 20.619 240.539C17.5301 240.626 16.2222 239.08 15.2754 237.271C15.1905 237.097 15.1055 236.924 14.9529 236.642C13.4564 238.759 12.1621 240.753 10.6538 242.677C8.91495 244.914 6.67783 246.821 3.51747 248.046C-0.471804 249.617 -3.73444 249.119 -6.6191 247.457ZM-7.26536 241.815C-7.21801 242.811 -6.29109 241.502 -6.25346 241.422C-1.31812 234.757 1.90649 227.912 1.87675 220.75C1.87461 219.406 1.55898 218.061 1.02274 216.844C0.437125 215.514 -0.474677 215.544 -1.79864 216.832C-2.62685 217.624 -3.31075 218.519 -3.85965 219.406C-6.68873 223.891 -7.72941 228.479 -7.83654 233.045C-7.89024 235.958 -7.47268 238.803 -7.26536 241.815ZM18.4151 230.995C18.0831 233.001 18.0473 234.943 19.2913 236.618C20.1638 237.774 21.5552 237.856 23.1657 236.913C26.3685 235.032 28.07 230.129 26.3478 227.755C22.9731 230.171 21.0363 230.99 18.4151 230.995ZM19.5523 228.777C20.0367 229.055 21.5847 228.395 22.3895 227.958C23.312 227.449 24.0946 226.78 24.9608 226.132C23.4075 225.659 22.1732 225.803 21.1717 226.235C19.363 227.02 19.0862 228.493 19.5523 228.777ZM53.9262 211.813C55.941 210.399 58.0904 208.754 58.0931 207.577C58.0865 207.032 57.4499 206.696 56.7518 207.314C55.1537 208.898 53.6651 211.714 53.9262 211.813Z" fill="#4CAF50"/>
<path d="M-11.1551 264.913C-11.7238 264.167 -10.6663 263.65 -10.1336 263.369C-6.44124 261.415 -2.7489 259.461 1.06843 257.684C18.6951 249.422 36.379 241.229 54.0309 232.989C57.5143 231.356 60.8763 229.559 64.3598 227.926C65.0572 227.602 66.5286 226.948 66.8911 227.581C67.4315 228.516 66.0743 229.084 65.3725 229.466C60.0295 232.359 54.7222 235.313 49.1752 237.953C35.0013 244.688 20.7346 251.293 6.48956 257.907C1.51981 260.212 -3.51416 262.422 -8.53432 264.684C-8.79843 264.795 -10.5716 265.641 -11.1551 264.913Z" fill="#4CAF50"/>
</g>
<g opacity="0.1">
<path d="M207.381 67.4566C205.033 69.6862 202.744 71.9145 200.357 74.0704C199.504 74.8417 198.455 75.5385 197.343 76.0699C196.803 76.3243 195.571 76.5511 195.199 76.1032C194.741 75.7056 195.382 75.0184 195.767 74.6228C198.522 71.7115 201.404 68.8368 204.155 65.9124C204.585 65.463 204.885 64.6698 204.661 64.2666C202.613 60.2131 202.901 55.7397 203.459 51.251C203.973 47.0402 204.95 42.8051 207.613 38.7278C208.381 37.5589 209.339 36.3679 210.481 35.3527C212.973 33.1547 216.303 33.089 217.856 35.2701C219.685 37.8268 219.638 40.8364 219.28 43.8578C218.484 50.6358 215.366 57.1439 210.507 63.3551C209.95 64.0622 209.534 65.0822 209.534 65.0822C209.534 65.0822 210.148 65.7045 211.358 65.9877C213.654 66.5305 215.32 66.5394 217.858 65.1836C220.397 63.8278 222.254 62.2598 223.65 60.505C225.909 57.6407 227.577 54.5399 229.323 51.5164C230.038 50.2917 230.316 48.9719 230.758 47.679C231.635 45.067 236.074 42.1597 241.49 43.9242C243.21 41.9862 244.898 40.0005 246.716 38.0645C247.342 37.3953 248.496 36.5027 249.081 36.4186C250.678 36.1655 251.001 37.2427 251.279 37.9256C252.56 41.075 253.591 44.3182 254.729 47.5193C254.823 47.8025 255.067 48.5785 255.621 48.3063C256.341 48.2145 256.807 42.7838 256.93 41.3228C257.15 38.8142 257.089 38.2139 258.023 36.9313C258.744 35.9568 260.677 35.1951 262.435 34.5912C263.78 34.1245 264.35 33.3161 264.818 32.1982C265.57 30.3753 266.684 28.5131 268.083 26.8417C269.393 25.2779 271.759 24.7519 273.195 25.2976C274.692 25.855 275.448 27.2381 274.242 28.9708C273.005 30.7393 272.653 31.1825 271.035 32.3232C269.916 33.1227 268.411 34.0236 267.594 34.5612C268.554 35.7506 270.188 35.9359 271.803 35.3837C274.822 34.3635 277.246 32.4219 279.779 30.7457C280.544 30.2356 281.84 29.6559 282.639 30.0893C283.785 30.7254 282.902 31.7564 281.917 32.5484C279.689 34.3404 277.08 36.2468 273.684 37.3946C269.445 38.8346 267.259 38.781 264.536 36.2499C262.703 36.7194 261.63 36.8063 260.702 38.1854C260.028 39.1896 259.767 44.51 259.445 46.3315C259.326 46.9931 259.075 47.6754 258.756 48.3198C258.14 49.5466 257.317 50.7299 255.349 50.983C253.362 51.2409 252.52 50.2024 251.949 49.1487C251.335 48.0082 250.945 46.7525 250.58 45.5183C249.928 43.2675 249.386 40.9878 248.77 38.7273C247.002 40.7061 245.042 42.6235 243.47 44.6767C243.061 45.2046 243.423 45.6132 243.655 45.9723C245.921 49.52 245.051 53.1947 241.96 56.9089C240.234 58.9744 237.825 60.4501 234.619 60.5393C231.53 60.6257 230.222 59.08 229.275 57.271C229.19 57.0973 229.106 56.9237 228.953 56.6418C227.456 58.7591 226.162 60.7529 224.654 62.6772C222.915 64.9144 220.678 66.8208 217.517 68.0464C213.528 69.6167 210.266 69.1186 207.381 67.4566ZM206.735 61.8151C206.782 62.8109 207.709 61.5021 207.747 61.4222C212.682 54.7568 215.906 47.9124 215.877 40.7499C215.875 39.406 215.559 38.0607 215.023 36.8437C214.437 35.5137 213.525 35.5441 212.201 36.8315C211.373 37.6241 210.689 38.5187 210.14 39.4057C207.311 43.8911 206.271 48.479 206.163 53.0447C206.11 55.9579 206.527 58.8027 206.735 61.8151ZM232.415 50.9952C232.083 53.0014 232.047 54.9434 233.291 56.618C234.164 57.7744 235.555 57.8556 237.166 56.9127C240.368 55.0317 242.07 50.1295 240.348 47.7547C236.973 50.1712 235.036 50.9901 232.415 50.9952ZM233.552 48.7766C234.037 49.055 235.585 48.3947 236.389 47.9584C237.312 47.449 238.095 46.7804 238.961 46.1319C237.407 45.6592 236.173 45.8026 235.172 46.2348C233.363 47.0199 233.086 48.4934 233.552 48.7766ZM267.926 31.8127C269.941 30.3991 272.09 28.7539 272.093 27.5768C272.086 27.0323 271.45 26.6961 270.752 27.3143C269.154 28.8981 267.665 31.7135 267.926 31.8127Z" fill="#4CAF50"/>
<path d="M202.845 84.9128C202.276 84.1665 203.334 83.6495 203.866 83.369C207.559 81.4149 211.251 79.4608 215.068 77.6838C232.695 69.4221 250.379 61.2292 268.031 52.9888C271.514 51.3558 274.876 49.5589 278.36 47.926C279.057 47.602 280.529 46.9479 280.891 47.5805C281.431 48.5164 280.074 49.0843 279.372 49.4655C274.03 52.3591 268.722 55.3133 263.175 57.9525C249.001 64.6876 234.735 71.293 220.49 77.9067C215.52 80.2117 210.486 82.4216 205.466 84.6838C205.202 84.7955 203.428 85.6412 202.845 84.9128Z" fill="#4CAF50"/>
</g>
<g opacity="0.1">
<path d="M21.3809 529.457C19.0333 531.686 16.7441 533.915 14.3575 536.07C13.5041 536.842 12.4549 537.539 11.3425 538.07C10.8029 538.324 9.57108 538.551 9.19853 538.103C8.7414 537.706 9.38215 537.018 9.76708 536.623C12.522 533.712 15.404 530.837 18.1555 527.912C18.585 527.463 18.8846 526.67 18.6609 526.267C16.6133 522.213 16.9013 517.74 17.4594 513.251C17.9732 509.04 18.9504 504.805 21.6131 500.728C22.3812 499.559 23.3392 498.368 24.4806 497.353C26.9735 495.155 30.3027 495.089 31.8565 497.27C33.6854 499.827 33.6376 502.836 33.2797 505.858C32.4839 512.636 29.3663 519.144 24.5069 525.355C23.9497 526.062 23.5338 527.082 23.5338 527.082C23.5338 527.082 24.148 527.704 25.3578 527.988C27.6537 528.531 29.3195 528.539 31.8584 527.184C34.3973 525.828 36.254 524.26 37.6504 522.505C39.9089 519.641 41.5766 516.54 43.3234 513.516C44.0377 512.292 44.3159 510.972 44.7577 509.679C45.6345 507.067 50.0736 504.16 55.4903 505.924C57.2103 503.986 58.8981 502.001 60.7164 500.064C61.3423 499.395 62.4964 498.503 63.0809 498.419C64.6777 498.166 65.0009 499.243 65.2789 499.926C66.5596 503.075 67.591 506.318 68.7288 509.519C68.8231 509.803 69.0668 510.579 69.6213 510.306C70.3408 510.215 70.8069 504.784 70.9305 503.323C71.1496 500.814 71.0891 500.214 72.0229 498.931C72.7445 497.957 74.6768 497.195 76.4355 496.591C77.7802 496.125 78.3498 495.316 78.8182 494.198C79.5704 492.375 80.6841 490.513 82.083 488.842C83.3928 487.278 85.7591 486.752 87.1947 487.298C88.692 487.855 89.4482 489.238 88.2417 490.971C87.0054 492.739 86.6526 493.182 85.0355 494.323C83.9156 495.123 82.4114 496.024 81.5942 496.561C82.5537 497.751 84.1878 497.936 85.8035 497.384C88.8223 496.364 91.2459 494.422 93.7785 492.746C94.5443 492.236 95.8396 491.656 96.6389 492.089C97.7852 492.725 96.9024 493.756 95.9175 494.548C93.6893 496.34 91.0804 498.247 87.6842 499.395C83.4453 500.835 81.2588 500.781 78.5364 498.25C76.7031 498.719 75.6301 498.806 74.7022 500.185C74.0276 501.19 73.7672 506.51 73.4452 508.331C73.3261 508.993 73.0755 509.675 72.7562 510.32C72.1403 511.547 71.3173 512.73 69.3487 512.983C67.3618 513.241 66.5204 512.202 65.9489 511.149C65.335 510.008 64.9452 508.753 64.5805 507.518C63.9282 505.267 63.3857 502.988 62.77 500.727C61.0021 502.706 59.0419 504.623 57.4697 506.677C57.0609 507.205 57.4231 507.613 57.6548 507.972C59.9212 511.52 59.0507 515.195 55.9595 518.909C54.2341 520.974 51.8247 522.45 48.619 522.539C45.5301 522.626 44.2222 521.08 43.2754 519.271C43.1905 519.097 43.1055 518.924 42.9529 518.642C41.4564 520.759 40.1621 522.753 38.6538 524.677C36.9149 526.914 34.6778 528.821 31.5175 530.046C27.5282 531.617 24.2656 531.119 21.3809 529.457ZM20.7346 523.815C20.782 524.811 21.7089 523.502 21.7465 523.422C26.6819 516.757 29.9065 509.912 29.8768 502.75C29.8746 501.406 29.559 500.061 29.0227 498.844C28.4371 497.514 27.5253 497.544 26.2014 498.832C25.3731 499.624 24.6893 500.519 24.1404 501.406C21.3113 505.891 20.2706 510.479 20.1635 515.045C20.1098 517.958 20.5273 520.803 20.7346 523.815ZM46.4151 512.995C46.0831 515.001 46.0473 516.943 47.2913 518.618C48.1638 519.774 49.5552 519.856 51.1657 518.913C54.3685 517.032 56.07 512.129 54.3478 509.755C50.9731 512.171 49.0363 512.99 46.4151 512.995ZM47.5523 510.777C48.0367 511.055 49.5847 510.395 50.3895 509.958C51.312 509.449 52.0946 508.78 52.9608 508.132C51.4075 507.659 50.1732 507.803 49.1717 508.235C47.363 509.02 47.0862 510.493 47.5523 510.777ZM81.9262 493.813C83.941 492.399 86.0904 490.754 86.0931 489.577C86.0865 489.032 85.4499 488.696 84.7518 489.314C83.1537 490.898 81.6651 493.714 81.9262 493.813Z" fill="#4CAF50"/>
<path d="M16.8449 546.913C16.2762 546.167 17.3337 545.65 17.8664 545.369C21.5588 543.415 25.2511 541.461 29.0684 539.684C46.6951 531.422 64.379 523.229 82.0309 514.989C85.5143 513.356 88.8763 511.559 92.3598 509.926C93.0572 509.602 94.5286 508.948 94.8911 509.581C95.4315 510.516 94.0743 511.084 93.3725 511.466C88.0295 514.359 82.7222 517.313 77.1752 519.953C63.0013 526.688 48.7346 533.293 34.4896 539.907C29.5198 542.212 24.4858 544.422 19.4657 546.684C19.2016 546.795 17.4284 547.641 16.8449 546.913Z" fill="#4CAF50"/>
</g>
<g opacity="0.1">
<path d="M149.969 708.146C156.094 701.607 161.156 700.736 168.172 704.999C170 700.431 173.766 698.185 178.422 697.253C185 695.939 190.75 698.995 193.062 705.366C195.75 712.775 195.969 720.368 192.391 727.549C191 730.36 188.75 732.957 186.328 735.035C182.484 738.35 178.297 738.335 173.937 735.707C173.516 735.463 173.125 735.188 172.594 734.852C169.891 742.246 166.062 748.403 156.953 749.305C156.891 749.824 156.797 750.405 156.734 750.985C156.609 752.146 155.75 753.002 154.375 753.414C153.062 753.796 142.547 757.188 135.641 759.388C134.25 759.861 129.625 761.099 127.812 761.038C125.719 760.961 125.125 759.755 125.016 757.738C125 757.555 125 757.371 125 757.188C125.344 750.466 125.016 749.625 129.562 748.296C131.281 747.792 133.906 746.661 134 745.531C134.047 744.95 134.156 743.743 134.172 742.048C134.203 736.502 135.156 730.956 135.734 725.334C134.594 726.357 133.578 727.411 132.422 728.298C130.219 729.978 128.406 729.489 127.281 726.984C126.578 725.425 125.859 723.882 125.187 722.309C124.672 721.117 124.984 720.277 125.984 719.268C129.266 715.968 131.5 714.685 135.469 709.032C136.594 707.428 137.984 706.267 139.984 705.793C142.391 705.228 144.781 704.541 147.156 703.868C148.281 703.548 149.031 703.96 149.344 704.968C149.641 705.977 149.75 707.016 149.969 708.146ZM146.594 706.252C144.078 707.031 141.75 707.734 139.422 708.513C138.984 708.65 138.469 709.124 138.266 709.521C136.156 713.723 132.953 716.977 129.219 719.803C128.703 720.2 128.234 720.643 127.812 721.01L130.469 726.861C130.516 726.984 130.672 727.014 130.781 726.938C131.844 726.128 132.844 725.517 133.594 724.692C134.734 723.424 135.828 722.309 136.922 720.995C137.344 720.491 138.156 719.36 138.375 719.452C138.734 719.345 139.094 720.399 139.375 721.163C139.453 721.377 139.359 721.866 139.328 722.11C138.516 729.291 137.609 736.471 136.953 743.667C136.844 744.843 136.859 746.493 136.234 747.441C135.406 748.709 133.797 749.167 132.344 749.809C131.219 750.298 129.984 750.802 128.859 751.291C128.109 751.611 128.187 752.345 128.172 752.757C128.062 754.361 128.125 755.981 128.125 757.83C128.125 757.952 128.219 758.059 128.344 758.043C132.25 757.661 145.781 753.353 152.828 751.184C153.203 751.077 153.687 750.573 153.703 750.236C153.781 748.403 153.75 746.555 153.75 744.523C153.75 744.416 153.641 744.324 153.531 744.355C151.484 744.752 149.672 745.118 147.859 745.47C146.266 745.775 145.047 744.736 145.125 743.148C145.328 739.68 145.797 736.211 145.937 732.743C146.266 725.089 146.453 717.435 146.719 709.781C146.75 708.727 146.875 707.673 146.984 706.557C147 706.359 146.797 706.191 146.594 706.252ZM156.859 746.463C160.578 746.28 163.562 744.553 165.75 741.788C168.734 738.03 170.141 733.675 170.625 728.985C171.25 722.981 170.781 717.084 168.531 711.431C166.781 707.046 163.531 704.861 159.625 705.411C153.297 706.298 149.484 711.767 149.375 716.243C149.172 724.31 148.484 732.377 148 740.428C147.953 741.314 148 742.216 148 743.163C149.266 742.934 150.422 742.72 151.562 742.506C154.016 742.063 155.125 741.803 155.922 742.246C156.781 742.72 156.812 746.142 156.859 746.463ZM189.859 705.977C188.453 701.913 185.219 699.575 180.797 699.606C176.203 699.636 172.25 701.271 170.219 705.717C170.078 706.023 169.75 706.68 169.75 706.68C169.75 706.68 170.281 707.703 170.453 708.055C171.562 710.453 172 712.317 172.531 714.532C173.75 719.65 174 724.875 173.328 730.1C173.187 731.155 173.469 731.842 174.328 732.591C178.812 736.441 183.828 734.378 186.75 731.002C190.5 726.678 193.844 718.963 189.859 705.977Z" fill="#4CAF50"/>
<path d="M154.922 715.969C155.094 714.976 155.578 713.999 156.141 713.128C157.937 710.347 161.172 710.393 162.859 713.265C163.344 714.075 163.641 716.321 163.562 717.207C162.984 723.547 162.437 728.681 161.656 734.99C161.469 736.487 160.422 737.618 158.797 738.046C156.781 738.596 155.047 737.649 154.5 735.662C154.359 735.143 154.203 734.593 154.156 734.058C153.953 731.599 153.734 721.561 154.922 715.969ZM159.281 713.51C157.391 713.357 156.844 720.629 156.719 723.15C156.531 727 156.281 730.193 156.656 734.043C156.766 735.219 157.078 735.708 157.797 735.922C159.172 735.922 159.344 734.15 159.391 733.737C160.016 728.085 160.703 722.432 161.187 716.749C161.281 715.71 161.203 713.006 159.281 713.51Z" fill="#4CAF50"/>
<path d="M184.141 722.614C184.031 723.377 183.75 724.141 183.484 724.875C182.875 726.57 181.937 727.961 179.859 728.007C178.266 728.052 176.672 726.769 176.187 724.691C175.75 722.827 175.75 720.291 175.828 718.382C175.984 715.127 176.094 712.439 176.578 709.215C176.828 707.534 178.047 706.48 179.75 706.007C181.687 705.472 183.484 706.251 183.984 708.161C185.781 715.127 184.516 719.909 184.141 722.614ZM179.609 726.127C181.156 726.127 181.234 724.218 181.328 723.24C181.656 719.802 181.891 716.35 182.062 712.897C182.125 711.766 182 710.575 181.687 709.49C181.422 708.573 180.656 707.794 179.609 708.695C179.203 709.047 179 709.78 178.969 710.345C178.797 714.761 178.625 719.176 178.609 723.591C178.609 724.432 178.391 725.898 179.609 726.127Z" fill="#4CAF50"/>
</g>
<defs>
<clipPath id="clip0_394_21229">
<rect width="91" height="91" fill="white" transform="translate(-63 425.061) rotate(-34.8962)"/>
</clipPath>
<clipPath id="clip1_394_21229">
<rect width="91" height="91" fill="white" transform="translate(134 521.061) rotate(-34.8962)"/>
</clipPath>
<clipPath id="clip2_394_21229">
<rect width="67.23" height="67.2347" fill="white" transform="translate(313 740.461) rotate(-34.8962)"/>
</clipPath>
<clipPath id="clip3_394_21229">
<rect width="91" height="91" fill="white" transform="translate(325 108.061) rotate(-34.8962)"/>
</clipPath>
<clipPath id="clip4_394_21229">
<rect width="90" height="83" fill="white" transform="translate(-32.6396 149.129) rotate(-34.8227)"/>
</clipPath>
<clipPath id="clip5_394_21229">
<rect width="90" height="83" fill="white" transform="translate(332 284.393) rotate(-34.8227)"/>
</clipPath>
<clipPath id="clip6_394_21229">
<rect width="90" height="83" fill="white" transform="translate(95 284.393) rotate(-34.8227)"/>
</clipPath>
<clipPath id="clip7_394_21229">
<rect width="90" height="83" fill="white" transform="translate(24 592.393) rotate(-34.8227)"/>
</clipPath>
<clipPath id="clip8_394_21229">
<rect width="56" height="52" fill="white" transform="translate(332 199.045) rotate(-19.8827)"/>
</clipPath>
<clipPath id="clip9_394_21229">
<rect width="56" height="52" fill="white" transform="translate(-22 49.0449) rotate(-19.8827)"/>
</clipPath>
<clipPath id="clip10_394_21229">
<rect width="56" height="52" fill="white" transform="translate(216 795.045) rotate(-19.8827)"/>
</clipPath>
</defs>
</svg>
