<svg width="24" height="24" viewBox="0 0 24 24" fill="none" xmlns="http://www.w3.org/2000/svg">
<path d="M18.07 8.50965L9.50999 4.22965C3.75999 1.34965 1.39999 3.70965 4.27999 9.45965L5.14999 11.1996C5.39999 11.7096 5.39999 12.2996 5.14999 12.8096L4.27999 14.5396C1.39999 20.2896 3.74999 22.6496 9.50999 19.7696L18.07 15.4896C21.91 13.5696 21.91 10.4296 18.07 8.50965ZM14.84 12.7496H9.43999C9.02999 12.7496 8.68999 12.4096 8.68999 11.9996C8.68999 11.5896 9.02999 11.2496 9.43999 11.2496H14.84C15.25 11.2496 15.59 11.5896 15.59 11.9996C15.59 12.4096 15.25 12.7496 14.84 12.7496Z" fill="#121313"/>
</svg>
