<svg width="169" height="184" viewBox="0 0 169 184" fill="none" xmlns="http://www.w3.org/2000/svg">
<path d="M110.779 2.48949C110.02 4.25836 109.515 6.53261 109.515 7.54339C109.515 8.42782 108.252 9.4386 106.735 9.6913C104.84 9.94399 103.703 11.0811 103.45 13.1027C103.071 15.8823 103.324 16.0087 106.862 15.3769C109.894 14.7452 110.779 15.1242 111.41 17.0194C112.8 21.3153 115.832 20.0518 115.832 15.1242C115.832 12.0919 116.59 10.4494 118.359 9.4386C121.518 7.79609 120.381 5.14279 116.97 6.02722C115.074 6.53261 114.569 6.02722 114.569 3.75297C114.569 -0.669191 112.295 -1.30093 110.779 2.48949Z" fill="black" fill-opacity="0.15"/>
<path d="M73.0007 4.63711C72.3689 6.27963 71.4845 8.55388 71.1054 9.69101C70.7264 11.2072 68.8312 11.9653 64.5354 12.218C57.5863 12.7233 55.9438 14.9976 61.124 17.2719C63.0192 18.1563 64.9144 18.9144 65.0408 19.0407C65.2935 19.2934 64.7881 21.4413 63.9036 23.8419C60.9977 31.9282 67.4414 33.1916 71.6108 25.3581C73.7587 21.1886 75.1486 21.1886 75.654 25.4844C75.9067 27.7587 76.9174 29.1485 78.4336 29.4012C80.5815 29.9066 80.8342 29.2749 80.0761 22.8311C79.4444 15.882 79.4444 15.7557 83.1085 14.8713C88.6677 13.3551 88.1624 11.3335 82.0977 10.9545C76.9174 10.5754 76.6647 10.4491 77.0438 6.65867C77.4228 1.85747 74.6432 0.467644 73.0007 4.63711Z" fill="black" fill-opacity="0.15"/>
<path d="M15.6389 24.2205C15.1335 24.5995 14.7544 26.3684 14.7544 28.1373C14.7544 30.7906 14.3754 31.0433 11.9748 30.2852C4.39396 28.0109 3.38318 28.0109 3.38318 30.6642C3.38318 32.054 4.64665 33.9492 6.16282 34.96C8.68977 36.7289 8.68977 36.8552 6.54186 40.1403C4.64665 43.0463 4.64665 43.678 6.28917 44.3097C7.29995 44.6888 9.95325 44.1834 11.9748 43.0463C15.6389 41.151 15.7652 41.151 16.5233 44.9415C17.6604 51.0061 20.4401 48.7319 20.3137 41.9091C20.3137 36.6025 20.5664 35.9708 23.8515 34.8337C28.779 33.0648 28.2736 30.9169 22.967 30.9169C18.9239 30.9169 18.5449 30.6642 18.5449 27.1265C18.5449 23.4624 17.4077 22.3253 15.6389 24.2205Z" fill="black" fill-opacity="0.15"/>
<path d="M139.459 32.1805C139.08 33.1913 138.575 35.2129 138.322 36.6027C138.07 38.2452 136.806 39.1296 134.785 39.256C129.225 39.5087 128.973 39.7614 132.131 42.4147C134.406 44.3099 134.785 45.3207 133.774 46.3314C131.752 48.353 131.879 52.3961 134.026 52.3961C134.911 52.3961 136.427 51.5117 137.312 50.5009C139.459 47.8476 140.47 48.1003 142.113 51.7644C144.64 57.3237 146.535 55.5548 145.777 48.6057C145.145 43.6781 145.398 42.0356 146.788 41.4039C150.199 40.1404 148.935 36.9817 145.271 37.4871C142.239 37.8662 141.607 37.3608 140.976 34.0757C140.47 31.5488 139.965 30.917 139.459 32.1805Z" fill="black" fill-opacity="0.15"/>
<path d="M92.7109 39.3825C92.2055 39.7616 91.8264 41.5304 91.8264 43.1729C91.8264 45.6999 91.321 45.9526 88.6678 45.3209C85.0037 44.4364 84.3719 46.5843 87.5306 49.9957C89.5522 52.27 89.4258 53.6598 86.5198 57.7029C85.2564 59.3454 85.2564 60.2298 86.3935 61.367C87.5306 62.5041 88.9204 62.2514 92.4582 60.2298L97.0067 57.4502L98.1438 60.6089C98.7755 62.3778 100.292 63.7676 101.429 63.7676C103.198 63.7676 103.324 62.8831 102.692 58.2083C101.934 53.2807 102.061 52.649 104.588 52.0173C108.757 50.8801 106.735 47.9741 101.555 47.5951C97.6384 47.2161 96.8803 46.7107 96.8803 44.3101C96.8803 41.1514 94.1007 37.8664 92.7109 39.3825Z" fill="black" fill-opacity="0.15"/>
<path d="M52.9115 50.1214C52.027 51.0058 51.3953 52.7747 51.3953 54.0382C51.3953 55.6807 50.7636 56.1861 49.5001 55.6807C48.4893 55.3017 46.7204 54.5436 45.7097 54.1645C43.1827 53.1538 43.3091 56.0597 45.836 58.8394C47.7312 60.9873 47.7312 61.24 45.836 63.1352C44.6989 64.2723 43.8145 66.0412 43.8145 67.052C43.8145 69.0735 48.363 69.4526 49.5001 67.5574C50.7636 65.4095 53.6696 66.1675 54.554 68.8208C55.9438 73.1166 58.9761 71.8532 58.9761 67.052C58.9761 64.2723 59.7342 62.5035 60.9977 61.9981C63.7773 60.9873 62.5139 58.334 58.8498 57.4496C56.5755 56.9442 55.8175 55.8071 55.8175 53.2801C55.6911 49.1106 54.8067 48.2262 52.9115 50.1214Z" fill="black" fill-opacity="0.15"/>
<path d="M166.877 68.3152C166.245 70.9685 165.487 71.4739 162.202 71.0949C157.78 70.7158 156.137 73.2428 159.928 74.5062C162.707 75.3907 163.465 78.1703 161.317 79.5601C160.686 79.9392 160.054 81.708 160.054 83.4769C160.054 87.2673 163.086 87.52 165.613 83.7296L167.509 81.0763L170.035 84.1086C172.183 86.6356 172.815 86.8883 173.826 85.2458C174.584 84.235 174.963 80.6973 174.837 77.4122C174.71 72.8637 174.079 71.0949 172.436 70.5895C171.173 70.2104 170.162 68.8206 170.162 67.4308C170.162 63.893 167.761 64.5248 166.877 68.3152Z" fill="black" fill-opacity="0.15"/>
<path d="M3.38322 72.6121C2.62514 74.0019 2.37244 76.4025 2.75148 77.9187C3.63592 80.4456 3.63592 80.4456 -0.280853 78.1714C-5.4611 75.139 -7.8617 77.1606 -4.32397 81.5827C-1.92337 84.6151 -1.92337 84.7414 -4.32397 87.6474C-7.8617 92.0696 -5.4611 94.2175 -0.280853 91.3115C3.00418 89.4163 3.50957 89.4163 4.01496 90.9325C4.394 91.9432 4.89939 93.7121 5.27843 94.7229C6.54191 98.8923 8.43712 96.2391 8.43712 90.4271C8.43712 84.8678 8.68982 84.236 11.7222 83.478C15.7653 82.4672 15.0072 79.6875 10.585 79.1821C7.80538 78.8031 7.17365 78.1714 7.17365 75.139C7.17365 70.5905 5.15209 69.2007 3.38322 72.6121Z" fill="black" fill-opacity="0.15"/>
<path d="M126.698 74.507C126.319 75.6441 125.94 78.5501 125.94 80.8244C125.94 84.4884 125.435 85.1202 122.529 85.4992C117.854 86.0046 117.096 89.9214 121.392 91.0585C125.182 91.9429 125.056 91.6902 123.54 95.8597C122.655 98.134 122.782 99.3974 124.045 100.408C125.435 101.545 126.572 101.166 129.225 98.513C130.994 96.7441 132.637 95.3543 132.763 95.607C136.301 103.441 139.207 102.935 139.08 94.4699C138.954 89.0369 139.207 87.8998 141.355 87.3944C145.65 86.2573 143.123 83.3513 137.564 82.9723C132.637 82.5932 132.384 82.3405 132.005 77.9184C131.626 72.9908 128.214 70.7166 126.698 74.507Z" fill="black" fill-opacity="0.15"/>
<path d="M87.657 82.2142C87.1516 82.7196 86.7725 85.4992 86.7725 88.5316C86.7725 93.8382 86.6462 93.8382 81.7186 94.7226C78.939 95.228 76.4121 95.9861 76.033 96.6178C75.1486 98.0076 78.0546 100.029 81.7186 100.661C83.7402 100.914 84.751 101.798 84.3719 102.935C82.7294 109 82.7294 113.043 84.6246 113.043C86.5198 113.043 91.1947 108.115 92.2055 105.083C92.4582 104.072 93.3426 104.325 94.8588 105.841C97.5121 108.494 98.6492 108.494 100.671 106.094C102.061 104.451 101.934 103.314 100.418 99.9028C98.5229 96.2388 98.6492 95.7334 100.418 94.5962C103.703 92.4483 100.923 89.9214 96.1223 90.6795C92.3318 91.3112 91.8264 91.0585 91.8264 88.5316C91.8264 85.2465 89.0468 80.9507 87.657 82.2142Z" fill="black" fill-opacity="0.15"/>
<path d="M43.1827 83.9831C42.8036 84.6148 42.8036 87.1418 43.1827 89.5424C44.0671 93.5855 43.8144 93.8382 39.5186 94.5963C35.2228 95.3544 31.5587 99.1448 33.3276 100.914C34.5911 102.051 39.8976 101.798 42.5509 100.408C44.5725 99.3975 45.0779 99.9029 46.7204 104.578C47.6048 107.484 49.3737 110.011 50.5108 110.263C52.2797 110.642 52.6587 109.632 52.6587 104.957C52.6587 99.2712 52.6587 99.2712 56.3228 99.9029C60.9977 100.914 62.1348 99.0185 58.9761 94.9753C57.3336 92.9538 56.9546 91.4376 57.7126 90.9322C58.3444 90.5532 58.9761 89.2897 58.9761 88.1526C58.9761 86.2574 55.4384 86.2574 50.0054 88.4053C48.4893 88.9107 47.7312 88.2789 47.0995 86.0047C46.215 82.5933 44.5725 81.7089 43.1827 83.9831Z" fill="black" fill-opacity="0.15"/>
<path d="M22.0826 114.433C21.8299 116.707 20.6928 118.981 19.5556 119.487C18.2922 120.119 16.2706 121.129 15.1335 121.761C11.0904 123.656 12.6065 126.31 17.9131 126.941C22.3353 127.447 23.0934 128.078 23.5988 131.364C24.3568 135.912 27.5155 136.417 29.2844 132.248C30.2952 129.974 31.1796 129.595 33.9592 130.226C37.876 130.984 38.6341 128.963 36.1072 124.288C35.0964 122.266 35.2227 121.129 36.8652 119.361C39.5185 116.455 37.6233 115.191 31.8113 116.328C27.8946 116.96 27.2628 116.707 26.1257 113.801C24.4832 109.379 22.588 109.632 22.0826 114.433Z" fill="black" fill-opacity="0.15"/>
<path d="M159.549 113.296C159.17 114.18 158.791 115.823 158.411 116.834C158.159 117.971 156.39 118.729 153.737 118.729C148.556 118.729 147.419 121.382 151.841 123.404C153.61 124.162 154.874 125.425 154.495 126.183C152.347 131.616 152.347 131.995 154.242 132.753C155.379 133.259 157.401 132.627 158.664 131.49C161.444 128.963 162.581 128.963 162.581 131.364C162.581 132.374 163.465 133.259 164.476 133.259C165.866 133.259 166.371 131.869 166.371 128.331C166.371 125.552 167.003 123.151 167.888 122.898C170.035 122.14 167.888 119.361 164.982 119.361C163.213 119.361 162.581 118.476 162.581 116.328C162.581 112.917 160.307 110.643 159.549 113.296Z" fill="black" fill-opacity="0.15"/>
<path d="M61.124 118.981C60.6186 119.36 60.2396 123.024 60.2396 127.068C60.2396 133.511 59.8606 134.396 57.46 135.154C50.8899 136.923 47.6049 138.691 47.6049 140.334C47.6049 142.987 49.7528 143.619 54.4276 142.356L58.7234 141.092L59.2288 147.409C60.3659 158.528 65.0408 158.907 66.1779 147.915C66.557 144.756 67.0624 142.103 67.4414 142.103C67.6941 142.103 69.3366 142.987 70.9791 144.124C72.6217 145.262 74.6432 145.767 75.4013 145.262C77.2965 144.124 76.9175 140.081 74.7696 138.312C72.2426 136.165 72.369 134.143 75.4013 132.248C80.9606 128.836 77.0438 124.414 70.4737 126.688C66.4306 128.078 65.2935 126.941 65.2935 121.129C65.2935 118.223 63.0192 117.086 61.124 118.981Z" fill="black" fill-opacity="0.15"/>
<path d="M113.179 122.14C113.053 123.656 113.179 126.562 113.305 128.331C113.432 131.869 111.031 133.258 104.208 133.258C102.313 133.258 99.9126 134.269 98.7755 135.406C96.754 137.428 96.754 137.554 98.9019 139.197C100.165 140.081 103.071 140.839 105.346 140.839H109.515L108.631 148.42C107.999 154.864 108.252 156.001 109.894 156.001C111.789 156.001 117.096 150.315 117.096 148.294C117.096 147.788 117.728 145.767 118.359 143.998C119.623 140.713 119.749 140.587 122.782 142.608C129.478 147.03 132.889 143.619 128.72 136.543C126.951 133.637 126.572 131.869 127.456 130.984C129.731 128.71 127.204 126.815 122.908 127.573C119.244 128.331 118.865 128.078 117.728 124.288C116.211 119.234 113.305 117.97 113.179 122.14ZM116.843 134.648C116.464 135.912 108.252 137.428 108.252 136.291C108.252 135.912 111.789 134.775 116.843 133.385C117.096 133.258 117.096 133.89 116.843 134.648Z" fill="black" fill-opacity="0.15"/>
<path d="M135.164 157.264C134.658 159.159 133.774 159.538 130.868 158.907C126.825 158.149 126.319 159.286 128.973 163.076C130.615 165.098 130.489 165.729 128.846 167.625C126.319 170.404 127.835 172.931 130.994 171.162C134.279 169.394 134.658 169.52 136.048 173.184C137.943 178.112 140.47 176.216 140.091 170.278C139.712 165.982 140.091 164.971 142.239 164.213C146.029 163.076 145.524 161.307 141.481 160.802C138.575 160.549 138.07 159.917 138.322 157.517C138.828 154.106 136.048 153.726 135.164 157.264Z" fill="black" fill-opacity="0.15"/>
<path d="M86.7726 167.246C86.7726 170.531 86.3935 171.037 83.4875 170.784C78.939 170.405 78.1809 173.311 82.2241 174.954C85.0037 175.964 85.3827 176.723 84.751 180.008C83.8666 184.303 85.7618 185.061 89.4259 181.776C91.4474 179.881 91.9528 179.881 94.6061 181.776C96.1223 182.914 97.8911 183.798 98.3965 183.798C100.165 183.798 99.5336 179.376 97.2594 176.343C95.6169 173.943 95.4905 172.806 96.754 170.911C98.6492 167.878 97.6384 166.109 94.2271 166.994C92.4582 167.499 91.0684 166.994 90.3103 165.604C88.5414 162.445 86.7726 163.203 86.7726 167.246Z" fill="black" fill-opacity="0.15"/>
</svg>
