<svg width="155" height="110" viewBox="0 0 155 110" fill="none" xmlns="http://www.w3.org/2000/svg">
<path d="M80.638 -50.8077C78.7713 -50.5411 76.7713 -49.7411 76.1046 -49.0744C75.3046 -48.4077 72.3713 -47.8744 69.438 -47.8744C65.438 -47.8744 64.5046 -47.4744 65.9713 -46.5411C67.0379 -45.8744 67.3046 -45.2077 66.638 -45.2077C65.838 -45.2077 64.5046 -45.8744 63.7046 -46.6744C62.638 -47.7411 61.1713 -47.6077 58.3713 -46.1411C56.3713 -45.0744 49.3046 -41.7411 42.9046 -38.5411C35.8379 -35.2077 30.2379 -31.4744 28.9046 -29.4744C27.7046 -27.4744 24.5046 -23.8744 21.9713 -21.2077C9.43795 -8.80775 1.70461 8.39225 0.104615 27.7256C-0.162052 30.9256 0.104615 33.4589 0.637948 33.4589C1.17128 33.4589 1.30461 35.0589 0.904615 36.9256C0.504615 39.4589 0.771281 40.2589 1.70461 39.5922C2.77128 39.0589 3.17128 34.7923 3.03795 28.3923C2.90461 21.7256 3.70461 15.9922 5.03795 12.1256C6.23795 8.79225 7.30462 5.19225 7.30462 3.99225C7.30462 2.79225 8.23795 1.32558 9.43795 0.925583C10.5046 0.525581 11.0379 -0.541084 10.6379 -1.34108C9.57128 -3.07442 14.6379 -8.14108 16.1046 -6.80775C16.6379 -6.27441 16.6379 -6.94108 16.2379 -8.14108C15.7046 -9.60775 16.5046 -11.7411 18.3713 -13.6077C19.9713 -15.3411 22.9046 -18.5411 24.7713 -20.6744C29.4379 -25.8744 34.7713 -30.5411 36.1046 -30.5411C36.638 -30.5411 39.7046 -31.8744 42.9046 -33.3411C46.1046 -34.9411 49.1713 -35.8744 49.5713 -35.4744C49.9713 -35.0744 51.1713 -35.6077 52.3713 -36.6744C53.5713 -38.0077 55.5713 -38.4077 57.438 -38.0077C59.438 -37.4744 60.638 -37.7411 60.638 -38.6744C60.638 -39.4744 61.5713 -39.7411 62.7713 -39.3411C64.1046 -38.8077 65.7046 -39.4744 66.7713 -40.8077C67.838 -42.2744 68.5046 -42.5411 68.638 -41.6077C68.638 -39.2077 70.7713 -39.4744 73.438 -42.2744C75.7046 -44.4077 75.838 -44.4077 74.9046 -42.2744C73.838 -39.2077 76.3713 -39.2077 79.5713 -42.0077C81.438 -43.7411 82.3713 -43.8744 83.838 -42.6744C84.9046 -41.7411 86.1046 -41.6077 86.5046 -42.2744C86.9046 -42.9411 92.3713 -43.3411 98.638 -43.0744C104.771 -42.9411 110.238 -43.2077 110.638 -44.0077C112.105 -46.1411 113.971 -45.3411 113.971 -42.5411C113.971 -40.1411 114.371 -40.0077 116.771 -41.2077C120.505 -43.2077 127.305 -43.3411 128.505 -41.3411C129.038 -40.5411 131.305 -39.6077 133.438 -39.4744C135.571 -39.3411 138.105 -38.4077 139.171 -37.4744C140.638 -36.0077 141.438 -36.1411 143.305 -37.8744C145.571 -39.8744 145.838 -39.8744 146.238 -37.6077C146.505 -36.2744 147.571 -35.2077 148.638 -35.0744C149.705 -34.9411 151.971 -34.8077 153.705 -34.8077C155.438 -34.6744 156.371 -34.0077 155.971 -33.2077C155.571 -32.5411 156.238 -31.7411 157.571 -31.7411C161.571 -31.4744 162.371 -31.2077 168.371 -28.5411C171.438 -27.0744 173.971 -25.4744 173.971 -24.8078C173.971 -24.2744 174.505 -24.0078 175.171 -24.4077C175.838 -24.8078 177.438 -23.6077 178.771 -21.8744C180.105 -20.0078 182.371 -18.5411 183.571 -18.5411C185.038 -18.5411 185.971 -17.4744 185.971 -15.8744C185.971 -13.8744 186.905 -13.2077 189.438 -13.2077C191.838 -13.2077 192.638 -12.6744 192.238 -11.4744C191.838 -10.5411 192.771 -8.94108 194.105 -8.14108C195.438 -7.20775 196.638 -5.74108 196.638 -4.67442C196.638 -3.74108 197.838 -1.87441 199.305 -0.541084C200.771 0.792252 201.971 2.65892 201.971 3.72559C201.971 4.65892 202.905 6.92558 203.971 8.65892C205.038 10.2589 206.105 15.0589 206.105 19.1923C206.238 23.5922 206.905 26.7923 207.705 26.7923C208.771 26.7923 208.638 27.3256 207.705 28.2589C206.905 29.0589 206.505 30.5256 206.771 31.4589C207.171 32.3923 206.905 33.5922 206.105 34.1256C205.305 34.5256 204.638 35.9922 204.638 37.3256C204.638 38.6589 203.438 41.3256 201.838 43.3256C200.371 45.3256 199.305 47.7256 199.705 48.6589C200.105 49.7256 199.305 51.8589 197.838 53.5922C196.505 55.1922 195.305 57.3256 195.305 58.1256C195.305 59.0589 194.371 60.1256 193.305 60.6589C192.238 61.0589 191.305 62.2589 191.305 63.4589C191.305 64.5256 190.505 65.4589 189.438 65.4589C188.371 65.4589 186.638 66.6589 185.705 67.9922C184.638 69.4589 182.371 70.9256 180.371 71.4589C178.505 71.9922 174.638 74.6589 171.838 77.5922C169.038 80.3922 165.705 82.7922 164.371 82.7922C160.905 82.7922 161.438 80.5256 165.305 77.9922C167.171 76.7922 168.638 74.9256 168.638 73.9922C168.638 72.9256 169.438 72.1256 170.371 72.1256C171.171 72.1256 173.438 69.8589 175.305 67.0589C177.171 64.3922 179.705 60.9256 180.905 59.5922C184.105 55.9922 189.971 40.2589 189.838 35.4589C189.838 33.1922 189.305 30.2589 188.771 28.9256C187.838 26.3923 187.705 26.3923 186.771 28.7923C186.371 30.1256 186.505 31.5922 187.171 31.9922C187.838 32.5256 187.438 35.0589 185.971 38.1256C184.505 41.0589 183.438 44.3923 183.305 45.5922C183.305 46.7922 181.571 49.7256 179.305 52.1256C177.171 54.5256 175.305 57.0589 175.305 57.7256C175.305 58.5256 173.705 61.0589 171.705 63.4589C169.571 65.8589 165.971 70.2589 163.438 73.3256C160.371 76.9256 157.171 79.1922 153.705 80.2589C150.905 80.9256 147.305 82.7922 145.705 84.3922C143.705 86.3922 142.771 86.6589 141.971 85.4589C141.305 84.3922 140.638 84.2589 140.105 85.1922C139.571 85.9922 138.371 86.3922 137.171 85.8589C136.105 85.4589 133.971 86.2589 132.505 87.5922C130.238 89.7256 129.571 89.7256 128.638 88.1256C127.571 86.3922 127.305 86.5256 127.305 88.3922C127.305 89.7256 126.771 90.7922 125.971 90.7922C125.305 90.7922 124.638 90.2589 124.638 89.4589C124.638 88.6589 123.438 88.6589 121.571 89.3256C119.971 89.9922 116.505 90.3922 113.971 90.2589C111.438 89.9922 108.505 90.5256 107.571 91.3256C106.238 92.2589 105.438 92.1256 104.771 90.9256C104.105 89.9922 101.571 89.0589 99.038 88.9256C96.5046 88.6589 93.7046 88.1256 92.9046 87.5922C92.1046 87.1922 91.1713 87.3256 90.638 87.9922C90.238 88.7922 89.0379 89.0589 87.9713 88.6589C86.9046 88.1256 86.3713 87.1922 86.7713 86.5256C87.3046 85.7256 86.238 85.8589 84.638 86.7922C81.3046 88.5256 79.0379 87.3256 81.9713 85.4589C83.7046 84.3922 83.5713 84.1256 81.7046 84.1256C80.3713 84.1256 79.3046 84.9256 79.3046 85.7256C79.3046 86.7922 78.7713 86.5256 77.9713 85.3256C76.7713 83.1922 70.238 81.1922 63.7046 80.7922C62.1046 80.7922 59.5713 79.5922 58.2379 78.3922C56.638 76.9256 54.7713 76.3923 53.3046 76.9256C51.438 77.7256 51.0379 77.4589 51.7046 75.8589C52.2379 74.2589 51.838 73.9922 49.7046 74.5256C47.438 75.0589 47.0379 74.7922 47.7046 72.9256C48.2379 71.7256 48.1046 71.0589 47.438 71.4589C46.7713 71.8589 45.838 71.5922 45.3046 70.7922C44.7713 69.9922 43.838 69.7256 43.1713 70.1256C42.5046 70.6589 41.1713 70.1256 40.2379 69.1922C39.1713 68.2589 36.2379 65.4589 33.438 63.0589C30.7713 60.6589 28.9046 58.2589 29.3046 57.5922C29.7046 56.9256 29.1713 55.5922 28.2379 54.5256C24.9046 51.1922 21.7046 45.5922 22.5046 44.2589C23.0379 43.5922 22.7713 42.6589 22.1046 42.1256C21.3046 41.7256 21.0379 40.5256 21.4379 39.5922C21.8379 38.5256 22.3713 34.5256 22.7713 30.6589C23.7046 19.0589 23.8379 17.9922 25.8379 15.7256C26.7713 14.5256 27.3046 12.6589 26.9046 11.7256C26.5046 10.7923 27.4379 9.19225 28.7713 8.39225C30.1046 7.45892 31.3046 5.85892 31.3046 4.79225C31.3046 3.72559 32.2379 2.79225 33.438 2.79225C34.9046 2.79225 35.1713 1.99225 34.638 0.258919C33.9713 -1.74108 34.3713 -2.14108 36.3713 -1.60775C38.9046 -0.941086 43.9713 -6.67442 42.3713 -8.40775C41.1713 -9.60775 37.9713 -6.54108 37.9713 -4.27441C37.9713 -3.20775 37.1713 -2.54108 36.2379 -2.94109C30.1046 -5.34108 18.2379 20.1256 17.9713 36.1256C17.8379 47.9922 27.4379 69.3256 32.9046 69.4589C34.3713 69.4589 34.9046 70.1256 34.5046 71.3256C33.7046 73.3256 38.9046 77.0589 40.3713 75.5922C41.3046 74.6589 47.5713 78.5256 49.0379 81.0589C49.5713 81.9922 51.3046 82.7922 52.638 82.7922C53.9713 82.7922 55.5713 83.3256 55.9713 84.1256C56.3713 84.7922 57.9713 85.4589 59.3046 85.4589C60.7713 85.4589 63.838 86.5256 66.238 87.9922C69.3046 89.5922 71.5713 90.1256 73.5713 89.3256C75.5713 88.6589 76.638 88.9256 77.0379 90.1256C77.5713 91.1922 79.7046 91.8589 82.638 91.7256C85.3046 91.5922 87.9713 92.2589 88.3713 93.0589C89.0379 94.1256 90.9046 94.2589 94.638 93.4589C98.638 92.5256 100.371 92.7922 101.971 94.1256C103.438 95.4589 106.371 95.7256 112.638 95.1922C117.438 94.9256 123.305 94.6589 125.705 94.6589C128.105 94.7922 129.838 94.2589 129.438 93.5922C129.038 92.9256 129.838 92.6589 131.305 93.0589C132.771 93.4589 134.905 93.0589 135.971 92.1256C137.038 91.3256 138.505 90.9256 139.171 91.3256C139.838 91.8589 140.771 91.5922 141.305 90.7922C141.838 89.9922 142.771 89.7256 143.438 90.1256C144.105 90.5256 145.971 89.7256 147.571 88.1256C149.171 86.6589 151.305 85.7256 152.105 85.9922C152.905 86.2589 155.038 85.7256 156.505 84.5256C160.771 81.5922 161.305 83.3256 157.838 87.9922C155.705 90.9256 154.505 91.5922 153.705 90.5256C152.905 89.1922 152.638 89.1922 152.638 90.5256C152.638 91.4589 151.571 92.1256 150.238 91.8589C148.905 91.7256 146.371 92.7922 144.638 94.5256C142.505 96.5256 139.838 97.4589 136.371 97.4589C133.571 97.4589 131.305 98.1256 131.305 98.9256C131.305 99.7256 130.371 100.126 129.305 99.7256C128.238 99.1922 127.038 99.4589 126.638 100.259C126.105 100.926 125.038 101.459 124.238 101.326C123.305 101.192 121.705 101.326 120.638 101.726C119.571 102.126 115.038 103.326 110.638 104.259C106.238 105.192 101.838 106.526 100.771 107.326C99.3046 108.392 99.038 108.392 99.7046 107.192C100.771 105.459 96.1046 103.459 93.9713 104.792C93.1713 105.192 92.238 104.792 91.838 103.726C91.438 102.659 89.5713 101.992 87.1713 102.126C83.0379 102.392 70.238 98.5256 68.7713 96.6589C67.7046 95.0589 59.1713 91.8589 56.3713 91.8589C55.0379 91.9922 53.9713 91.4589 53.9713 90.9256C53.9713 90.2589 51.1713 88.7922 47.7046 87.4589C44.1046 86.1256 40.9046 84.2589 40.2379 83.3256C39.7046 82.3922 38.2379 81.9922 37.0379 82.3922C35.7046 82.9256 35.1713 82.6589 35.7046 81.8589C36.2379 80.9256 34.7713 80.1256 31.9713 79.5922C29.4379 79.0589 27.3046 78.1256 27.3046 77.4589C27.3046 76.6589 26.5046 76.1256 25.4379 76.1256C24.5046 76.1256 23.3046 74.9256 22.9046 73.3256C22.5046 71.7256 21.5713 70.9256 20.6379 71.4589C18.7713 72.6589 14.1046 66.7922 15.0379 64.2589C15.4379 63.0589 15.1713 62.6589 14.2379 63.3256C13.1713 63.9922 12.6379 63.3256 12.6379 61.5922C12.6379 60.2589 11.9713 58.7922 11.0379 58.5256C10.2379 58.2589 9.43795 56.7922 9.30462 55.3256C9.30462 53.9922 8.10462 51.1922 6.90461 49.3256C5.57128 47.4589 4.90461 44.9256 5.43795 43.7256C5.97128 42.1256 5.57128 41.8589 3.57128 42.3923C1.30461 42.9256 1.17128 43.7256 2.10461 47.8589C3.70461 55.4589 6.77128 61.7256 10.3713 65.7256C12.2379 67.7256 13.4379 69.5922 13.1713 69.8589C12.7713 70.1256 15.5713 73.1922 19.4379 76.6589C24.9046 81.4589 26.6379 82.5256 28.1046 81.3256C29.5713 80.1256 29.9713 80.2589 29.9713 81.9922C29.9713 83.1922 31.0379 84.6589 32.3713 85.0589C33.5713 85.5922 35.438 86.7922 36.3713 87.7256C37.3046 88.5256 38.9046 89.0589 39.8379 88.6589C40.7713 88.2589 41.9713 88.9256 42.5046 90.1256C42.9046 91.4589 44.2379 92.1256 45.1713 91.7256C46.2379 91.3256 47.438 91.8589 47.838 92.9256C48.638 95.0589 54.3713 97.7256 59.038 97.9922C60.7713 98.1256 62.638 98.9256 63.1713 99.8589C63.7046 100.659 65.7046 101.592 67.7046 101.726C69.7046 101.859 71.3046 102.526 71.3046 103.192C71.3046 103.726 71.9713 103.859 72.638 103.459C73.438 103.059 73.9713 103.192 73.9713 103.859C73.9713 105.459 87.9713 108.659 90.638 107.592C91.9713 107.192 93.7046 107.459 94.7713 108.259C96.9046 109.992 111.705 110.126 115.038 108.259C116.505 107.459 117.971 107.192 118.371 107.592C118.905 108.259 135.838 103.326 138.638 101.592C139.438 101.192 140.905 100.792 141.971 100.526C143.038 100.392 144.105 99.5922 144.371 98.9256C144.638 98.1256 146.105 97.4589 147.438 97.4589C150.771 97.4589 158.238 93.7256 159.705 91.3256C160.238 90.2589 161.438 89.4589 162.371 89.4589C165.571 89.4589 192.638 70.2589 192.638 68.1256C192.638 67.5922 195.038 64.6589 197.971 61.4589C200.771 58.3922 203.038 55.4589 202.905 54.9256C202.905 54.5256 203.571 52.6589 204.505 51.0589C210.771 39.7256 212.638 20.6589 208.771 7.32558C205.971 -3.07442 189.438 -25.3411 186.238 -23.3411C185.438 -22.9411 184.505 -24.0078 184.105 -25.8744C183.571 -28.0078 182.371 -29.2077 180.505 -29.2077C179.038 -29.2077 177.571 -30.0077 177.171 -31.0744C176.771 -32.0077 175.038 -32.6744 173.305 -32.4077C171.038 -32.2744 169.038 -33.2077 167.171 -35.6077C164.638 -38.8077 164.371 -38.9411 163.171 -36.8077C161.571 -34.1411 159.038 -33.7411 160.105 -36.2744C160.771 -38.2744 155.438 -41.2077 151.171 -41.2077C149.705 -41.2077 148.238 -42.1411 147.705 -43.2077C147.305 -44.4077 145.971 -45.2077 144.771 -45.0744C143.571 -44.9411 141.038 -45.4744 139.171 -46.2744C137.171 -47.0744 133.438 -47.4744 130.771 -47.3411C127.038 -46.9411 125.971 -47.4744 125.971 -49.0744C125.971 -50.2744 125.571 -50.6744 124.905 -49.8744C123.705 -48.1411 114.238 -48.2744 109.971 -50.1411C107.438 -51.2077 106.505 -51.2077 106.238 -49.7411C105.705 -47.3411 102.638 -47.3411 100.238 -49.7411C98.9046 -51.2077 97.038 -51.3411 91.9713 -50.4077C88.3713 -49.7411 85.1713 -49.6077 84.7713 -50.2744C84.3713 -50.8077 82.5046 -51.0744 80.638 -50.8077ZM203.305 46.7922C203.305 47.4589 202.771 48.1256 201.971 48.1256C201.305 48.1256 200.638 47.4589 200.638 46.7922C200.638 45.9922 201.305 45.4589 201.971 45.4589C202.771 45.4589 203.305 45.9922 203.305 46.7922Z" fill="black" fill-opacity="0.15"/>
<path d="M151.438 -12.6751C150.238 -11.3418 150.238 -10.5418 151.305 -9.87512C152.105 -9.34178 152.505 -8.00845 152.371 -6.80845C152.105 -5.07512 152.771 -4.67512 155.571 -4.94178C158.638 -5.34178 159.171 -4.94178 158.371 -3.07512C157.838 -1.47512 157.971 -1.07512 159.038 -1.74178C160.905 -2.80845 163.705 -0.541784 165.038 3.32488C165.971 5.85822 166.105 5.72488 168.238 2.92488C170.238 -0.00845098 170.105 -0.275117 165.171 -4.54178C162.238 -6.94178 159.038 -9.87512 157.838 -10.9418C154.105 -14.2751 153.038 -14.5418 151.438 -12.6751Z" fill="black" fill-opacity="0.15"/>
<path d="M97.1713 -6.27483C96.7713 -5.7415 94.7713 -5.60817 92.638 -6.00816C90.638 -6.5415 83.5713 -5.7415 76.9046 -4.5415C65.3046 -2.27483 65.038 -2.1415 65.038 1.59183C65.038 3.99183 65.838 5.4585 66.9046 5.4585C67.838 5.4585 68.638 4.79183 68.638 4.12517C68.638 3.32517 71.3046 2.79183 74.5046 2.79183C78.1046 2.79183 80.9046 1.99183 82.1046 0.658501C83.038 -0.5415 84.9046 -1.07483 86.3713 -0.674831C87.838 -0.274834 90.1046 -0.5415 91.438 -1.3415C92.9046 -2.00817 94.1046 -2.00817 94.5046 -1.3415C94.9046 -0.674831 96.5046 -0.408165 97.9713 -0.808167C99.438 -1.20817 100.638 -0.808167 100.638 -0.00816727C100.638 2.2585 109.705 5.4585 113.838 4.6585C116.505 4.12517 117.838 4.52517 118.371 5.99183C119.038 7.72517 119.971 7.8585 122.771 6.79183C125.705 5.59183 126.105 5.72517 125.438 7.4585C125.038 8.79183 125.571 9.4585 127.038 9.4585C132.505 9.4585 138.905 12.2585 140.638 15.4585C141.571 17.1918 143.571 19.0585 144.905 19.5918C146.238 19.9918 147.038 20.9252 146.638 21.5918C146.105 22.2585 147.171 22.7918 148.771 22.7918C151.171 22.7918 151.438 23.1918 150.238 24.3918C147.705 26.9252 148.371 29.3252 151.971 31.0585C158.105 33.8585 158.238 30.5252 152.505 22.1252C144.638 10.7918 143.305 9.4585 137.038 6.6585C133.838 5.32517 131.305 3.59183 131.305 2.79183C131.305 1.99183 130.638 1.72517 129.971 2.12517C129.171 2.52517 126.771 1.72517 124.638 0.125166C122.371 -1.47483 118.371 -3.07483 115.705 -3.3415C113.038 -3.7415 110.105 -4.40816 109.438 -5.07483C107.438 -6.67483 97.9713 -7.60817 97.1713 -6.27483Z" fill="black" fill-opacity="0.15"/>
<path d="M59.038 -0.408135C58.5046 -0.00813532 57.1713 0.525198 55.838 0.658532C52.638 1.19186 51.9713 3.59187 54.638 4.65853C55.838 5.05853 56.3713 4.9252 55.9713 4.1252C55.5713 3.3252 55.9713 2.79187 57.1713 2.79187C58.238 2.79187 59.438 1.99186 59.7046 1.05853C60.238 -0.141469 60.5046 -0.141469 60.5046 1.05853C60.638 1.99186 61.5713 2.39187 62.638 1.99186C63.7046 1.45853 64.238 0.658532 63.838 -0.00813532C63.038 -1.34147 60.1046 -1.60814 59.038 -0.408135Z" fill="black" fill-opacity="0.15"/>
<path d="M44.6379 8.39224C42.1046 11.1922 39.3046 15.9922 38.3712 19.1922C36.3712 25.8589 35.1712 40.1256 36.6379 40.1256C37.1712 40.1256 37.7046 41.4589 37.7046 43.0589C37.7046 44.7922 38.3712 47.8589 39.3046 50.1256C40.1046 52.2589 40.7712 54.3922 40.7712 54.7922C40.7712 55.1922 43.0379 57.7256 45.7046 60.5256C51.4379 66.3922 61.5712 72.6589 65.0379 72.5256C66.2379 72.3922 67.3046 73.0589 67.3046 73.8589C67.3046 75.9922 72.6379 76.3922 74.9046 74.5256C77.1712 72.6589 75.8379 70.7922 72.3712 70.7922C70.9046 70.7922 68.9046 69.8589 67.9712 68.6589C67.1712 67.4589 64.7712 66.3922 62.9046 66.3922C60.9046 66.3922 59.3046 65.9922 59.3046 65.3256C59.3046 64.6589 58.6379 64.1256 57.8379 64.1256C56.9046 64.1256 54.9046 62.6589 53.1712 60.7922C51.4379 58.9256 49.7046 57.4589 49.3046 57.4589C47.9712 57.4589 44.5046 53.7256 44.9046 52.5256C45.0379 51.9922 44.1046 49.3256 42.6379 46.7922C40.7712 43.3256 40.1046 39.3256 39.9712 31.1922C39.9712 25.3256 40.3712 20.6589 40.9046 20.9256C41.3046 21.1922 42.1046 19.5922 42.6379 17.1922C43.7046 12.5256 47.0379 7.85891 48.6379 8.79224C50.5046 9.99224 52.5046 6.2589 50.7712 4.79224C49.7046 3.72557 47.9712 4.79224 44.6379 8.39224Z" fill="black" fill-opacity="0.15"/>
<path d="M77.9713 13.4587C77.9713 14.1253 78.638 14.792 79.438 14.792C80.1046 14.792 80.3713 14.1253 79.9713 13.4587C79.5713 12.6587 78.9046 12.1253 78.5046 12.1253C78.238 12.1253 77.9713 12.6587 77.9713 13.4587Z" fill="black" fill-opacity="0.15"/>
<path d="M67.038 16.3917C64.238 17.8583 61.9713 19.5917 61.9713 20.2583C61.9713 21.725 65.038 20.125 69.9713 16.2583C74.1046 12.7917 73.3046 12.925 67.038 16.3917Z" fill="black" fill-opacity="0.15"/>
<path d="M83.7046 14.3923C84.9046 14.659 85.9712 15.859 85.9712 16.9256C85.9712 18.3923 85.1712 18.659 83.4379 18.1256C81.9712 17.7256 79.7046 17.9923 78.3712 18.7923C77.0379 19.459 74.3712 20.659 72.3712 21.459C68.9046 22.659 67.0379 26.7923 69.9712 26.7923C70.7712 26.7923 71.3046 26.259 71.3046 25.7256C71.3046 25.059 74.1046 24.659 77.7046 24.7923C81.1712 24.9256 85.0379 24.3923 86.3712 23.859C87.8379 23.059 88.6379 23.1923 88.6379 24.1256C88.6379 25.059 89.4379 25.1923 91.1712 24.259C92.5046 23.459 93.8379 23.1923 94.1046 23.459C94.5046 23.7256 96.9046 23.459 99.7046 22.9256C102.505 22.259 104.371 22.259 103.838 22.9256C103.438 23.5923 103.705 24.1256 104.505 24.1256C105.171 24.1256 106.238 23.459 106.638 22.659C107.171 21.859 108.505 21.7256 109.838 22.1256C112.238 23.1923 115.171 23.859 117.571 23.9923C118.505 24.1256 118.905 25.059 118.505 26.1256C117.971 27.459 118.505 28.1256 120.505 28.1256C122.105 28.1256 123.305 28.7923 123.305 29.459C123.305 30.259 124.105 30.7923 125.038 30.5257C127.571 29.9923 134.638 37.7257 134.105 40.659C133.971 41.9923 134.505 43.7256 135.571 44.3923C136.905 45.459 136.771 45.459 135.038 44.9256C133.305 44.3923 132.771 44.9256 133.038 46.7923C133.305 48.259 133.838 49.7257 134.238 50.1257C135.705 51.5923 133.571 57.459 131.705 57.459C130.105 57.459 129.838 58.3923 130.505 61.459C130.905 63.859 130.638 65.459 129.838 65.459C129.038 65.459 128.905 64.659 129.438 63.7257C130.105 62.659 129.705 62.659 128.238 63.9923C127.038 64.9257 125.971 65.3257 125.971 64.7923C125.971 64.259 124.371 64.9257 122.371 66.1257C120.105 67.7257 118.638 67.9923 118.238 67.059C117.971 66.1257 116.771 65.9923 114.505 66.7923C112.371 67.7257 111.305 67.5923 111.305 66.659C111.305 65.7257 109.838 65.459 107.971 65.859C105.571 66.259 103.971 65.5923 102.638 63.5923C101.571 62.1257 100.638 61.5923 100.638 62.3923C100.638 64.5257 96.1046 65.3257 94.3712 63.459C93.4379 62.5257 93.1712 61.459 93.4379 61.059C93.8379 60.659 91.8379 60.659 88.7712 61.059C85.0379 61.5923 82.9046 61.1923 81.4379 59.7257C80.2379 58.659 78.1046 57.9923 76.6379 58.3923C75.1712 58.7923 73.9712 58.3923 73.9712 57.5923C73.9712 56.7923 72.7712 56.1257 71.3046 56.1257C69.8379 56.1257 68.6379 55.459 68.6379 54.659C68.6379 53.5923 67.8379 53.7257 66.3712 54.9256C64.3712 56.5257 64.2379 56.5257 65.0379 54.3923C65.8379 52.1257 64.2379 51.459 59.7046 51.9923C58.7712 52.1257 57.9712 51.3256 57.9712 50.1257C57.9712 49.059 57.4379 48.1257 56.6379 48.1257C55.9712 48.1257 55.3046 48.659 55.3046 49.3256C55.3046 51.3256 61.0379 57.3257 63.3046 57.7257C64.3712 57.9923 65.5712 58.3923 65.9712 58.7923C68.3712 61.1923 75.4379 63.9923 77.1712 63.3257C78.3712 62.9257 79.3046 63.059 79.3046 63.859C79.3046 65.1923 87.7046 67.459 91.3046 67.1923C92.3712 67.059 93.7046 67.7257 94.3712 68.7923C94.9046 69.9923 97.1712 70.3923 100.638 70.259C103.571 69.9923 105.971 70.259 105.971 70.659C105.971 71.1923 110.638 71.459 116.371 71.459C129.305 71.3257 132.905 69.1923 136.505 59.5923C140.905 47.7256 140.771 38.259 135.971 32.659C134.105 30.5257 132.638 28.3923 132.638 27.7256C132.638 27.1923 131.705 26.7923 130.638 26.7923C129.571 26.7923 128.638 26.259 128.638 25.5923C128.638 23.9923 122.505 20.1256 118.905 19.459C117.438 19.059 115.838 18.3923 115.438 17.7256C113.838 15.459 109.305 14.659 95.4379 14.1256C87.7046 13.859 82.3712 13.9923 83.7046 14.3923ZM95.8379 16.7923C96.2379 17.859 95.9712 18.7923 95.3046 18.7923C94.5046 18.7923 93.9712 17.859 93.9712 16.7923C93.9712 15.7256 94.2379 14.7923 94.5046 14.7923C94.7712 14.7923 95.3046 15.7256 95.8379 16.7923Z" fill="black" fill-opacity="0.15"/>
<path d="M56.1046 27.3257C53.5713 32.659 53.438 33.459 55.3046 33.459C56.1046 33.459 56.638 32.1257 56.638 30.5257C56.638 28.9257 57.5713 26.5257 58.9046 25.1923C60.1046 23.859 60.3713 22.7923 59.7046 22.7923C58.9046 22.7923 57.3046 24.7923 56.1046 27.3257Z" fill="black" fill-opacity="0.15"/>
<path d="M82.2379 35.1917C78.6379 38.925 78.1046 47.725 81.4379 49.0584C84.6379 50.2584 86.9046 47.325 85.0379 44.2584C84.1046 42.925 83.8379 41.325 84.2379 40.925C85.5713 39.5917 89.7046 39.9917 90.2379 41.5917C90.5046 42.3917 93.0379 43.325 95.9713 43.5917C103.305 44.2584 105.971 48.7917 99.9713 50.2584C98.1046 50.6584 96.6379 51.4584 96.6379 51.9917C96.6379 53.0584 86.9046 52.7917 84.9046 51.5917C83.9713 51.0584 83.3046 51.1917 83.3046 51.8584C83.3046 55.725 101.038 57.0584 105.171 53.5917C106.371 52.525 107.305 50.125 107.305 48.2584C107.305 44.125 100.905 36.2584 98.3713 37.0584C97.4379 37.4584 96.6379 37.1917 96.6379 36.3917C96.6379 35.4584 88.2379 32.125 85.7046 32.125C85.4379 32.125 83.8379 33.4584 82.2379 35.1917Z" fill="black" fill-opacity="0.15"/>
<path d="M155.305 34.1256C153.705 36.1256 153.705 36.5256 155.705 37.5922C156.905 38.3922 157.971 39.8589 157.971 40.7922C157.971 41.8589 158.638 42.7922 159.438 42.7922C160.505 42.7922 160.505 43.3256 159.438 44.6589C158.638 45.5922 157.705 48.9256 157.438 51.9922C157.171 55.1922 156.638 57.8589 156.371 57.9922C156.238 58.1256 154.371 59.3256 152.371 60.5256C150.105 61.9922 149.038 63.5922 149.438 64.7922C150.105 66.2589 149.305 66.7922 146.905 66.7922C145.038 66.7922 142.905 67.5922 142.371 68.3922C140.505 71.3256 132.638 74.9256 130.105 74.1256C128.638 73.7256 127.171 73.9922 126.638 74.7922C126.238 75.4589 124.638 76.1256 123.171 76.1256C121.838 76.1256 120.638 76.6589 120.638 77.3256C120.638 79.0589 104.105 78.7922 103.038 76.9256C102.371 75.9922 101.971 76.2589 101.971 77.7256C101.971 80.6589 102.105 80.6589 96.5047 77.8589C93.9713 76.5256 90.638 75.7256 89.038 75.9922C87.3047 76.1256 85.9713 75.5922 85.9713 74.7922C85.9713 73.9922 84.638 72.9256 83.038 72.2589C79.1713 70.7922 73.5713 75.5922 76.7713 77.5922C79.3047 79.1922 81.038 79.0589 79.9713 77.4589C79.5713 76.6589 79.838 76.1256 80.5047 76.1256C81.3047 76.1256 81.9713 77.0589 81.9713 78.2589C81.9713 79.5922 82.7713 80.1256 83.838 79.7256C84.7713 79.3256 86.238 79.5922 86.9047 80.2589C87.5713 80.9256 92.238 81.7256 97.3047 82.2589C102.505 82.6589 106.905 83.1922 107.305 83.1922C109.171 83.5922 123.571 81.0589 129.971 79.1922C138.771 76.6589 147.305 72.5256 147.305 70.7922C147.305 69.9922 148.105 69.4589 149.171 69.4589C151.038 69.4589 159.171 61.0589 159.438 58.7922C159.705 57.3256 159.705 57.3256 161.171 51.7256C162.505 47.3256 161.171 37.3256 158.905 34.1256C157.305 31.9922 157.038 31.9922 155.305 34.1256Z" fill="black" fill-opacity="0.15"/>
<path d="M52.6379 42.125C52.6379 43.1917 53.1713 44.125 53.9713 44.125C54.6379 44.125 54.9046 43.1917 54.5046 42.125C53.9713 41.0583 53.4379 40.125 53.1713 40.125C52.9046 40.125 52.6379 41.0583 52.6379 42.125Z" fill="black" fill-opacity="0.15"/>
</svg>
