<svg width="169" height="107" viewBox="0 0 169 107" fill="none" xmlns="http://www.w3.org/2000/svg">
<path opacity="0.15" d="M195.518 -6.88863C195.424 -6.79528 190.103 -6.51523 183.662 -6.23517C172.273 -5.7684 159.763 -4.55482 147.067 -2.78111C143.613 -2.22099 138.759 -1.84759 136.145 -1.84759C133.625 -1.84759 131.291 -1.47417 131.011 -1.10076C130.731 -0.633995 133.158 -0.540642 136.332 -0.727348C145.574 -1.38082 142.12 -0.260582 128.677 1.88653C121.769 2.91341 115.794 4.03365 115.421 4.31371C114.954 4.50041 110.1 5.714 104.592 6.92758C99.0841 8.14117 88.6286 10.9418 81.4404 13.0889C74.2523 15.236 65.6638 17.7565 62.3031 18.69C51.0074 21.864 19.4542 31.4794 15.3466 32.973C13.6663 33.5331 13.0128 34.1866 13.6663 34.8401C14.5065 35.6803 18.9874 34.6534 23.5617 32.693C26.549 31.386 49.047 25.3181 56.7019 23.8244C60.5294 23.0776 71.0783 20.7438 80.0401 18.69C89.002 16.6363 99.3642 14.3025 102.912 13.4623C106.552 12.7155 111.967 11.4085 115.047 10.6617C118.128 9.82152 122.516 8.88799 124.849 8.42123C128.957 7.76776 138.666 5.80735 168.725 -0.447289C177.22 -2.22099 187.583 -3.71464 191.877 -3.90134C199.438 -4.1814 201.866 -3.34123 197.011 -2.22099C195.518 -1.84759 194.024 -1.28747 193.464 -0.914055C192.997 -0.633995 189.823 0.392883 186.462 1.32642C183.102 2.25994 179.741 3.38017 178.901 3.75359C178.061 4.22035 175.727 4.87382 173.766 5.24723C171.713 5.52729 168.912 6.36746 167.325 7.02094C165.831 7.67441 161.444 8.98135 157.71 9.82152C153.976 10.7551 150.708 11.7819 150.428 12.2487C150.148 12.7155 149.028 13.0889 147.908 13.0889C146.787 13.0889 142.96 14.2091 139.319 15.4227C132.318 17.9432 130.451 18.2233 130.451 16.9163C130.451 16.4496 132.038 15.7028 133.998 15.1426C140.813 13.1822 144.64 11.5019 146.601 9.35476L148.654 7.30099L141.186 7.86111C132.411 8.60793 111.593 13.8357 80.9737 23.0776C75.0924 24.8513 68.5577 26.7184 66.504 27.2785C57.9155 29.519 22.4414 41.7482 17.4937 44.1754C15.8134 45.1089 14.0397 45.7624 13.5729 45.7624C11.4258 45.7624 -4.91094 54.5375 -4.91094 55.6578C-4.91094 57.9916 -3.04388 57.9916 4.7044 55.5644C8.99863 54.2575 12.9195 53.2306 13.4796 53.2306C14.133 53.2306 15.5333 52.8572 16.7469 52.3904C19.1741 51.4569 18.8007 51.5502 24.6819 50.0566C27.2024 49.4031 30.1897 48.5629 31.4033 48.0962C32.8036 47.7228 33.3637 47.8161 32.9903 48.3762C32.7103 48.843 31.31 49.5898 30.003 49.8699C28.6961 50.2433 25.8021 51.2702 23.655 52.2037C21.6013 53.1372 17.307 54.8176 14.2264 55.9378C11.1457 57.0581 7.97175 58.4583 7.22493 58.9251C6.47811 59.3919 5.17117 60.0453 4.42435 60.3254C3.67752 60.6055 2.18388 61.2589 1.157 61.7257C0.0367622 62.2858 -1.45688 62.7526 -2.29706 62.9393C-3.23059 63.0326 -4.63088 63.7795 -5.56441 64.5263C-6.49794 65.2731 -8.83176 66.6734 -10.7922 67.5136C-12.7526 68.4471 -14.2462 69.6607 -13.9662 70.3142C-13.3127 72.2746 -6.40458 72.1812 -1.83029 70.0341C0.503527 68.9139 3.21076 68.167 4.14429 68.3537C5.26452 68.5404 3.95758 69.5673 0.503527 71.2477C-3.51064 73.1147 -4.91094 74.235 -4.91094 75.6353C-4.91094 77.409 -4.44417 77.5957 0.503527 77.2223C3.39746 76.9422 7.50499 76.102 9.4654 75.2619C11.5192 74.4217 13.2929 73.9549 13.4796 74.1416C13.7596 74.4217 15.8134 73.7682 18.0539 72.7413C20.3877 71.8078 24.5886 70.3142 27.5758 69.5673C30.4698 68.7272 34.2039 67.7003 35.6975 67.2335C37.2845 66.7667 42.3256 65.3665 46.8999 64.0595C51.5675 62.7526 56.7953 61.2589 58.569 60.6988C60.3427 60.1387 66.6907 58.6451 72.5719 57.3381C78.4531 56.0312 84.1477 54.7242 85.1745 54.4442C86.2014 54.1641 92.2694 52.9505 98.7107 51.7369C105.152 50.5234 111.033 49.2164 111.78 48.9364C114.674 47.9095 135.398 43.8953 135.865 44.3621C136.145 44.6421 136.145 44.9222 135.958 45.1089C135.398 45.5757 103.192 56.1245 101.511 56.4046C100.764 56.4979 98.524 57.3381 96.6569 58.1783C94.6965 58.9251 91.9893 59.8586 90.4957 60.0453C89.002 60.3254 87.0416 60.8855 86.0147 61.4456C84.0543 62.3792 79.1066 64.1529 74.9057 65.3665C71.4517 66.3933 52.5011 73.0214 45.9664 75.6353C44.9395 76.0087 39.7117 77.689 34.2973 79.3694C28.8828 81.1431 22.8149 83.1968 20.7611 84.1304C18.7073 84.9705 14.6932 86.3708 11.8926 87.211C4.61105 89.4515 -1.55024 92.8122 -1.92365 94.6792C-2.20371 96.1729 -1.83029 96.2662 1.71711 95.7061C3.86423 95.3327 7.13158 94.2125 8.81193 93.2789C10.4923 92.3454 12.1726 91.5052 12.6394 91.5052C14.3197 91.3185 18.0539 90.2917 18.894 89.6382C19.4542 89.2648 21.3212 88.6113 23.0949 88.2379C24.8686 87.8645 26.829 87.211 27.2958 86.931C28.2293 86.2775 35.7909 83.757 37.5646 83.4769C38.1247 83.4769 39.1516 83.1035 39.8984 82.8234C40.6452 82.5434 44.286 81.3298 47.8334 80.3029C51.4742 79.1827 56.982 77.5023 60.2493 76.4754C63.4233 75.5419 66.784 74.7017 67.7176 74.7017C68.6511 74.7017 69.8647 74.235 70.4248 73.6749C70.9849 73.1147 72.0118 72.8347 72.7586 73.1147C73.4121 73.3014 72.3852 74.235 70.2381 75.1685C68.1843 76.102 65.0103 77.5957 63.1433 78.5292C61.2762 79.5561 58.849 80.3029 57.8222 80.3029C56.7019 80.3029 55.5817 80.6763 55.3016 81.2364C55.0216 81.7032 53.9947 82.17 53.1545 82.17C50.9141 82.17 39.1516 88.0512 38.5915 89.3581C38.3114 90.0116 38.3114 91.1318 38.5915 91.8787C39.245 93.4657 45.4996 93.3723 52.0343 91.5986C70.0514 86.8376 81.4404 84.037 82.9341 84.037C83.961 84.037 85.548 83.6636 86.3881 83.1968C87.2283 82.7301 89.2821 82.17 90.7757 81.8899C92.3627 81.6098 95.0699 80.9564 96.8436 80.3963C98.6173 79.9295 101.605 79.276 103.378 78.996C105.152 78.8093 106.832 78.5292 107.112 78.4358C107.393 78.3425 108.046 78.1558 108.513 78.0624C109.073 77.9691 111.22 77.5957 113.46 77.1289C117.661 76.3821 118.501 76.1954 127.557 75.1685C134.558 74.3283 134.745 75.6353 127.93 77.5023C123.076 78.8093 112.247 82.7301 109.726 84.1304C108.793 84.5971 107.206 84.9705 106.272 84.9705C105.245 84.9705 104.219 85.344 103.938 85.7174C103.658 86.1841 100.298 87.6778 96.4702 89.1714C92.5494 90.6651 89.3754 92.2521 89.3754 92.6255C89.3754 92.9989 88.5352 93.3723 87.415 93.3723C84.9878 93.3723 77.613 99.3469 76.9595 101.774C75.2791 108.215 89.9355 107.935 127.65 100.841C143.52 97.9466 146.787 97.1064 147.067 96.2662C147.254 95.7995 148.188 95.6128 149.121 95.8928C150.241 96.1729 150.988 95.8928 150.988 95.2394C150.988 94.5859 151.642 94.3058 152.389 94.6792C153.135 94.9593 153.789 94.7726 153.789 94.3058C153.789 93.0922 152.202 93.0922 148.188 94.3058C143.987 95.6128 136.519 97.1998 132.318 97.6665C130.544 97.9466 125.316 98.7868 120.649 99.6269C108.513 101.681 107.953 101.774 104.312 102.241C93.763 103.361 83.8676 103.641 81.4404 102.894L78.6398 102.054L83.7742 98.8801C86.5748 97.1064 90.4023 94.9593 92.176 94.1191C97.0303 91.7853 104.219 88.7047 104.685 88.7047C104.872 88.7047 106.646 88.0512 108.606 87.1177C112.527 85.4373 129.05 79.5561 131.478 78.996C134.838 78.1558 142.12 74.1416 141.84 73.3014C141.373 71.341 118.501 72.928 106.179 75.822C103.845 76.3821 100.951 76.9422 99.8309 77.0356C97.0303 77.409 91.5225 78.7159 72.5719 83.2902C64.0768 85.344 56.3285 87.1177 55.3016 87.3044C54.2748 87.3977 52.221 88.0512 50.8207 88.6113C49.3271 89.1714 47.3666 89.6382 46.3398 89.6382C42.8857 89.6382 45.4062 88.0512 51.2875 86.3708C54.5548 85.5307 57.3554 84.5038 57.6355 84.1304C58.1956 83.4769 66.4106 79.8361 73.9722 76.9422C74.9991 76.5688 76.026 76.1954 76.306 76.1954C76.8661 76.0087 88.1618 71.9945 90.7757 70.9676C91.8026 70.5942 94.3231 69.5673 96.3769 68.7272C100.951 66.9534 120.835 60.1387 127.183 58.2716C129.797 57.5248 136.052 55.5644 141.186 54.0708C152.855 50.5234 154.722 49.7765 154.722 48.4696C154.722 47.0693 148.748 48.1895 138.852 51.3635C122.422 56.6846 115.608 58.7384 103.378 62.0057C96.4702 63.9662 89.2821 65.9266 87.415 66.4867C85.548 66.9534 83.3075 67.2335 82.2806 67.0468C81.3471 66.8601 84.241 65.5532 88.9087 64.0595C93.5763 62.6592 99.4575 60.6055 102.165 59.5786C104.872 58.5517 109.073 57.1514 111.5 56.4979C113.927 55.8445 119.528 53.9774 123.916 52.4838C128.304 50.8968 138.199 47.7228 145.854 45.2956C153.602 42.9618 160.417 40.8147 161.07 40.628C162.377 40.1612 163.591 37.5473 162.844 36.8005C162.564 36.5204 160.79 36.7071 158.83 37.2673C156.776 37.734 153.322 38.3875 150.988 38.6675C146.041 39.2277 126.25 42.6817 124.103 43.3352C123.169 43.6152 121.022 44.082 119.248 44.3621C117.475 44.6421 114.767 45.2956 113.18 45.7624C111.687 46.2291 108.886 46.6959 107.112 46.8826C105.339 46.9759 103.472 47.3494 102.912 47.6294C102.445 48.0028 99.2708 48.7497 95.9101 49.4031C86.3881 51.0835 72.3852 54.1641 69.7713 55.0976C68.4644 55.5644 66.2239 56.1245 64.6369 56.4046C63.1433 56.5913 58.6623 57.7115 54.8349 58.7384C51.0074 59.8586 45.9664 61.1656 43.6325 61.7257C41.2987 62.2858 38.7782 63.0326 38.0314 63.406C37.1912 63.8728 35.1374 64.5263 33.3637 64.8063C31.59 65.1797 29.2562 65.8332 28.2293 66.2066C27.2024 66.6734 24.4952 67.5136 22.1614 68.167C19.8276 68.8205 14.8799 70.4075 11.1457 71.6211C3.30411 74.1416 1.43705 74.3283 4.05093 72.3679C4.98446 71.6211 6.66481 70.9676 7.59834 70.9676C8.62522 70.9676 10.1189 70.3142 10.959 69.5673C11.7992 68.8205 13.2929 68.0737 14.3197 67.887C16.4669 67.4202 19.7342 66.1133 25.1487 63.4994C27.2958 62.4725 29.4429 61.6323 29.9097 61.6323C30.2831 61.6323 32.897 60.6055 35.6975 59.3919C38.4048 58.0849 43.1658 56.4046 46.1531 55.4711C49.1404 54.6309 52.0343 53.604 52.5011 53.1372C53.0612 52.7638 57.4488 51.0835 62.3031 49.4965C67.1574 47.9095 72.2919 46.0424 73.6921 45.2956C74.9991 44.5488 76.7728 43.8953 77.613 43.8953C78.4531 43.8953 79.8534 43.5219 80.787 43.0551C83.7743 41.5615 90.4023 38.9476 91.7092 38.7609C93.763 38.4808 101.138 36.0537 102.071 35.3068C103.285 34.3733 128.117 26.4383 131.664 25.7849C132.318 25.6915 136.145 24.4779 140.253 23.171C144.36 21.7707 149.961 20.1837 152.762 19.5302C157.243 18.41 159.577 16.6363 158.176 15.3293C157.523 14.6759 150.241 16.5429 140.253 19.8103C135.678 21.3973 130.637 22.7976 129.05 23.0776C127.557 23.3577 125.223 24.1045 123.916 24.758C122.609 25.4114 120.089 26.2516 118.315 26.625C116.541 26.9051 113.367 27.8386 111.313 28.4921C109.26 29.1456 104.405 30.6392 100.578 31.7594C87.0416 35.5869 69.2112 41.2814 59.3158 44.9222C53.808 46.8826 48.8603 48.5629 48.3002 48.5629C47.7401 48.5629 46.6198 48.9364 45.6863 49.4031C44.8461 49.8699 41.5788 50.9901 38.4981 51.9236C35.4175 52.8572 32.5235 53.9774 32.0568 54.3508C31.4967 54.7242 30.2831 55.0976 29.1628 55.0976C28.0426 55.0976 26.6423 55.6578 25.9888 56.2179C24.962 57.2448 24.7753 57.1514 25.1487 56.1245C25.3354 55.3777 28.416 53.7907 32.0568 52.5771C35.6042 51.4569 39.245 50.0566 40.0851 49.4965C41.0187 49.0297 42.5123 48.5629 43.4458 48.5629C44.3794 48.5629 45.4996 48.1895 45.9664 47.7228C46.5265 47.3494 49.2337 46.2291 52.0343 45.2956C57.8222 43.4285 61.0895 42.215 63.4233 41.0014C64.3569 40.5346 65.6638 40.1612 66.3173 40.1612C66.9707 40.1612 69.3046 39.321 71.4517 38.2941C74.9057 36.6138 82.1872 34.3733 104.312 28.3054C110.847 26.5317 120.555 23.7311 129.517 20.9305C133.345 19.8103 139.039 18.1299 142.12 17.2897C145.2 16.3562 151.735 14.3958 156.589 12.9022C161.444 11.4085 166.765 9.82152 168.259 9.35476C176.94 6.92758 193.837 1.60647 196.264 0.486237C197.851 -0.167236 200.092 -1.00741 201.399 -1.38082C203.919 -2.12764 207 -4.46146 207 -5.67505C207 -6.23517 196.078 -7.3554 195.518 -6.88863ZM153.789 0.85965C153.789 1.51311 148.654 2.63335 137.452 4.31371C135.958 4.59377 133.438 5.15388 131.851 5.62064C130.357 5.99406 127.557 6.64752 125.783 6.92758C119.622 7.95446 106.179 11.0351 87.9751 15.516C73.132 19.1568 71.6384 17.9432 86.1081 14.0224C90.2156 12.9022 95.0699 11.5952 96.8436 11.1285C101.885 9.63481 111.687 7.39435 117.381 6.46082C120.182 5.99406 128.584 4.40706 136.052 2.91341C150.895 -0.0738831 153.789 -0.353935 153.789 0.85965ZM132.318 12.6221C131.664 13.3689 129.424 14.4892 127.277 15.1426C125.223 15.7028 123.076 16.5429 122.516 16.823C122.049 17.1964 119.902 18.0366 117.848 18.5967C115.794 19.2502 113.274 20.0903 112.247 20.4637C102.258 24.4779 73.0387 34.3733 63.7034 36.9872C53.808 39.6944 45.2195 41.9349 36.6311 44.1754C32.0568 45.389 24.3085 47.5361 19.5475 48.9364C10.3989 51.6436 6.66481 51.8303 11.7992 49.2164C13.5729 48.3762 15.44 47.6294 16.0001 47.6294C16.5602 47.6294 19.1741 46.6025 21.6946 45.2956C24.3085 44.082 27.2958 42.9618 28.416 42.9618C29.5363 42.9618 30.5631 42.6817 30.7498 42.215C31.0299 41.4681 61.2762 31.1993 65.1037 30.4525C66.4106 30.2658 69.1179 29.4256 71.1716 28.6788C76.5861 26.7184 90.3089 22.7042 94.9766 21.7707C96.2835 21.584 98.1506 21.0239 99.1775 20.5571C101.511 19.5302 109.26 17.3831 110.006 17.5698C110.38 17.6632 112.9 16.823 115.608 15.8895C118.408 14.8626 121.675 14.0224 122.982 14.0224C124.289 14.0224 125.783 13.649 126.343 13.1822C127.09 12.4354 128.677 11.9686 132.691 11.3152C133.158 11.3152 132.971 11.8753 132.318 12.6221ZM127.65 18.69C127.65 19.1568 127.277 19.6236 126.717 19.6236C126.25 19.6236 125.783 19.1568 125.783 18.69C125.783 18.1299 126.25 17.7565 126.717 17.7565C127.277 17.7565 127.65 18.1299 127.65 18.69ZM139.319 43.8953C139.039 44.3621 138.292 44.8288 137.826 44.8288C137.265 44.8288 137.172 44.3621 137.452 43.8953C137.732 43.3352 138.479 42.9618 138.946 42.9618C139.506 42.9618 139.599 43.3352 139.319 43.8953ZM37.0978 47.6294C35.2308 48.843 34.0172 48.843 34.764 47.6294C35.0441 47.0693 36.071 46.6959 36.9111 46.6959C38.3114 46.6959 38.3114 46.8826 37.0978 47.6294ZM22.6281 57.2448C21.6013 57.8982 17.2137 59.8586 12.8261 61.539C1.53041 66.0199 1.90382 65.8332 3.30411 64.3396C3.95758 63.5927 8.34516 61.539 13.1062 59.5786C22.1614 56.0312 25.8021 55.0976 22.6281 57.2448ZM34.2973 56.9647C33.5504 57.4315 32.5235 57.8982 31.9634 57.8982C31.4967 57.8982 31.6834 57.4315 32.4302 56.9647C33.177 56.4979 34.2973 56.0312 34.764 56.0312C35.3241 56.0312 35.0441 56.4979 34.2973 56.9647ZM12.8261 65.3665C12.8261 65.8332 12.4527 66.3 11.8926 66.3C11.4258 66.3 10.959 65.8332 10.959 65.3665C10.959 64.8063 11.4258 64.4329 11.8926 64.4329C12.4527 64.4329 12.8261 64.8063 12.8261 65.3665ZM9.09199 66.7667C8.43852 67.5136 7.41164 68.167 6.85152 68.167C6.2914 68.167 6.66481 67.5136 7.59834 66.7667C9.93216 64.993 10.5856 64.993 9.09199 66.7667ZM80.0401 67.6069C80.0401 67.887 79.6667 68.3537 79.1066 68.6338C78.6398 68.9139 78.1731 68.7272 78.1731 68.2604C78.1731 67.7003 78.6398 67.2335 79.1066 67.2335C79.6667 67.2335 80.0401 67.4202 80.0401 67.6069ZM76.306 69.1006C76.306 69.5673 75.6526 70.0341 74.8124 70.0341C74.0656 70.0341 73.6921 69.5673 73.9722 69.1006C74.2523 68.5404 74.9057 68.167 75.4659 68.167C75.9326 68.167 76.306 68.5404 76.306 69.1006ZM67.9043 71.9011C66.1306 73.1147 65.1037 73.1147 65.1037 71.9011C65.1037 71.341 66.0372 70.9676 67.2508 70.9676C68.9312 70.9676 69.0245 71.1543 67.9043 71.9011Z" fill="#121313"/>
</svg>
