<svg width="16" height="16" viewBox="0 0 16 16" fill="none" xmlns="http://www.w3.org/2000/svg">
<path d="M7.99998 14.6673C4.31808 14.6673 1.33331 11.6825 1.33331 8.00065C1.33331 4.31875 4.31808 1.33398 7.99998 1.33398C11.6818 1.33398 14.6666 4.31875 14.6666 8.00065C14.6666 11.6825 11.6818 14.6673 7.99998 14.6673ZM7.99998 13.334C10.9455 13.334 13.3333 10.9462 13.3333 8.00065C13.3333 5.05513 10.9455 2.66732 7.99998 2.66732C5.05446 2.66732 2.66665 5.05513 2.66665 8.00065C2.66665 10.9462 5.05446 13.334 7.99998 13.334ZM8.66665 8.00065H11.3333V9.33398H7.33331V4.66732H8.66665V8.00065Z" fill="#676563"/>
</svg>
