<svg width="16" height="16" viewBox="0 0 16 16" fill="none" xmlns="http://www.w3.org/2000/svg">
<path d="M7.99998 14.6673C4.31808 14.6673 1.33331 11.6825 1.33331 8.00065C1.33331 4.31875 4.31808 1.33398 7.99998 1.33398C11.6818 1.33398 14.6666 4.31875 14.6666 8.00065C14.6666 11.6825 11.6818 14.6673 7.99998 14.6673ZM6.47333 13.1123C5.8316 11.7513 5.43819 10.2501 5.35152 8.66732H2.70791C2.97198 10.785 4.47757 12.5171 6.47333 13.1123ZM6.68711 8.66732C6.78738 10.2932 7.25185 11.8205 7.99998 13.1687C8.74811 11.8205 9.21258 10.2932 9.31285 8.66732H6.68711ZM13.292 8.66732H10.6484C10.5618 10.2501 10.1684 11.7513 9.52665 13.1123C11.5224 12.5171 13.028 10.785 13.292 8.66732ZM2.70791 7.33398H5.35152C5.43819 5.75116 5.8316 4.25003 6.47333 2.88902C4.47757 3.4842 2.97198 5.21632 2.70791 7.33398ZM6.68711 7.33398H9.31285C9.21258 5.70813 8.74811 4.18082 7.99998 2.83264C7.25185 4.18082 6.78738 5.70813 6.68711 7.33398ZM9.52665 2.88902C10.1684 4.25003 10.5618 5.75116 10.6484 7.33398H13.292C13.028 5.21632 11.5224 3.4842 9.52665 2.88902Z" fill="#676563"/>
</svg>
