<svg width="16" height="16" viewBox="0 0 16 16" fill="none" xmlns="http://www.w3.org/2000/svg">
<path d="M12 5.33268H13.3333C13.7015 5.33268 14 5.63116 14 5.99935V13.9993C14 14.3675 13.7015 14.666 13.3333 14.666H2.66667C2.29848 14.666 2 14.3675 2 13.9993V5.99935C2 5.63116 2.29848 5.33268 2.66667 5.33268H4V4.66602C4 2.45688 5.79086 0.666016 8 0.666016C10.2091 0.666016 12 2.45688 12 4.66602V5.33268ZM3.33333 6.66602V13.3327H12.6667V6.66602H3.33333ZM7.33333 9.33268H8.66667V10.666H7.33333V9.33268ZM4.66667 9.33268H6V10.666H4.66667V9.33268ZM10 9.33268H11.3333V10.666H10V9.33268ZM10.6667 5.33268V4.66602C10.6667 3.19326 9.47273 1.99935 8 1.99935C6.52724 1.99935 5.33333 3.19326 5.33333 4.66602V5.33268H10.6667Z" fill="#676563"/>
</svg>
