<svg width="16" height="16" viewBox="0 0 16 16" fill="none" xmlns="http://www.w3.org/2000/svg">
<path d="M2 3.33006C2 2.59549 2.59508 2 3.33006 2H12.6699C13.4045 2 14 2.59508 14 3.33006V12.6699C14 13.4045 13.4049 14 12.6699 14H3.33006C2.59549 14 2 13.4049 2 12.6699V3.33006ZM3.33333 3.33333V12.6667H12.6667V3.33333H3.33333ZM5.31477 12.1205C4.90231 11.9419 4.51146 11.7229 4.14722 11.4683C4.97849 10.1835 6.42401 9.33333 8.06813 9.33333C9.66767 9.33333 11.0793 10.1381 11.9201 11.3648C11.5625 11.6291 11.1776 11.8585 10.7703 12.0479C10.1648 11.2111 9.18 10.6667 8.06813 10.6667C6.92433 10.6667 5.91514 11.2427 5.31477 12.1205ZM8 8.66667C6.71133 8.66667 5.66667 7.622 5.66667 6.33333C5.66667 5.04467 6.71133 4 8 4C9.28867 4 10.3333 5.04467 10.3333 6.33333C10.3333 7.622 9.28867 8.66667 8 8.66667ZM8 7.33333C8.55227 7.33333 9 6.8856 9 6.33333C9 5.78105 8.55227 5.33333 8 5.33333C7.44773 5.33333 7 5.78105 7 6.33333C7 6.8856 7.44773 7.33333 8 7.33333Z" fill="#676563"/>
</svg>
