<svg width="16" height="16" viewBox="0 0 16 16" fill="none" xmlns="http://www.w3.org/2000/svg">
<path d="M2.66665 8.00065C2.66665 6.56489 3.23399 5.26164 4.15671 4.30284C4.23791 4.37696 4.30829 4.47092 4.36084 4.58902C4.49684 4.89418 4.49684 5.20812 4.49684 5.48574C4.49657 5.70464 4.49631 5.91222 4.56659 6.06266C4.66293 6.26821 5.07758 6.3555 5.44363 6.43222L5.45675 6.43498C5.5834 6.46164 5.71339 6.48901 5.83196 6.52182C6.16935 6.61554 6.43034 6.91832 6.63957 7.16145C6.72638 7.26272 6.85458 7.41152 6.91885 7.44845C6.95238 7.42438 7.05998 7.30785 7.11325 7.11632C7.15378 6.97045 7.14225 6.84045 7.08258 6.77018C6.70985 6.33028 6.73011 5.48278 6.84531 5.17062C7.02678 4.67802 7.59365 4.71437 8.00798 4.7413L8.01185 4.74155C8.16491 4.7514 8.30931 4.76069 8.41711 4.74716C8.73131 4.70773 8.88078 4.33649 8.97405 4.10486C9.00391 4.03058 9.02805 3.97066 9.04998 3.94065C9.22651 3.69882 9.73245 3.34607 10.1012 3.0972C11.4827 3.68997 12.5634 4.84948 13.0508 6.28321C13.6196 6.4766 14.1454 6.76345 14.6097 7.12538C14.1811 3.85712 11.3852 1.33398 7.99998 1.33398C4.31808 1.33398 1.33331 4.31875 1.33331 8.00065C1.33331 11.3859 3.85645 14.1818 7.12471 14.6104C6.76278 14.1461 6.47593 13.6203 6.28254 13.0515C4.17963 12.3366 2.66665 10.3453 2.66665 8.00065ZM11.3333 8.66732C9.86058 8.66732 8.66665 9.86125 8.66665 11.334C8.66665 12.8067 9.86058 14.0007 11.3333 14.0007C12.806 14.0007 14 12.8067 14 11.334C14 9.86125 12.806 8.66732 11.3333 8.66732ZM7.33331 11.334C7.33331 9.12485 9.12418 7.33398 11.3333 7.33398C13.5424 7.33398 15.3333 9.12485 15.3333 11.334C15.3333 13.5431 13.5424 15.334 11.3333 15.334C9.12418 15.334 7.33331 13.5431 7.33331 11.334ZM10.6666 9.33398V12.0007H13.3333V10.6673H12V9.33398H10.6666Z" fill="#676563"/>
</svg>
