<svg width="29" height="28" viewBox="0 0 29 28" fill="none" xmlns="http://www.w3.org/2000/svg">
<path d="M11.1834 24.234V20.6561C11.1834 19.7461 11.9253 19.0066 12.8445 19.0005H16.2116C17.1352 19.0005 17.8839 19.7417 17.8839 20.6561V20.6561V24.2451C17.8837 25.0177 18.5067 25.6492 19.2869 25.6673H21.5316C23.7693 25.6673 25.5834 23.8714 25.5834 21.6561V21.6561V11.4781C25.5714 10.6066 25.1581 9.78823 24.461 9.25586L16.784 3.1335C15.4391 2.06748 13.5273 2.06748 12.1823 3.1335L4.53905 9.26697C3.83932 9.79718 3.4253 10.6169 3.41669 11.4892V21.6561C3.41669 23.8714 5.23071 25.6673 7.46842 25.6673H9.71314C10.5128 25.6673 11.161 25.0256 11.161 24.234V24.234" stroke="#ABABAB" stroke-width="1.5" stroke-linecap="round" stroke-linejoin="round"/>
</svg>
