<svg width="29" height="28" viewBox="0 0 29 28" fill="none" xmlns="http://www.w3.org/2000/svg">
<path d="M11.1834 24.233V20.6551C11.1834 19.7451 11.9253 19.0056 12.8445 18.9995H16.2116C17.1352 18.9995 17.8839 19.7408 17.8839 20.6551V20.6551V24.2441C17.8837 25.0167 18.5067 25.6482 19.2869 25.6663H21.5316C23.7693 25.6663 25.5834 23.8705 25.5834 21.6551V21.6551V11.4771C25.5714 10.6056 25.1581 9.78725 24.461 9.25488L16.784 3.13253C15.4391 2.0665 13.5273 2.0665 12.1823 3.13253L4.53905 9.26599C3.83932 9.7962 3.4253 10.616 3.41669 11.4883V21.6551C3.41669 23.8705 5.23071 25.6663 7.46842 25.6663H9.71314C10.5128 25.6663 11.161 25.0246 11.161 24.233V24.233" stroke="url(#paint0_linear_557_2285)" stroke-width="2" stroke-linecap="round" stroke-linejoin="round"/>
<defs>
<linearGradient id="paint0_linear_557_2285" x1="14.5" y1="2.33301" x2="14.5" y2="25.6663" gradientUnits="userSpaceOnUse">
<stop stop-color="#3BA700"/>
<stop offset="1" stop-color="#6FCB03"/>
</linearGradient>
</defs>
</svg>
