<svg width="24" height="24" viewBox="0 0 24 24" fill="none" xmlns="http://www.w3.org/2000/svg">
<path fill-rule="evenodd" clip-rule="evenodd" d="M11.8791 5.49989C10.9241 5.61689 10.0191 5.95589 9.63707 6.26989C7.40907 8.11189 6.15107 10.5469 5.49807 12.6699C5.21689 13.5693 5.02858 14.4951 4.93607 15.4329C4.90207 15.8159 4.87107 16.2169 4.92907 16.5999C5.31207 17.0339 5.85407 17.3489 6.35707 17.6189C7.40807 18.1839 8.98707 18.7699 11.1101 19.0059C12.3121 19.1399 13.8301 19.2159 15.2301 19.1039C16.6831 18.9869 17.7971 18.6819 18.3751 18.2189C19.3491 17.4399 19.5951 16.5309 19.5061 15.7349C19.4111 14.8789 18.9301 14.1549 18.4461 13.8319C17.6111 13.2759 16.6711 13.2199 15.7851 13.4519C14.8731 13.6919 14.1241 14.2119 13.7701 14.6379C13.6813 14.745 13.5711 14.8325 13.4465 14.8946C13.322 14.9567 13.1858 14.9922 13.0468 14.9987C12.9078 15.0052 12.7689 14.9826 12.6391 14.9323C12.5094 14.8821 12.3915 14.8053 12.2931 14.7069C11.7431 14.1569 10.8081 13.9969 9.55507 14.8319C9.41837 14.9232 9.26127 14.9794 9.09768 14.9954C8.93409 15.0115 8.76905 14.9871 8.61718 14.9242C8.46531 14.8613 8.33128 14.7619 8.22695 14.6349C8.12263 14.5079 8.05123 14.3571 8.01907 14.1959C7.73307 12.7619 7.88207 11.2379 8.14607 9.98089C8.41207 8.72189 8.81207 7.63889 9.10607 7.05289C9.18921 6.88701 9.31686 6.74753 9.47474 6.65006C9.63263 6.55258 9.81452 6.50096 10.0001 6.50096C10.1856 6.50096 10.3675 6.55258 10.5254 6.65006C10.6833 6.74753 10.8109 6.88701 10.8941 7.05289C11.0971 7.45689 11.4681 7.81889 11.9001 7.97089C12.2351 7.75989 12.5261 7.46489 12.7621 7.14989C13.1961 6.57189 13.3411 6.02489 13.1481 5.54189C12.7561 5.40189 12.2821 5.45089 11.8791 5.49989ZM13.3621 3.53589C13.8461 3.62889 14.5531 3.87089 14.8941 4.55289C15.6411 6.04689 15.0241 7.46689 14.3621 8.34989C13.9301 8.92589 13.3741 9.46789 12.7271 9.79989C12.5921 9.86989 12.3171 9.99989 12.0001 9.99989C11.4091 9.99989 10.8301 9.73089 10.3551 9.39489C10.2651 9.70089 10.1781 10.0369 10.1031 10.3929C9.95475 11.0759 9.87436 11.772 9.86307 12.4709C10.9161 12.1309 11.9931 12.1669 12.9211 12.6909C13.6185 12.1432 14.4206 11.744 15.2781 11.5179C16.5781 11.1769 18.1381 11.2239 19.5551 12.1679C20.5701 12.8449 21.3391 14.1199 21.4941 15.5149C21.6561 16.9689 21.1511 18.5589 19.6241 19.7809C18.5461 20.6429 16.9031 20.9759 15.3911 21.0969C13.8261 21.2229 12.1731 21.1369 10.8901 20.9939C8.51207 20.7299 6.68607 20.0659 5.41007 19.3809C4.57307 18.9309 3.42807 18.3089 3.06507 17.3559C2.82007 16.7099 2.88407 15.9259 2.94407 15.2539C3.02407 14.3729 3.22007 13.2729 3.58707 12.0809C4.31907 9.70189 5.75207 6.88689 8.36307 4.72889C9.16607 4.06489 10.5101 3.65289 11.6351 3.51489C12.2151 3.44389 12.8251 3.43389 13.3621 3.53589Z" fill="#3BA700"/>
</svg>
