<svg width="24" height="24" viewBox="0 0 24 24" fill="none" xmlns="http://www.w3.org/2000/svg">
<path fill-rule="evenodd" clip-rule="evenodd" d="M16.9999 4C17.7629 4 18.3939 4.434 18.8559 4.89C19.3369 5.363 19.7779 5.999 20.1699 6.7C20.9569 8.106 21.6419 9.943 22.0949 11.758C22.5449 13.559 22.7939 15.44 22.6349 16.919C22.4749 18.404 21.7099 20 19.9999 20C18.5239 20 17.3479 19.24 16.3859 18.469L16.0349 18.18L15.5429 17.765L15.0989 17.397C14.0799 16.572 13.1749 16 11.9999 16C10.8249 16 9.91988 16.572 8.90088 17.397L8.45688 17.765L7.96488 18.18L7.61488 18.469C6.65088 19.24 5.47488 20 3.99988 20C2.28888 20 1.52388 18.404 1.36488 16.919C1.20688 15.439 1.45488 13.559 1.90488 11.758C2.35788 9.943 3.04288 8.106 3.82988 6.699C4.22188 5.999 4.66288 5.363 5.14388 4.889C5.60588 4.434 6.23688 4 6.99988 4C7.51488 4 8.01788 4.123 8.51288 4.27L9.10488 4.451C9.20355 4.48167 9.30188 4.51067 9.39988 4.538C10.2649 4.786 11.1499 5 11.9999 5C12.8499 5 13.7349 4.786 14.5999 4.538L15.4849 4.271C15.9829 4.124 16.4899 4 16.9999 4ZM16.9999 6C16.6169 6 16.2169 6.116 15.8289 6.243L15.3709 6.394L15.1499 6.462C14.2649 6.714 13.1499 7 11.9999 7C10.8499 7 9.73488 6.714 8.84988 6.462L8.62988 6.394L8.17088 6.243C7.78288 6.115 7.38288 6 6.99988 6C6.58188 6.078 6.20688 6.585 5.92388 7.055L5.76588 7.33L5.57588 7.676C4.89388 8.894 4.26588 10.556 3.84588 12.243C3.45088 13.819 3.25888 15.329 3.33188 16.453L3.35788 16.746L3.37788 16.922L3.40788 17.13C3.47688 17.531 3.62588 18 3.99988 18C4.81188 18 5.48988 17.596 6.33288 16.926L6.73588 16.598L7.49588 15.962L7.83988 15.682C8.90388 14.839 10.2349 14 11.9999 14C13.7649 14 15.0959 14.84 16.1599 15.682L16.5049 15.962L17.2649 16.598L17.6669 16.926C18.5099 17.596 19.1869 18 19.9999 18C20.3399 18 20.4939 17.613 20.5709 17.241L20.6089 17.023L20.6459 16.706C20.7689 15.56 20.5789 13.941 20.1549 12.243C19.7689 10.697 19.2089 9.171 18.5929 7.989L18.2339 7.329L18.0759 7.056C17.7929 6.585 17.4179 6.078 16.9999 6ZM8.49988 8C9.16292 8 9.79881 8.26339 10.2676 8.73223C10.7365 9.20107 10.9999 9.83696 10.9999 10.5C10.9999 11.163 10.7365 11.7989 10.2676 12.2678C9.79881 12.7366 9.16292 13 8.49988 13C7.83684 13 7.20095 12.7366 6.73211 12.2678C6.26327 11.7989 5.99988 11.163 5.99988 10.5C5.99988 9.83696 6.26327 9.20107 6.73211 8.73223C7.20095 8.26339 7.83684 8 8.49988 8ZM15.4999 8C15.7448 8.00003 15.9812 8.08996 16.1643 8.25272C16.3473 8.41547 16.4642 8.63975 16.4929 8.883L16.4999 9V9.5H16.9999C17.2548 9.50028 17.4999 9.59788 17.6852 9.77285C17.8706 9.94782 17.9821 10.187 17.9971 10.4414C18.012 10.6958 17.9292 10.9464 17.7656 11.1418C17.602 11.3373 17.37 11.4629 17.1169 11.493L16.9999 11.5H16.4999V12C16.4996 12.2549 16.402 12.5 16.227 12.6854C16.0521 12.8707 15.8129 12.9822 15.5585 12.9972C15.304 13.0121 15.0535 12.9293 14.858 12.7657C14.6626 12.6021 14.537 12.3701 14.5069 12.117L14.4999 12V11.5H13.9999C13.745 11.4997 13.4998 11.4021 13.3145 11.2272C13.1292 11.0522 13.0176 10.813 13.0027 10.5586C12.9878 10.3042 13.0706 10.0536 13.2341 9.85817C13.3977 9.66271 13.6298 9.5371 13.8829 9.507L13.9999 9.5H14.4999V9C14.4999 8.73478 14.6052 8.48043 14.7928 8.29289C14.9803 8.10536 15.2347 8 15.4999 8ZM8.49988 10C8.36727 10 8.24009 10.0527 8.14633 10.1464C8.05256 10.2402 7.99988 10.3674 7.99988 10.5C7.99988 10.6326 8.05256 10.7598 8.14633 10.8536C8.24009 10.9473 8.36727 11 8.49988 11C8.63249 11 8.75967 10.9473 8.85343 10.8536C8.9472 10.7598 8.99988 10.6326 8.99988 10.5C8.99988 10.3674 8.9472 10.2402 8.85343 10.1464C8.75967 10.0527 8.63249 10 8.49988 10Z" fill="#121313"/>
</svg>
