<svg width="24" height="24" viewBox="0 0 24 24" fill="none" xmlns="http://www.w3.org/2000/svg">
<path d="M7.06089 21.9998C8.58389 21.9998 9.90089 21.4568 10.9709 20.3868C12.0939 19.2638 12.6779 17.5328 12.5219 15.8928L21.0859 7.32878C21.6705 6.74295 21.9987 5.94901 21.9983 5.12137C21.9979 4.29373 21.669 3.50009 21.0839 2.91479C19.9059 1.73479 17.8499 1.73479 16.6719 2.91479L7.78789 11.7988C5.87489 11.9678 3.98089 13.3198 3.98089 15.7178C3.98089 16.0208 4.00189 16.3058 4.02289 16.5778C4.10289 17.6088 4.13189 17.9958 2.55189 18.7858C2.39647 18.8634 2.26395 18.9802 2.16741 19.1247C2.07086 19.2691 2.01361 19.4362 2.00129 19.6095C1.98898 19.7828 2.02203 19.9563 2.09718 20.113C2.17234 20.2696 2.28701 20.4039 2.42989 20.5028C2.51989 20.5628 4.62289 21.9998 7.06089 21.9998C7.05955 21.9998 7.05955 21.9998 7.06089 21.9998ZM18.0859 4.32779C18.2993 4.12309 18.5836 4.00896 18.8793 4.00934C19.175 4.00971 19.459 4.12455 19.6719 4.32979C19.7759 4.43379 19.8584 4.55726 19.9147 4.69315C19.971 4.82905 20 4.9747 20 5.12179C20 5.26888 19.971 5.41453 19.9147 5.55042C19.8584 5.68631 19.7759 5.80978 19.6719 5.91379L11.9999 13.5858L10.4139 11.9998L18.0859 4.32779ZM6.01789 16.4228C5.99989 16.1988 5.98089 15.9648 5.98089 15.7168C5.98089 14.1718 7.42589 13.7638 8.19089 13.7638C8.54689 13.7638 8.88989 13.8368 9.15489 13.9698C10.0999 14.4448 10.4149 15.2628 10.5119 15.8658C10.6889 16.9558 10.2949 18.2338 9.55589 18.9728C8.86489 19.6638 8.04889 19.9998 7.06089 19.9998C6.31089 19.9998 5.58089 19.8038 4.98589 19.5728C6.06789 18.5998 6.10689 17.5838 6.01789 16.4228Z" fill="#121313"/>
</svg>
