<svg width="24" height="24" viewBox="0 0 24 24" fill="none" xmlns="http://www.w3.org/2000/svg">
<path d="M18 7.5C18.663 7.5 19.2989 7.23661 19.7678 6.76777C20.2366 6.29893 20.5 5.66304 20.5 5C20.5 4.33696 20.2366 3.70107 19.7678 3.23223C19.2989 2.76339 18.663 2.5 18 2.5C17.337 2.5 16.7011 2.76339 16.2322 3.23223C15.7634 3.70107 15.5 4.33696 15.5 5C15.5 5.66304 15.7634 6.29893 16.2322 6.76777C16.7011 7.23661 17.337 7.5 18 7.5Z" stroke="#121313" stroke-width="2"/>
<path d="M5.99995 8.38502L10.0015 6.99902L15.5 9.62352L10.0015 13.722L15.5 17.342L12.004 21.999M17.66 10.8215L19.001 11.551L22 8.73302M8.42445 15.7725L6.93945 17.7285L2.00195 20.4985" stroke="#121313" stroke-width="2" stroke-linecap="round" stroke-linejoin="round"/>
</svg>
