<svg width="24" height="24" viewBox="0 0 24 24" fill="none" xmlns="http://www.w3.org/2000/svg">
<path fill-rule="evenodd" clip-rule="evenodd" d="M16.611 3.35301C17.047 3.10123 17.5619 3.02315 18.0529 3.13438C18.544 3.2456 18.975 3.53793 19.26 3.95301L19.343 4.08501L21.843 8.41501C22.0947 8.85101 22.1728 9.36594 22.0616 9.85698C21.9504 10.348 21.658 10.779 21.243 11.064L21.111 11.147L15.915 14.147C15.43 14.427 14.875 14.481 14.375 14.341L14.211 14.287L16.919 20.607C17.0177 20.8412 17.0235 21.1042 16.9352 21.3426C16.847 21.5809 16.6713 21.7767 16.4439 21.8902C16.2164 22.0036 15.9543 22.0262 15.7108 21.9534C15.4673 21.8806 15.2607 21.7177 15.133 21.498L15.081 21.394L13 16.539L10.92 21.394C10.8211 21.6309 10.6349 21.8207 10.3999 21.9241C10.1649 22.0274 9.89921 22.0365 9.65774 21.9494C9.41628 21.8623 9.21757 21.6856 9.10276 21.456C8.98794 21.2264 8.96582 20.9615 9.04096 20.716L9.08096 20.606L11.17 15.732L9.35296 16.782C9.04603 16.9592 8.69752 17.0517 8.34311 17.0499C7.9887 17.0481 7.64113 16.9522 7.33596 16.772L7.23096 16.846L7.12096 16.915L5.38896 17.915C4.95296 18.1668 4.43803 18.2449 3.94699 18.1336C3.45595 18.0224 3.02492 17.7301 2.73996 17.315L2.65696 17.183L2.15696 16.317C1.90518 15.881 1.82711 15.3661 1.93833 14.875C2.04955 14.384 2.34188 13.953 2.75696 13.668L2.88896 13.585L4.62096 12.585C4.69573 12.5417 4.77323 12.5033 4.85296 12.47C4.8498 12.1445 4.92612 11.8232 5.07529 11.5339C5.22446 11.2447 5.44198 10.9962 5.70896 10.81L5.85296 10.719L10.183 8.21901C10.2577 8.1757 10.3352 8.13729 10.415 8.10401C10.4118 7.77855 10.4881 7.45723 10.6373 7.16795C10.7865 6.87867 11.004 6.63017 11.271 6.44401L11.415 6.35301L16.611 3.35301ZM5.62096 14.317L3.88896 15.317L4.38896 16.183L6.12096 15.183L5.62096 14.317ZM11.183 9.95101L6.85296 12.451L8.35296 15.049L12.683 12.549L11.183 9.95101ZM17.611 5.08501L12.415 8.08501L14.915 12.415L20.111 9.41501L17.611 5.08501Z" fill="#121313"/>
</svg>
