<svg width="24" height="24" viewBox="0 0 24 24" fill="none" xmlns="http://www.w3.org/2000/svg">
<path d="M14.175 13.803C14.2046 13.8634 14.2092 13.9331 14.1877 13.9969C14.1661 14.0607 14.1202 14.1134 14.06 14.1435L13.724 14.3115C13.4761 14.4354 13.2028 14.4999 12.9257 14.4999C12.6486 14.4999 12.3753 14.4354 12.1275 14.3115L11.456 13.9755C11.2789 13.8869 11.0837 13.8408 10.8857 13.8408C10.6878 13.8408 10.4925 13.8869 10.3155 13.9755L9.64397 14.3115C9.39606 14.4355 9.12267 14.5 8.84547 14.5C8.56827 14.5 8.29489 14.4355 8.04697 14.3115L6.76947 13.673L4.30497 14.1655C4.2405 14.1787 4.17341 14.1665 4.11773 14.1314C4.06205 14.0964 4.02208 14.0411 4.0062 13.9772C3.99031 13.9134 3.99973 13.8458 4.03249 13.7888C4.06525 13.7317 4.11881 13.6895 4.18197 13.671L7.65947 12.626L7.63697 12.5995C6.91047 11.721 6.59547 10.7765 6.54547 9.87548C6.46247 8.37598 7.14697 7.05298 7.41597 6.53298L7.41997 6.52548C7.45047 6.46548 7.47397 6.42048 7.49097 6.38548C7.86797 5.61048 8.81397 5.28648 9.60197 5.64698C10.394 6.00948 10.7415 6.93298 10.3625 7.71248C10.3271 7.78481 10.2913 7.85731 10.255 7.92998C9.96497 8.51298 9.68447 9.08898 9.71847 9.70898C9.73447 9.99698 9.82597 10.3105 10.111 10.6555C10.412 11.0195 10.9835 11.4815 12.0625 11.9375C12.998 12.333 13.748 12.933 14.175 13.803ZM17.006 8.30498C17.6823 8.30498 18.3309 8.57364 18.8091 9.05185C19.2873 9.53007 19.556 10.1787 19.556 10.855C19.556 11.5313 19.2873 12.1799 18.8091 12.6581C18.3309 13.1363 17.6823 13.405 17.006 13.405C16.3297 13.405 15.6811 13.1363 15.2028 12.6581C14.7246 12.1799 14.456 11.5313 14.456 10.855C14.456 10.1787 14.7246 9.53007 15.2028 9.05185C15.6811 8.57364 16.3297 8.30498 17.006 8.30498Z" fill="#3BA700"/>
<path fill-rule="evenodd" clip-rule="evenodd" d="M2.11101 18.6893C2.19713 18.5852 2.32028 18.5185 2.45456 18.5033C2.58884 18.4881 2.72379 18.5256 2.83101 18.6078L3.64251 19.2348C3.86232 19.4037 4.13438 19.4902 4.41137 19.4793C4.68835 19.4683 4.95273 19.3606 5.15851 19.1748L5.20351 19.1348C5.60095 18.7765 6.11711 18.5782 6.65226 18.5782C7.1874 18.5782 7.70356 18.7765 8.10101 19.1348C8.30648 19.3201 8.57334 19.4227 8.85001 19.4227C9.12668 19.4227 9.39353 19.3201 9.59901 19.1348C9.99645 18.7765 10.5126 18.5782 11.0478 18.5782C11.5829 18.5782 12.0991 18.7765 12.4965 19.1348C12.9145 19.5148 13.5785 19.5128 14.004 19.1258C14.805 18.3963 16.064 18.3808 16.873 19.1168L16.908 19.1488C17.31 19.5148 17.937 19.5038 18.3255 19.1253C19.0815 18.3883 20.292 18.3428 21.104 19.0213L21.821 19.6203C22.036 19.8003 22.061 20.1153 21.8765 20.3253C21.7865 20.4262 21.6608 20.4883 21.5259 20.4983C21.391 20.5084 21.2575 20.4657 21.1535 20.3793L20.4365 19.7803C20.2396 19.6171 19.9894 19.5322 19.7338 19.5418C19.4782 19.5514 19.2351 19.6548 19.051 19.8323C18.271 20.5923 17.0145 20.6133 16.2085 19.8798L16.1735 19.8483C15.766 19.4773 15.1185 19.4793 14.7035 19.8568C13.892 20.5953 12.6165 20.6113 11.7965 19.8653C11.591 19.6801 11.3242 19.5775 11.0475 19.5775C10.7708 19.5775 10.504 19.6801 10.2985 19.8653C9.90106 20.2237 9.3849 20.422 8.84976 20.422C8.31461 20.422 7.79845 20.2237 7.40101 19.8653C7.19553 19.6801 6.92868 19.5775 6.65201 19.5775C6.37534 19.5775 6.10848 19.6801 5.90301 19.8653L5.85801 19.9058C5.47075 20.2552 4.97328 20.4578 4.45212 20.4783C3.93096 20.4989 3.41908 20.3361 3.00551 20.0183L2.19451 19.3918C2.14191 19.3519 2.09789 19.3018 2.06508 19.2445C2.03228 19.1872 2.01135 19.1239 2.00356 19.0583C1.99576 18.9928 2.00126 18.9263 2.01972 18.8629C2.03818 18.7995 2.06923 18.7405 2.11101 18.6893ZM2.11101 15.6893C2.19713 15.5852 2.32028 15.5185 2.45456 15.5033C2.58884 15.4881 2.72379 15.5256 2.83101 15.6078L3.64251 16.2348C3.86232 16.4037 4.13438 16.4902 4.41137 16.4793C4.68835 16.4683 4.95273 16.3606 5.15851 16.1748L5.20351 16.1348C5.60095 15.7765 6.11711 15.5782 6.65226 15.5782C7.1874 15.5782 7.70356 15.7765 8.10101 16.1348C8.30648 16.3201 8.57334 16.4227 8.85001 16.4227C9.12668 16.4227 9.39353 16.3201 9.59901 16.1348C9.99645 15.7765 10.5126 15.5782 11.0478 15.5782C11.5829 15.5782 12.0991 15.7765 12.4965 16.1348C12.9145 16.5148 13.5785 16.5128 14.004 16.1258C14.805 15.3963 16.064 15.3808 16.873 16.1168L16.908 16.1488C17.31 16.5148 17.937 16.5038 18.3255 16.1253C19.0815 15.3883 20.292 15.3428 21.104 16.0213L21.821 16.6203C22.036 16.8003 22.061 17.1153 21.8765 17.3253C21.7865 17.4262 21.6608 17.4883 21.5259 17.4983C21.391 17.5084 21.2575 17.4657 21.1535 17.3793L20.4365 16.7803C20.2396 16.6171 19.9894 16.5322 19.7338 16.5418C19.4782 16.5514 19.2351 16.6548 19.051 16.8323C18.271 17.5923 17.0145 17.6133 16.2085 16.8798L16.1735 16.8483C15.766 16.4773 15.1185 16.4793 14.7035 16.8568C13.892 17.5953 12.6165 17.6113 11.7965 16.8653C11.591 16.6801 11.3242 16.5775 11.0475 16.5775C10.7708 16.5775 10.504 16.6801 10.2985 16.8653C9.90106 17.2237 9.3849 17.422 8.84976 17.422C8.31461 17.422 7.79845 17.2237 7.40101 16.8653C7.19553 16.6801 6.92868 16.5775 6.65201 16.5775C6.37534 16.5775 6.10848 16.6801 5.90301 16.8653L5.85801 16.9058C5.47075 17.2552 4.97328 17.4578 4.45212 17.4783C3.93096 17.4989 3.41908 17.3361 3.00551 17.0183L2.19451 16.3918C2.14191 16.3519 2.09789 16.3018 2.06508 16.2445C2.03228 16.1872 2.01135 16.1239 2.00356 16.0583C1.99576 15.9928 2.00126 15.9263 2.01972 15.8629C2.03818 15.7995 2.06923 15.7405 2.11101 15.6893Z" fill="#3BA700"/>
</svg>
